{"glyphs":{"0":{"ha":782,"x_min":33,"x_max":754,"o":"m 488 944 q 693 858 632 944 q 754 606 754 771 q 705 300 754 446 q 553 63 656 154 q 300 -29 450 -29 q 94 58 156 -29 q 33 311 33 146 q 83 616 33 471 q 235 853 132 761 q 488 944 338 944 m 458 836 q 346 755 388 836 q 274 494 304 674 q 243 225 243 335 q 261 118 243 156 q 331 81 279 81 q 443 162 401 81 q 515 422 485 243 q 546 693 546 585 q 528 799 546 763 q 458 836 510 836 z "},"1":{"ha":782,"x_min":-6,"x_max":721,"o":"m 700 163 q 721 93 721 133 q 686 17 721 40 q 576 -7 651 -7 l 381 -4 q 237 -1 311 -3 q 104 0 163 0 q 4 -11 38 0 q -6 40 -6 10 q 23 117 -6 89 q 107 146 51 146 l 267 146 l 386 715 q 294 675 346 690 q 197 660 243 660 q 119 693 147 660 q 86 782 92 726 q 312 836 193 799 q 582 936 431 874 l 636 904 l 493 143 l 603 143 q 700 163 672 143 z "},"2":{"ha":782,"x_min":19,"x_max":719,"o":"m 356 440 q 467 558 429 503 q 504 671 504 613 q 466 754 504 725 q 358 783 428 783 q 228 745 282 783 q 147 644 175 707 q 99 676 119 653 q 79 733 79 699 q 129 846 79 797 q 258 920 179 894 q 419 946 336 946 q 636 886 553 946 q 719 707 719 826 q 674 548 719 619 q 539 404 629 476 q 333 256 500 374 l 253 199 q 510 174 378 174 q 598 182 563 174 q 660 211 633 190 q 688 119 688 168 q 492 -17 688 -17 q 396 -10 447 -17 q 297 4 344 -4 q 146 21 189 21 q 61 3 90 21 q 31 47 43 18 q 19 103 19 75 q 39 169 19 140 q 94 228 58 199 l 356 440 z "},"3":{"ha":782,"x_min":-4,"x_max":728,"o":"m 267 519 q 444 576 375 533 q 513 689 513 619 q 471 760 513 736 q 354 783 429 783 q 151 683 240 783 q 106 757 106 700 q 155 860 106 818 q 280 924 204 903 q 433 946 356 946 q 646 897 564 946 q 728 750 728 849 q 665 593 728 660 q 499 494 603 526 q 647 420 596 474 q 697 282 697 367 q 642 123 697 193 q 488 13 586 53 q 268 -28 389 -28 q 72 18 147 -28 q -4 142 -4 64 q 46 238 -4 206 q 135 156 81 183 q 260 129 190 129 q 413 165 357 129 q 469 271 469 201 q 413 380 469 347 q 247 413 356 413 l 267 519 z "},"4":{"ha":782,"x_min":-22,"x_max":757,"o":"m 715 917 q 599 335 671 718 l 646 335 q 735 354 713 338 q 757 286 757 326 q 723 211 757 239 q 631 183 689 183 l 572 183 l 539 0 l 329 0 l 364 185 l -7 185 q -22 251 -22 219 q 25 358 -22 304 l 518 917 l 715 917 m 394 338 q 478 713 425 486 l 146 338 l 394 338 z "},"5":{"ha":782,"x_min":6,"x_max":747,"o":"m 597 917 q 677 920 644 917 q 728 936 710 924 q 747 869 747 907 q 576 740 747 740 l 292 740 l 249 564 q 369 569 329 569 q 614 513 524 569 q 704 328 704 456 q 650 149 704 231 q 497 20 596 68 q 272 -28 399 -28 q 84 15 163 -28 q 6 142 6 57 q 51 238 6 204 q 267 129 125 129 q 422 169 367 129 q 478 288 478 210 q 420 401 478 369 q 251 433 363 433 q 83 425 158 433 l 204 917 l 597 917 z "},"6":{"ha":782,"x_min":38,"x_max":729,"o":"m 536 946 q 672 917 615 946 q 729 822 729 888 q 718 773 729 796 q 686 735 707 750 q 540 792 629 792 q 364 713 431 792 q 271 507 297 635 q 486 624 344 624 q 653 555 597 624 q 710 365 710 486 q 661 163 710 253 q 526 23 613 74 q 326 -28 439 -28 q 109 59 181 -28 q 38 304 38 146 q 100 608 38 458 q 276 851 163 757 q 536 946 390 946 m 407 499 q 317 457 353 499 q 265 354 282 415 q 249 235 249 293 q 269 138 249 172 q 340 103 290 103 q 431 145 396 103 q 483 249 467 188 q 499 369 499 311 q 407 499 499 499 z "},"7":{"ha":782,"x_min":71,"x_max":801,"o":"m 801 808 q 631 579 694 678 q 440 231 483 354 q 396 31 396 107 q 397 -3 396 10 q 333 -21 368 -14 q 269 -28 297 -28 q 178 3 211 -28 q 146 92 146 35 q 163 172 146 131 q 206 250 179 214 l 560 743 l 242 743 q 117 767 163 743 q 71 854 71 792 q 100 936 71 897 q 151 921 119 925 q 233 917 182 917 l 789 917 l 801 808 z "},"8":{"ha":782,"x_min":31,"x_max":743,"o":"m 504 944 q 676 899 608 944 q 743 761 743 853 q 547 503 743 611 q 630 429 601 458 q 674 365 658 400 q 689 282 689 329 q 638 120 689 190 q 502 11 588 50 q 317 -28 417 -28 q 113 31 194 -28 q 31 197 31 89 q 87 355 31 285 q 246 474 143 425 q 173 557 197 514 q 149 658 149 600 q 199 810 149 744 q 331 910 249 875 q 504 944 413 944 m 468 565 q 537 634 510 589 q 564 728 564 679 q 540 799 564 774 q 469 824 515 824 q 387 795 421 824 q 353 718 353 767 q 417 604 353 656 l 468 565 m 322 407 q 244 331 271 378 q 218 229 218 285 q 248 133 218 168 q 332 99 278 99 q 424 136 389 99 q 460 229 460 174 q 392 350 460 294 l 322 407 z "},"9":{"ha":782,"x_min":54,"x_max":746,"o":"m 457 946 q 674 859 603 946 q 746 614 746 772 q 683 310 746 460 q 507 67 621 161 q 247 -28 393 -28 q 111 1 168 -28 q 54 96 54 31 q 65 145 54 122 q 97 183 76 168 q 243 126 154 126 q 419 205 353 126 q 513 411 486 283 q 297 294 439 294 q 130 363 186 294 q 74 553 74 432 q 122 755 74 665 q 258 895 171 844 q 457 946 344 946 m 443 815 q 352 773 388 815 q 301 669 317 731 q 285 549 285 607 q 376 419 285 419 q 466 461 431 419 q 518 564 501 503 q 535 683 535 625 q 514 781 535 746 q 443 815 493 815 z "},"\u0000":{"ha":0,"x_min":0,"x_max":0,"o":""},"\r":{"ha":235,"x_min":0,"x_max":0,"o":""}," ":{"ha":235,"x_min":0,"x_max":0,"o":""},"A":{"ha":781,"x_min":-61,"x_max":740,"o":"m 676 206 q 740 49 688 83 q 692 -8 726 13 q 613 -28 658 -28 q 516 14 549 -28 q 469 129 483 56 q 457 228 461 178 l 207 228 q 117 0 165 128 l -61 0 l 365 917 l 622 917 l 676 206 m 426 763 q 301 463 372 636 q 276 399 289 432 q 247 332 263 367 l 450 332 l 426 763 z "},"Á":{"ha":781,"x_min":-61,"x_max":751,"o":"m 0 0 m 676 206 q 740 49 688 83 q 692 -8 726 13 q 613 -28 658 -28 q 516 14 549 -28 q 469 129 483 56 q 457 228 461 178 l 207 228 q 117 0 165 128 l -61 0 l 365 917 l 622 917 l 676 206 m 426 763 q 301 463 372 636 q 276 399 289 432 q 247 332 263 367 l 450 332 l 426 763 m 385 1053 l 717 1185 q 751 1117 751 1163 q 561 996 751 1001 l 399 989 l 385 1053 z "},"Ă":{"ha":781,"x_min":-61,"x_max":776,"o":"m 0 0 m 676 206 q 740 49 688 83 q 692 -8 726 13 q 613 -28 658 -28 q 516 14 549 -28 q 469 129 483 56 q 457 228 461 178 l 207 228 q 117 0 165 128 l -61 0 l 365 917 l 622 917 l 676 206 m 426 763 q 301 463 372 636 q 276 399 289 432 q 247 332 263 367 l 450 332 l 426 763 m 460 1157 q 454 1111 454 1131 q 468 1061 454 1082 q 514 1040 482 1040 q 585 1075 558 1040 q 621 1157 611 1110 l 776 1157 q 688 1023 758 1074 q 500 972 618 972 q 345 1013 399 972 q 292 1119 292 1053 q 296 1157 292 1136 l 460 1157 z "},"Â":{"ha":781,"x_min":-61,"x_max":740,"o":"m 0 0 m 676 206 q 740 49 688 83 q 692 -8 726 13 q 613 -28 658 -28 q 516 14 549 -28 q 469 129 483 56 q 457 228 461 178 l 207 228 q 117 0 165 128 l -61 0 l 365 917 l 622 917 l 676 206 m 426 763 q 301 463 372 636 q 276 399 289 432 q 247 332 263 367 l 450 332 l 426 763 m 715 1011 l 653 946 l 499 1032 l 306 946 l 265 1013 l 494 1174 l 531 1174 l 715 1011 z "},"Ä":{"ha":781,"x_min":-61,"x_max":786,"o":"m 0 0 m 676 206 q 740 49 688 83 q 692 -8 726 13 q 613 -28 658 -28 q 516 14 549 -28 q 469 129 483 56 q 457 228 461 178 l 207 228 q 117 0 165 128 l -61 0 l 365 917 l 622 917 l 676 206 m 426 763 q 301 463 372 636 q 276 399 289 432 q 247 332 263 367 l 450 332 l 426 763 m 358 1178 q 445 1153 413 1178 q 478 1082 478 1128 q 443 1010 478 1035 q 353 985 408 985 q 265 1009 299 985 q 232 1079 232 1033 q 267 1152 232 1126 q 358 1178 303 1178 m 667 1178 q 753 1153 721 1178 q 786 1082 786 1128 q 751 1010 786 1035 q 661 985 717 985 q 574 1009 607 985 q 540 1079 540 1033 q 576 1152 540 1126 q 667 1178 611 1178 z "},"À":{"ha":781,"x_min":-61,"x_max":740,"o":"m 0 0 m 676 206 q 740 49 688 83 q 692 -8 726 13 q 613 -28 658 -28 q 516 14 549 -28 q 469 129 483 56 q 457 228 461 178 l 207 228 q 117 0 165 128 l -61 0 l 365 917 l 622 917 l 676 206 m 426 763 q 301 463 372 636 q 276 399 289 432 q 247 332 263 367 l 450 332 l 426 763 m 624 989 l 461 996 q 323 1026 376 1000 q 269 1117 269 1053 q 278 1157 269 1140 q 304 1186 286 1174 l 638 1053 l 624 989 z "},"Ā":{"ha":781,"x_min":-61,"x_max":740,"o":"m 707 1144 q 713 1108 713 1125 q 687 1047 713 1071 q 613 1024 661 1024 l 303 1024 q 300 1060 300 1036 q 326 1122 301 1099 q 389 1144 350 1144 l 707 1144 m 676 206 q 740 49 688 83 q 692 -8 726 13 q 613 -28 658 -28 q 516 14 549 -28 q 469 129 483 56 q 457 228 461 178 l 207 228 q 117 0 165 128 l -61 0 l 365 917 l 622 917 l 676 206 m 426 763 q 301 463 372 636 q 276 399 289 432 q 247 332 263 367 l 450 332 l 426 763 z "},"Ą":{"ha":781,"x_min":-61,"x_max":769,"o":"m 746 -222 q 764 -247 758 -235 q 769 -275 769 -258 q 733 -335 769 -311 q 636 -358 697 -358 q 511 -319 557 -358 q 465 -206 465 -279 q 568 -21 465 -94 q 503 31 526 -7 q 469 129 481 69 q 457 228 461 178 l 207 228 q 117 0 165 128 l -61 0 l 365 917 l 622 917 l 676 206 q 740 49 688 83 q 724 19 735 32 l 724 14 l 707 3 l 697 -4 q 622 -86 650 -39 q 593 -181 593 -133 q 610 -239 593 -221 q 667 -257 628 -257 q 746 -222 719 -257 m 450 332 l 426 763 q 301 463 372 636 q 276 399 289 432 q 247 332 263 367 l 450 332 z "},"Å":{"ha":781,"x_min":-61,"x_max":740,"o":"m 0 0 m 676 206 q 740 49 688 83 q 692 -8 726 13 q 613 -28 658 -28 q 516 14 549 -28 q 469 129 483 56 q 457 228 461 178 l 207 228 q 117 0 165 128 l -61 0 l 365 917 l 622 917 l 676 206 m 426 763 q 301 463 372 636 q 276 399 289 432 q 247 332 263 367 l 450 332 l 426 763 m 665 1092 q 614 995 665 1032 q 494 958 563 958 q 403 983 436 958 q 369 1054 369 1008 q 422 1151 369 1114 q 542 1188 474 1188 q 632 1163 599 1188 q 665 1092 665 1138 m 576 1088 q 528 1136 576 1136 q 477 1113 497 1136 q 457 1053 457 1089 q 504 1006 457 1006 q 556 1029 535 1006 q 576 1088 576 1053 z "},"Ǻ":{"ha":781,"x_min":-61,"x_max":779,"o":"m 744 1300 q 779 1232 779 1278 q 589 1111 779 1117 l 426 1104 l 413 1168 l 744 1300 m 676 206 q 740 49 688 83 q 692 -8 726 13 q 613 -28 658 -28 q 516 14 549 -28 q 469 129 483 56 q 457 228 461 178 l 207 228 q 117 0 165 128 l -61 0 l 365 917 l 376 917 q 364 964 364 936 q 415 1060 364 1024 q 535 1097 467 1097 q 626 1072 592 1097 q 660 1003 660 1047 q 619 917 660 953 l 622 917 l 676 206 m 451 964 q 497 917 451 917 q 550 940 529 917 q 571 999 571 964 q 521 1046 571 1046 q 471 1023 490 1046 q 451 964 451 1000 m 450 332 l 426 763 q 301 463 372 636 q 276 399 289 432 q 247 332 263 367 l 450 332 z "},"Ã":{"ha":781,"x_min":-61,"x_max":756,"o":"m 0 0 m 676 206 q 740 49 688 83 q 692 -8 726 13 q 613 -28 658 -28 q 516 14 549 -28 q 469 129 483 56 q 457 228 461 178 l 207 228 q 117 0 165 128 l -61 0 l 365 917 l 622 917 l 676 206 m 426 763 q 301 463 372 636 q 276 399 289 432 q 247 332 263 367 l 450 332 l 426 763 m 731 1163 q 756 1099 756 1132 q 724 1030 756 1054 q 635 1006 692 1006 q 500 1018 593 1006 q 378 1029 406 1029 q 328 1023 351 1029 q 293 1007 306 1017 q 267 1078 267 1043 q 299 1140 267 1118 q 392 1163 332 1163 q 529 1150 439 1163 q 654 1139 626 1139 q 731 1163 711 1139 z "},"Æ":{"ha":992,"x_min":-94,"x_max":1026,"o":"m 215 246 q 149 112 190 196 q 94 0 107 28 l -94 0 l 424 917 l 1026 917 q 983 803 1026 842 q 867 764 939 764 q 779 774 828 764 q 692 801 731 785 l 661 531 l 921 531 q 884 430 921 464 q 782 396 847 396 q 713 403 749 396 q 649 425 676 411 q 632 251 632 292 q 665 158 632 183 q 767 132 697 132 q 896 153 840 132 q 907 99 907 129 q 843 1 907 29 q 692 -28 779 -28 q 499 27 569 -28 q 428 190 428 82 q 431 246 428 218 l 215 246 m 500 786 q 268 353 365 546 l 444 353 l 500 786 z "},"Ǽ":{"ha":992,"x_min":-94,"x_max":1026,"o":"m 0 0 m 215 246 q 149 112 190 196 q 94 0 107 28 l -94 0 l 424 917 l 1026 917 q 983 803 1026 842 q 867 764 939 764 q 779 774 828 764 q 692 801 731 785 l 661 531 l 921 531 q 884 430 921 464 q 782 396 847 396 q 713 403 749 396 q 649 425 676 411 q 632 251 632 292 q 665 158 632 183 q 767 132 697 132 q 896 153 840 132 q 907 99 907 129 q 843 1 907 29 q 692 -28 779 -28 q 499 27 569 -28 q 428 190 428 82 q 431 246 428 218 l 215 246 m 500 786 q 268 353 365 546 l 444 353 l 500 786 m 493 1053 l 825 1185 q 860 1117 860 1163 q 669 996 860 1001 l 507 989 l 493 1053 z "},"B":{"ha":796,"x_min":13,"x_max":768,"o":"m 188 917 q 440 926 328 926 q 610 913 540 926 q 724 860 679 900 q 768 742 768 819 q 723 605 768 663 q 600 515 678 547 q 754 313 754 475 q 620 71 754 151 q 267 -10 486 -10 q 13 0 157 -10 l 188 917 m 381 535 q 519 586 472 535 q 565 719 565 638 q 538 808 565 781 q 451 836 511 836 q 399 831 432 836 l 342 538 l 381 535 m 256 94 q 317 89 279 89 q 476 147 421 89 q 532 294 532 204 q 507 385 532 354 q 438 428 482 417 q 322 440 393 439 l 256 94 z "},"C":{"ha":775,"x_min":33,"x_max":806,"o":"m 551 944 q 733 901 661 944 q 806 769 806 858 q 760 656 806 699 q 650 614 715 614 q 583 629 607 614 q 599 735 599 678 q 578 814 599 782 q 513 846 558 846 q 383 762 438 846 q 299 561 328 678 q 271 350 271 444 q 310 199 271 251 q 436 146 349 146 q 563 181 507 146 q 658 278 618 217 q 699 194 699 253 q 653 82 699 133 q 530 1 608 31 q 357 -28 451 -28 q 115 63 197 -28 q 33 332 33 153 q 94 631 33 490 q 272 858 154 771 q 551 944 389 944 z "},"Ć":{"ha":775,"x_min":33,"x_max":806,"o":"m 33 0 m 551 944 q 733 901 661 944 q 806 769 806 858 q 760 656 806 699 q 650 614 715 614 q 583 629 607 614 q 599 735 599 678 q 578 814 599 782 q 513 846 558 846 q 383 762 438 846 q 299 561 328 678 q 271 350 271 444 q 310 199 271 251 q 436 146 349 146 q 563 181 507 146 q 658 278 618 217 q 699 194 699 253 q 653 82 699 133 q 530 1 608 31 q 357 -28 451 -28 q 115 63 197 -28 q 33 332 33 153 q 94 631 33 490 q 272 858 154 771 q 551 944 389 944 m 435 1053 l 767 1185 q 801 1117 801 1163 q 611 996 801 1001 l 449 989 l 435 1053 z "},"Č":{"ha":775,"x_min":33,"x_max":806,"o":"m 33 0 m 551 944 q 733 901 661 944 q 806 769 806 858 q 760 656 806 699 q 650 614 715 614 q 583 629 607 614 q 599 735 599 678 q 578 814 599 782 q 513 846 558 846 q 383 762 438 846 q 299 561 328 678 q 271 350 271 444 q 310 199 271 251 q 436 146 349 146 q 563 181 507 146 q 658 278 618 217 q 699 194 699 253 q 653 82 699 133 q 530 1 608 31 q 357 -28 451 -28 q 115 63 197 -28 q 33 332 33 153 q 94 631 33 490 q 272 858 154 771 q 551 944 389 944 m 353 1117 l 415 1175 l 569 1103 l 763 1175 l 803 1115 l 581 961 l 531 961 l 353 1117 z "},"Ç":{"ha":775,"x_min":33,"x_max":806,"o":"m 650 614 q 583 629 607 614 q 599 735 599 678 q 578 814 599 782 q 513 846 558 846 q 383 762 438 846 q 299 561 328 678 q 271 350 271 444 q 310 199 271 251 q 436 146 349 146 q 563 181 507 146 q 658 278 618 217 q 699 194 699 253 q 660 91 699 139 q 556 13 622 43 q 407 -25 490 -18 l 389 -86 l 440 -85 q 544 -111 504 -85 q 585 -193 585 -137 q 522 -310 585 -264 q 364 -356 458 -356 q 273 -337 307 -356 q 239 -285 239 -318 q 263 -229 239 -249 q 356 -271 289 -271 q 418 -256 393 -271 q 443 -208 443 -242 q 347 -154 443 -154 q 293 -157 329 -154 l 332 -28 q 109 69 185 -21 q 33 332 33 160 q 94 631 33 490 q 272 858 154 771 q 551 944 389 944 q 733 901 661 944 q 806 769 806 858 q 760 656 806 699 q 650 614 715 614 z "},"Ĉ":{"ha":775,"x_min":33,"x_max":806,"o":"m 33 0 m 551 944 q 733 901 661 944 q 806 769 806 858 q 760 656 806 699 q 650 614 715 614 q 583 629 607 614 q 599 735 599 678 q 578 814 599 782 q 513 846 558 846 q 383 762 438 846 q 299 561 328 678 q 271 350 271 444 q 310 199 271 251 q 436 146 349 146 q 563 181 507 146 q 658 278 618 217 q 699 194 699 253 q 653 82 699 133 q 530 1 608 31 q 357 -28 451 -28 q 115 63 197 -28 q 33 332 33 153 q 94 631 33 490 q 272 858 154 771 q 551 944 389 944 m 765 1011 l 703 946 l 549 1032 l 356 946 l 315 1013 l 544 1174 l 581 1174 l 765 1011 z "},"Ċ":{"ha":775,"x_min":33,"x_max":806,"o":"m 557 1178 q 644 1153 611 1178 q 676 1082 676 1128 q 642 1010 676 1035 q 551 985 607 985 q 464 1009 497 985 q 431 1079 431 1033 q 466 1152 431 1126 q 557 1178 501 1178 m 551 944 q 733 901 661 944 q 806 769 806 858 q 760 656 806 699 q 650 614 715 614 q 583 629 607 614 q 599 735 599 678 q 578 814 599 782 q 513 846 558 846 q 383 762 438 846 q 299 561 328 678 q 271 350 271 444 q 310 199 271 251 q 436 146 349 146 q 563 181 507 146 q 658 278 618 217 q 699 194 699 253 q 653 82 699 133 q 530 1 608 31 q 357 -28 451 -28 q 115 63 197 -28 q 33 332 33 153 q 94 631 33 490 q 272 858 154 771 q 551 944 389 944 z "},"D":{"ha":885,"x_min":10,"x_max":849,"o":"m 188 917 q 444 926 328 926 q 681 894 593 926 q 808 786 768 861 q 849 581 849 711 q 783 272 849 406 q 588 65 718 139 q 267 -10 457 -10 q 146 -7 217 -10 q 10 0 75 -4 l 188 917 m 256 96 q 336 89 297 89 q 501 174 442 89 q 593 413 561 258 q 626 665 626 571 q 592 790 626 750 q 476 829 557 829 q 397 822 439 829 l 256 96 z "},"Ǳ":{"ha":1571,"x_min":10,"x_max":1615,"o":"m 10 0 m 188 917 q 444 926 328 926 q 681 894 593 926 q 808 786 768 861 q 849 581 849 711 q 783 272 849 406 q 588 65 718 139 q 267 -10 457 -10 q 146 -7 217 -10 q 10 0 75 -4 l 188 917 m 256 96 q 336 89 297 89 q 501 174 442 89 q 593 413 561 258 q 626 665 626 571 q 592 790 626 750 q 476 829 557 829 q 397 822 439 829 l 256 96 m 1381 719 q 1144 746 1221 746 q 997 715 1056 746 q 969 813 969 760 q 1142 938 969 938 q 1242 929 1189 938 q 1304 919 1294 921 q 1461 901 1404 901 q 1569 917 1521 901 q 1603 869 1592 897 q 1615 813 1615 842 q 1558 700 1615 749 l 1083 199 q 1202 179 1136 186 q 1328 172 1268 172 q 1417 180 1381 172 q 1481 208 1453 188 q 1507 118 1507 171 q 1318 -19 1507 -19 q 1226 -13 1276 -19 q 1129 1 1175 -7 q 986 19 1031 19 q 901 0 936 19 q 869 47 882 15 q 857 111 857 79 q 911 221 857 175 l 1381 719 z "},"Ǆ":{"ha":1571,"x_min":10,"x_max":1615,"o":"m 10 0 m 188 917 q 444 926 328 926 q 681 894 593 926 q 808 786 768 861 q 849 581 849 711 q 783 272 849 406 q 588 65 718 139 q 267 -10 457 -10 q 146 -7 217 -10 q 10 0 75 -4 l 188 917 m 256 96 q 336 89 297 89 q 501 174 442 89 q 593 413 561 258 q 626 665 626 571 q 592 790 626 750 q 476 829 557 829 q 397 822 439 829 l 256 96 m 1381 719 q 1144 746 1221 746 q 997 715 1056 746 q 969 813 969 760 q 1142 938 969 938 q 1242 929 1189 938 q 1304 919 1294 921 q 1461 901 1404 901 q 1569 917 1521 901 q 1603 869 1592 897 q 1615 813 1615 842 q 1558 700 1615 749 l 1083 199 q 1202 179 1136 186 q 1328 172 1268 172 q 1417 180 1381 172 q 1481 208 1453 188 q 1507 118 1507 171 q 1318 -19 1507 -19 q 1226 -13 1276 -19 q 1129 1 1175 -7 q 986 19 1031 19 q 901 0 936 19 q 869 47 882 15 q 857 111 857 79 q 911 221 857 175 l 1381 719 m 1107 1117 l 1169 1175 l 1324 1103 l 1517 1175 l 1557 1115 l 1335 961 l 1285 961 l 1107 1117 z "},"Ð":{"ha":885,"x_min":-14,"x_max":849,"o":"m 0 0 m 188 917 q 444 926 328 926 q 681 894 593 926 q 808 786 768 861 q 849 581 849 711 q 783 272 849 406 q 588 65 718 139 q 267 -10 457 -10 q 146 -7 217 -10 q 10 0 75 -4 l 89 407 l -11 407 q -14 443 -14 419 q 10 500 -12 479 q 72 521 33 521 l 111 521 l 188 917 m 256 96 q 336 89 297 89 q 501 174 442 89 q 593 413 561 258 q 626 665 626 571 q 592 790 626 750 q 476 829 557 829 q 397 822 439 829 l 339 521 l 506 521 q 510 485 510 507 q 486 428 510 450 q 414 407 463 407 l 317 407 l 256 96 z "},"Ď":{"ha":885,"x_min":10,"x_max":849,"o":"m 10 0 m 188 917 q 444 926 328 926 q 681 894 593 926 q 808 786 768 861 q 849 581 849 711 q 783 272 849 406 q 588 65 718 139 q 267 -10 457 -10 q 146 -7 217 -10 q 10 0 75 -4 l 188 917 m 256 96 q 336 89 297 89 q 501 174 442 89 q 593 413 561 258 q 626 665 626 571 q 592 790 626 750 q 476 829 557 829 q 397 822 439 829 l 256 96 m 318 1117 l 381 1175 l 535 1103 l 728 1175 l 768 1115 l 546 961 l 496 961 l 318 1117 z "},"Đ":{"ha":885,"x_min":-14,"x_max":849,"o":"m 188 917 q 444 926 328 926 q 681 894 593 926 q 808 786 768 861 q 849 581 849 711 q 783 272 849 406 q 588 65 718 139 q 267 -10 457 -10 q 146 -7 217 -10 q 10 0 75 -4 l 89 407 l -11 407 q -14 443 -14 419 q 10 500 -12 479 q 72 521 33 521 l 111 521 l 188 917 m 256 96 q 336 89 297 89 q 501 174 442 89 q 593 413 561 258 q 626 665 626 571 q 592 790 626 750 q 476 829 557 829 q 397 822 439 829 l 339 521 l 506 521 q 510 485 510 507 q 486 428 510 450 q 414 407 463 407 l 317 407 l 256 96 z "},"Ḍ":{"ha":885,"x_min":10,"x_max":849,"o":"m 10 0 m 188 917 q 444 926 328 926 q 681 894 593 926 q 808 786 768 861 q 849 581 849 711 q 783 272 849 406 q 588 65 718 139 q 267 -10 457 -10 q 146 -7 217 -10 q 10 0 75 -4 l 188 917 m 256 96 q 336 89 297 89 q 501 174 442 89 q 593 413 561 258 q 626 665 626 571 q 592 790 626 750 q 476 829 557 829 q 397 822 439 829 l 256 96 m 311 -67 q 399 -92 365 -67 q 432 -162 432 -117 q 397 -235 432 -210 q 306 -260 361 -260 q 218 -235 251 -260 q 185 -165 185 -211 q 220 -92 185 -118 q 311 -67 256 -67 z "},"ǲ":{"ha":1474,"x_min":10,"x_max":1500,"o":"m 10 0 m 188 917 q 444 926 328 926 q 681 894 593 926 q 808 786 768 861 q 849 581 849 711 q 783 272 849 406 q 588 65 718 139 q 267 -10 457 -10 q 146 -7 217 -10 q 10 0 75 -4 l 188 917 m 256 96 q 336 89 297 89 q 501 174 442 89 q 593 413 561 258 q 626 665 626 571 q 592 790 626 750 q 476 829 557 829 q 397 822 439 829 l 256 96 m 1293 538 q 1194 554 1250 547 q 1101 561 1138 561 q 1031 549 1060 561 q 985 513 1003 538 q 958 561 968 532 q 949 619 949 590 q 991 708 949 681 q 1103 736 1033 736 q 1251 719 1149 736 q 1393 703 1351 703 q 1469 717 1443 703 q 1500 644 1500 688 q 1436 525 1500 579 l 1075 183 q 1176 165 1118 172 q 1272 157 1235 157 q 1346 168 1311 157 q 1403 203 1381 179 q 1435 108 1435 167 q 1390 8 1435 40 q 1269 -25 1344 -25 q 1126 -6 1221 -25 q 1073 4 1117 -4 q 993 13 1029 13 q 911 -3 946 13 q 881 33 893 10 q 869 85 869 56 q 938 218 869 156 l 1293 538 z "},"ǅ":{"ha":1474,"x_min":10,"x_max":1515,"o":"m 10 0 m 188 917 q 444 926 328 926 q 681 894 593 926 q 808 786 768 861 q 849 581 849 711 q 783 272 849 406 q 588 65 718 139 q 267 -10 457 -10 q 146 -7 217 -10 q 10 0 75 -4 l 188 917 m 256 96 q 336 89 297 89 q 501 174 442 89 q 593 413 561 258 q 626 665 626 571 q 592 790 626 750 q 476 829 557 829 q 397 822 439 829 l 256 96 m 1293 538 q 1194 554 1250 547 q 1101 561 1138 561 q 1031 549 1060 561 q 985 513 1003 538 q 958 561 968 532 q 949 619 949 590 q 991 708 949 681 q 1103 736 1033 736 q 1251 719 1149 736 q 1393 703 1351 703 q 1469 717 1443 703 q 1500 644 1500 688 q 1436 525 1500 579 l 1075 183 q 1176 165 1118 172 q 1272 157 1235 157 q 1346 168 1311 157 q 1403 203 1381 179 q 1435 108 1435 167 q 1390 8 1435 40 q 1269 -25 1344 -25 q 1126 -6 1221 -25 q 1073 4 1117 -4 q 993 13 1029 13 q 911 -3 946 13 q 881 33 893 10 q 869 85 869 56 q 938 218 869 156 l 1293 538 m 1065 908 l 1128 967 l 1282 894 l 1475 967 l 1515 907 l 1293 753 l 1243 753 l 1065 908 z "},"E":{"ha":651,"x_min":14,"x_max":715,"o":"m 715 917 q 675 803 715 842 q 558 764 635 764 q 393 801 485 764 l 346 531 l 594 531 q 558 430 594 464 q 457 396 522 396 q 382 406 418 396 q 325 428 346 417 l 274 146 l 419 146 q 543 161 507 146 q 557 129 551 149 q 563 92 563 110 q 518 19 563 39 q 404 0 474 0 l 14 0 l 188 917 l 715 917 z "},"É":{"ha":651,"x_min":14,"x_max":718,"o":"m 14 0 m 715 917 q 675 803 715 842 q 558 764 635 764 q 393 801 485 764 l 346 531 l 594 531 q 558 430 594 464 q 457 396 522 396 q 382 406 418 396 q 325 428 346 417 l 274 146 l 419 146 q 543 161 507 146 q 557 129 551 149 q 563 92 563 110 q 518 19 563 39 q 404 0 474 0 l 14 0 l 188 917 l 715 917 m 351 1053 l 683 1185 q 718 1117 718 1163 q 528 996 718 1001 l 365 989 l 351 1053 z "},"Ĕ":{"ha":651,"x_min":14,"x_max":743,"o":"m 14 0 m 715 917 q 675 803 715 842 q 558 764 635 764 q 393 801 485 764 l 346 531 l 594 531 q 558 430 594 464 q 457 396 522 396 q 382 406 418 396 q 325 428 346 417 l 274 146 l 419 146 q 543 161 507 146 q 557 129 551 149 q 563 92 563 110 q 518 19 563 39 q 404 0 474 0 l 14 0 l 188 917 l 715 917 m 426 1157 q 421 1111 421 1131 q 435 1061 421 1082 q 481 1040 449 1040 q 551 1075 525 1040 q 588 1157 578 1110 l 743 1157 q 655 1023 725 1074 q 467 972 585 972 q 312 1013 365 972 q 258 1119 258 1053 q 263 1157 258 1136 l 426 1157 z "},"Ě":{"ha":651,"x_min":14,"x_max":719,"o":"m 14 0 m 715 917 q 675 803 715 842 q 558 764 635 764 q 393 801 485 764 l 346 531 l 594 531 q 558 430 594 464 q 457 396 522 396 q 382 406 418 396 q 325 428 346 417 l 274 146 l 419 146 q 543 161 507 146 q 557 129 551 149 q 563 92 563 110 q 518 19 563 39 q 404 0 474 0 l 14 0 l 188 917 l 715 917 m 269 1117 l 332 1175 l 486 1103 l 679 1175 l 719 1115 l 497 961 l 447 961 l 269 1117 z "},"Ê":{"ha":651,"x_min":14,"x_max":715,"o":"m 14 0 m 715 917 q 675 803 715 842 q 558 764 635 764 q 393 801 485 764 l 346 531 l 594 531 q 558 430 594 464 q 457 396 522 396 q 382 406 418 396 q 325 428 346 417 l 274 146 l 419 146 q 543 161 507 146 q 557 129 551 149 q 563 92 563 110 q 518 19 563 39 q 404 0 474 0 l 14 0 l 188 917 l 715 917 m 682 1011 l 619 946 l 465 1032 l 272 946 l 232 1013 l 461 1174 l 497 1174 l 682 1011 z "},"Ë":{"ha":651,"x_min":14,"x_max":753,"o":"m 14 0 m 715 917 q 675 803 715 842 q 558 764 635 764 q 393 801 485 764 l 346 531 l 594 531 q 558 430 594 464 q 457 396 522 396 q 382 406 418 396 q 325 428 346 417 l 274 146 l 419 146 q 543 161 507 146 q 557 129 551 149 q 563 92 563 110 q 518 19 563 39 q 404 0 474 0 l 14 0 l 188 917 l 715 917 m 325 1178 q 412 1153 379 1178 q 444 1082 444 1128 q 410 1010 444 1035 q 319 985 375 985 q 232 1009 265 985 q 199 1079 199 1033 q 234 1152 199 1126 q 325 1178 269 1178 m 633 1178 q 720 1153 688 1178 q 753 1082 753 1128 q 718 1010 753 1035 q 628 985 683 985 q 540 1009 574 985 q 507 1079 507 1033 q 542 1152 507 1126 q 633 1178 578 1178 z "},"Ė":{"ha":651,"x_min":14,"x_max":715,"o":"m 475 1178 q 562 1153 529 1178 q 594 1082 594 1128 q 560 1010 594 1035 q 469 985 525 985 q 382 1009 415 985 q 349 1079 349 1033 q 384 1152 349 1126 q 475 1178 419 1178 m 715 917 q 675 803 715 842 q 558 764 635 764 q 393 801 485 764 l 346 531 l 594 531 q 558 430 594 464 q 457 396 522 396 q 382 406 418 396 q 325 428 346 417 l 274 146 l 419 146 q 543 161 507 146 q 557 129 551 149 q 563 92 563 110 q 518 19 563 39 q 404 0 474 0 l 14 0 l 188 917 l 715 917 z "},"Ẹ":{"ha":651,"x_min":14,"x_max":715,"o":"m 14 0 m 715 917 q 675 803 715 842 q 558 764 635 764 q 393 801 485 764 l 346 531 l 594 531 q 558 430 594 464 q 457 396 522 396 q 382 406 418 396 q 325 428 346 417 l 274 146 l 419 146 q 543 161 507 146 q 557 129 551 149 q 563 92 563 110 q 518 19 563 39 q 404 0 474 0 l 14 0 l 188 917 l 715 917 m 268 -67 q 356 -92 322 -67 q 389 -162 389 -117 q 353 -235 389 -210 q 263 -260 318 -260 q 175 -235 208 -260 q 142 -165 142 -211 q 177 -92 142 -118 q 268 -67 213 -67 z "},"È":{"ha":651,"x_min":14,"x_max":715,"o":"m 14 0 m 715 917 q 675 803 715 842 q 558 764 635 764 q 393 801 485 764 l 346 531 l 594 531 q 558 430 594 464 q 457 396 522 396 q 382 406 418 396 q 325 428 346 417 l 274 146 l 419 146 q 543 161 507 146 q 557 129 551 149 q 563 92 563 110 q 518 19 563 39 q 404 0 474 0 l 14 0 l 188 917 l 715 917 m 590 989 l 428 996 q 290 1026 343 1000 q 236 1117 236 1053 q 244 1157 236 1140 q 271 1186 253 1174 l 604 1053 l 590 989 z "},"Ē":{"ha":651,"x_min":14,"x_max":715,"o":"m 674 1144 q 679 1108 679 1125 q 653 1047 679 1071 q 579 1024 628 1024 l 269 1024 q 267 1060 267 1036 q 292 1122 268 1099 q 356 1144 317 1144 l 674 1144 m 715 917 q 675 803 715 842 q 558 764 635 764 q 393 801 485 764 l 346 531 l 594 531 q 558 430 594 464 q 457 396 522 396 q 382 406 418 396 q 325 428 346 417 l 274 146 l 419 146 q 543 161 507 146 q 557 129 551 149 q 563 92 563 110 q 518 19 563 39 q 404 0 474 0 l 14 0 l 188 917 l 715 917 z "},"Ę":{"ha":651,"x_min":14,"x_max":715,"o":"m 558 764 q 393 801 485 764 l 346 531 l 594 531 q 558 430 594 464 q 457 396 522 396 q 382 406 418 396 q 325 428 346 417 l 274 146 l 419 146 q 543 161 507 146 q 557 129 551 149 q 563 92 563 110 q 503 13 563 33 q 410 -75 446 -24 q 374 -181 374 -126 q 391 -239 374 -221 q 447 -257 408 -257 q 526 -222 500 -257 q 544 -247 539 -235 q 550 -275 550 -258 q 514 -335 550 -311 q 417 -358 478 -358 q 292 -319 338 -358 q 246 -206 246 -279 q 283 -86 246 -139 q 381 0 321 -33 l 14 0 l 188 917 l 715 917 q 675 803 715 842 q 558 764 635 764 z "},"Ẽ":{"ha":651,"x_min":14,"x_max":722,"o":"m 14 0 m 715 917 q 675 803 715 842 q 558 764 635 764 q 393 801 485 764 l 346 531 l 594 531 q 558 430 594 464 q 457 396 522 396 q 382 406 418 396 q 325 428 346 417 l 274 146 l 419 146 q 543 161 507 146 q 557 129 551 149 q 563 92 563 110 q 518 19 563 39 q 404 0 474 0 l 14 0 l 188 917 l 715 917 m 697 1163 q 722 1099 722 1132 q 690 1030 722 1054 q 601 1006 658 1006 q 467 1018 560 1006 q 344 1029 372 1029 q 295 1023 318 1029 q 260 1007 272 1017 q 233 1078 233 1043 q 266 1140 233 1118 q 358 1163 299 1163 q 496 1150 406 1163 q 621 1139 593 1139 q 697 1163 678 1139 z "},"F":{"ha":654,"x_min":14,"x_max":725,"o":"m 725 917 q 569 761 725 761 q 478 772 526 761 q 393 799 429 782 l 347 536 l 606 536 q 569 433 606 469 q 464 396 533 396 q 325 429 394 396 l 249 0 l 14 0 l 188 917 l 725 917 z "},"G":{"ha":811,"x_min":33,"x_max":808,"o":"m 792 463 q 724 240 747 364 q 699 -4 701 117 q 632 -28 674 -28 q 554 -5 583 -28 q 522 51 525 18 q 425 -6 483 17 q 304 -28 367 -28 q 101 67 169 -28 q 33 328 33 161 q 94 630 33 489 q 272 858 154 771 q 553 944 390 944 q 735 901 663 944 q 808 769 808 857 q 763 656 808 699 q 653 614 718 614 q 586 629 608 614 q 601 735 601 678 q 581 813 601 781 q 517 846 561 846 q 384 764 440 846 q 299 564 328 682 q 269 343 269 446 q 415 122 269 122 q 474 129 444 122 q 519 151 503 136 l 564 438 l 792 463 z "},"Ğ":{"ha":811,"x_min":33,"x_max":840,"o":"m 33 0 m 792 463 q 724 240 747 364 q 699 -4 701 117 q 632 -28 674 -28 q 554 -5 583 -28 q 522 51 525 18 q 425 -6 483 17 q 304 -28 367 -28 q 101 67 169 -28 q 33 328 33 161 q 94 630 33 489 q 272 858 154 771 q 553 944 390 944 q 735 901 663 944 q 808 769 808 857 q 763 656 808 699 q 653 614 718 614 q 586 629 608 614 q 601 735 601 678 q 581 813 601 781 q 517 846 561 846 q 384 764 440 846 q 299 564 328 682 q 269 343 269 446 q 415 122 269 122 q 474 129 444 122 q 519 151 503 136 l 564 438 l 792 463 m 524 1157 q 518 1111 518 1131 q 532 1061 518 1082 q 578 1040 546 1040 q 649 1075 622 1040 q 685 1157 675 1110 l 840 1157 q 752 1023 822 1074 q 564 972 682 972 q 409 1013 463 972 q 356 1119 356 1053 q 360 1157 356 1136 l 524 1157 z "},"Ĝ":{"ha":811,"x_min":33,"x_max":808,"o":"m 33 0 m 792 463 q 724 240 747 364 q 699 -4 701 117 q 632 -28 674 -28 q 554 -5 583 -28 q 522 51 525 18 q 425 -6 483 17 q 304 -28 367 -28 q 101 67 169 -28 q 33 328 33 161 q 94 630 33 489 q 272 858 154 771 q 553 944 390 944 q 735 901 663 944 q 808 769 808 857 q 763 656 808 699 q 653 614 718 614 q 586 629 608 614 q 601 735 601 678 q 581 813 601 781 q 517 846 561 846 q 384 764 440 846 q 299 564 328 682 q 269 343 269 446 q 415 122 269 122 q 474 129 444 122 q 519 151 503 136 l 564 438 l 792 463 m 779 1011 l 717 946 l 563 1032 l 369 946 l 329 1013 l 558 1174 l 594 1174 l 779 1011 z "},"Ģ":{"ha":811,"x_min":33,"x_max":808,"o":"m 33 0 m 792 463 q 724 240 747 364 q 699 -4 701 117 q 632 -28 674 -28 q 554 -5 583 -28 q 522 51 525 18 q 425 -6 483 17 q 304 -28 367 -28 q 101 67 169 -28 q 33 328 33 161 q 94 630 33 489 q 272 858 154 771 q 553 944 390 944 q 735 901 663 944 q 808 769 808 857 q 763 656 808 699 q 653 614 718 614 q 586 629 608 614 q 601 735 601 678 q 581 813 601 781 q 517 846 561 846 q 384 764 440 846 q 299 564 328 682 q 269 343 269 446 q 415 122 269 122 q 474 129 444 122 q 519 151 503 136 l 564 438 l 792 463 m 453 -156 q 422 -250 453 -207 q 344 -319 392 -293 q 254 -344 297 -344 q 207 -333 222 -344 q 269 -242 249 -283 q 289 -149 289 -201 q 278 -87 289 -114 q 314 -75 290 -81 q 357 -69 338 -69 q 426 -92 400 -69 q 453 -156 453 -115 z "},"Ġ":{"ha":811,"x_min":33,"x_max":808,"o":"m 572 1178 q 659 1153 626 1178 q 692 1082 692 1128 q 657 1010 692 1035 q 567 985 622 985 q 479 1009 513 985 q 446 1079 446 1033 q 481 1152 446 1126 q 572 1178 517 1178 m 792 463 q 724 240 747 364 q 699 -4 701 117 q 632 -28 674 -28 q 554 -5 583 -28 q 522 51 525 18 q 425 -6 483 17 q 304 -28 367 -28 q 101 67 169 -28 q 33 328 33 161 q 94 630 33 489 q 272 858 154 771 q 553 944 390 944 q 735 901 663 944 q 808 769 808 857 q 763 656 808 699 q 653 614 718 614 q 586 629 608 614 q 601 735 601 678 q 581 813 601 781 q 517 846 561 846 q 384 764 440 846 q 299 564 328 682 q 269 343 269 446 q 415 122 269 122 q 474 129 444 122 q 519 151 503 136 l 564 438 l 792 463 z "},"H":{"ha":899,"x_min":11,"x_max":894,"o":"m 756 176 q 746 88 746 131 q 763 13 746 42 q 638 -28 708 -28 q 522 88 522 -28 q 538 210 522 119 l 569 400 l 314 400 l 236 0 l 11 0 l 188 917 l 415 917 l 335 504 l 589 504 l 665 917 l 894 917 l 756 176 z "},"Ħ":{"ha":899,"x_min":11,"x_max":953,"o":"m 949 764 q 953 728 953 747 q 927 667 953 690 q 853 643 901 643 l 843 643 l 756 176 q 746 88 746 131 q 763 13 746 42 q 638 -28 708 -28 q 522 88 522 -28 q 538 210 522 119 l 569 400 l 314 400 l 236 0 l 11 0 l 135 643 l 51 643 q 47 678 47 654 q 73 740 49 717 q 138 764 97 764 l 158 764 l 188 917 l 415 917 l 385 764 l 638 764 l 665 917 l 894 917 l 865 764 l 949 764 m 589 504 l 614 643 l 361 643 l 335 504 l 589 504 z "},"Ĥ":{"ha":899,"x_min":11,"x_max":894,"o":"m 11 0 m 756 176 q 746 88 746 131 q 763 13 746 42 q 638 -28 708 -28 q 522 88 522 -28 q 538 210 522 119 l 569 400 l 314 400 l 236 0 l 11 0 l 188 917 l 415 917 l 335 504 l 589 504 l 665 917 l 894 917 l 756 176 m 767 1011 l 704 946 l 550 1032 l 357 946 l 317 1013 l 546 1174 l 582 1174 l 767 1011 z "},"Ḥ":{"ha":899,"x_min":11,"x_max":894,"o":"m 11 0 m 756 176 q 746 88 746 131 q 763 13 746 42 q 638 -28 708 -28 q 522 88 522 -28 q 538 210 522 119 l 569 400 l 314 400 l 236 0 l 11 0 l 188 917 l 415 917 l 335 504 l 589 504 l 665 917 l 894 917 l 756 176 m 358 -67 q 446 -92 413 -67 q 479 -162 479 -117 q 444 -235 479 -210 q 353 -260 408 -260 q 265 -235 299 -260 q 232 -165 232 -211 q 267 -92 232 -118 q 358 -67 303 -67 z "},"I":{"ha":435,"x_min":11,"x_max":422,"o":"m 422 917 l 243 0 l 11 0 l 188 917 l 422 917 z "},"Ĳ":{"ha":869,"x_min":11,"x_max":856,"o":"m 11 0 m 422 917 l 243 0 l 11 0 l 188 917 l 422 917 m 708 157 q 606 -145 669 -47 q 436 -243 543 -243 q 357 -227 390 -243 q 310 -181 324 -211 q 385 -125 356 -162 q 434 -26 414 -87 q 475 143 454 36 l 624 917 l 856 917 l 708 157 z "},"Í":{"ha":435,"x_min":11,"x_max":579,"o":"m 11 0 m 422 917 l 243 0 l 11 0 l 188 917 l 422 917 m 213 1053 l 544 1185 q 579 1117 579 1163 q 389 996 579 1001 l 226 989 l 213 1053 z "},"Ĭ":{"ha":435,"x_min":11,"x_max":604,"o":"m 11 0 m 422 917 l 243 0 l 11 0 l 188 917 l 422 917 m 288 1157 q 282 1111 282 1131 q 296 1061 282 1082 q 342 1040 310 1040 q 413 1075 386 1040 q 449 1157 439 1110 l 604 1157 q 516 1023 586 1074 q 328 972 446 972 q 173 1013 226 972 q 119 1119 119 1053 q 124 1157 119 1136 l 288 1157 z "},"Î":{"ha":435,"x_min":11,"x_max":543,"o":"m 11 0 m 422 917 l 243 0 l 11 0 l 188 917 l 422 917 m 543 1011 l 481 946 l 326 1032 l 133 946 l 93 1013 l 322 1174 l 358 1174 l 543 1011 z "},"Ï":{"ha":435,"x_min":11,"x_max":614,"o":"m 11 0 m 422 917 l 243 0 l 11 0 l 188 917 l 422 917 m 186 1178 q 273 1153 240 1178 q 306 1082 306 1128 q 271 1010 306 1035 q 181 985 236 985 q 93 1009 126 985 q 60 1079 60 1033 q 95 1152 60 1126 q 186 1178 131 1178 m 494 1178 q 581 1153 549 1178 q 614 1082 614 1128 q 579 1010 614 1035 q 489 985 544 985 q 401 1009 435 985 q 368 1079 368 1033 q 403 1152 368 1126 q 494 1178 439 1178 z "},"İ":{"ha":435,"x_min":11,"x_max":454,"o":"m 335 1178 q 422 1153 389 1178 q 454 1082 454 1128 q 419 1010 454 1035 q 329 985 385 985 q 242 1009 275 985 q 208 1079 208 1033 q 244 1152 208 1126 q 335 1178 279 1178 m 422 917 l 243 0 l 11 0 l 188 917 l 422 917 z "},"Ị":{"ha":435,"x_min":-25,"x_max":422,"o":"m 0 0 m 422 917 l 243 0 l 11 0 l 188 917 l 422 917 m 101 -67 q 189 -92 156 -67 q 222 -162 222 -117 q 187 -235 222 -210 q 96 -260 151 -260 q 8 -235 42 -260 q -25 -165 -25 -211 q 10 -92 -25 -118 q 101 -67 46 -67 z "},"Ì":{"ha":435,"x_min":11,"x_max":465,"o":"m 11 0 m 422 917 l 243 0 l 11 0 l 188 917 l 422 917 m 451 989 l 289 996 q 151 1026 204 1000 q 97 1117 97 1053 q 106 1157 97 1140 q 132 1186 114 1174 l 465 1053 l 451 989 z "},"Ī":{"ha":435,"x_min":11,"x_max":540,"o":"m 535 1144 q 540 1108 540 1125 q 515 1047 540 1071 q 440 1024 489 1024 l 131 1024 q 128 1060 128 1036 q 153 1122 129 1099 q 217 1144 178 1144 l 535 1144 m 422 917 l 243 0 l 11 0 l 188 917 l 422 917 z "},"Į":{"ha":435,"x_min":-12,"x_max":422,"o":"m 189 -257 q 268 -222 242 -257 q 286 -247 281 -235 q 292 -275 292 -258 q 256 -335 292 -311 q 158 -358 219 -358 q 33 -319 79 -358 q -12 -206 -12 -279 q 25 -86 -12 -139 q 122 0 63 -33 l 11 0 l 188 917 l 422 917 l 246 14 l 243 0 l 225 0 q 146 -84 176 -36 q 115 -181 115 -132 q 133 -239 115 -221 q 189 -257 150 -257 z "},"Ĩ":{"ha":435,"x_min":11,"x_max":583,"o":"m 11 0 m 422 917 l 243 0 l 11 0 l 188 917 l 422 917 m 558 1163 q 583 1099 583 1132 q 551 1030 583 1054 q 463 1006 519 1006 q 328 1018 421 1006 q 206 1029 233 1029 q 156 1023 179 1029 q 121 1007 133 1017 q 94 1078 94 1043 q 127 1140 94 1118 q 219 1163 160 1163 q 357 1150 267 1163 q 482 1139 454 1139 q 558 1163 539 1139 z "},"J":{"ha":435,"x_min":-125,"x_max":421,"o":"m 274 157 q 172 -145 235 -47 q 1 -243 108 -243 q -78 -227 -44 -243 q -125 -181 -111 -211 q -50 -125 -79 -162 q -1 -26 -21 -87 q 40 143 19 36 l 189 917 l 421 917 l 274 157 z "},"Ĵ":{"ha":435,"x_min":-125,"x_max":542,"o":"m 0 0 m 274 157 q 172 -145 235 -47 q 1 -243 108 -243 q -78 -227 -44 -243 q -125 -181 -111 -211 q -50 -125 -79 -162 q -1 -26 -21 -87 q 40 143 19 36 l 189 917 l 421 917 l 274 157 m 542 1011 l 479 946 l 325 1032 l 132 946 l 92 1013 l 321 1174 l 357 1174 l 542 1011 z "},"K":{"ha":833,"x_min":14,"x_max":939,"o":"m 243 0 l 14 0 l 188 917 l 418 917 l 243 0 m 939 917 q 565 467 704 644 q 685 196 624 297 q 803 65 746 94 q 753 -4 789 19 q 667 -28 718 -28 q 538 25 589 -28 q 449 174 486 78 q 360 456 413 271 l 697 917 l 939 917 z "},"Ķ":{"ha":833,"x_min":14,"x_max":939,"o":"m 14 0 m 243 0 l 14 0 l 188 917 l 418 917 l 243 0 m 939 917 q 565 467 704 644 q 685 196 624 297 q 803 65 746 94 q 753 -4 789 19 q 667 -28 718 -28 q 538 25 589 -28 q 449 174 486 78 q 360 456 413 271 l 697 917 l 939 917 m 460 -156 q 429 -250 460 -207 q 351 -319 399 -293 q 261 -344 304 -344 q 214 -333 229 -344 q 276 -242 256 -283 q 296 -149 296 -201 q 285 -87 296 -114 q 321 -75 297 -81 q 364 -69 344 -69 q 433 -92 407 -69 q 460 -156 460 -115 z "},"L":{"ha":568,"x_min":15,"x_max":567,"o":"m 188 917 l 421 917 l 275 146 l 424 146 q 547 161 511 146 q 561 129 556 149 q 567 92 567 110 q 523 19 567 39 q 410 0 479 0 l 15 0 l 188 917 z "},"Ǉ":{"ha":1003,"x_min":15,"x_max":989,"o":"m 15 0 m 188 917 l 421 917 l 275 146 l 424 146 q 547 161 511 146 q 561 129 556 149 q 567 92 567 110 q 523 19 567 39 q 410 0 479 0 l 15 0 l 188 917 m 842 157 q 740 -145 803 -47 q 569 -243 676 -243 q 490 -227 524 -243 q 443 -181 457 -211 q 518 -125 489 -162 q 567 -26 547 -87 q 608 143 588 36 l 757 917 l 989 917 l 842 157 z "},"Ĺ":{"ha":568,"x_min":15,"x_max":567,"o":"m 15 0 m 188 917 l 421 917 l 275 146 l 424 146 q 547 161 511 146 q 561 129 556 149 q 567 92 567 110 q 523 19 567 39 q 410 0 479 0 l 15 0 l 188 917 m 186 1053 l 518 1185 q 553 1117 553 1163 q 363 996 553 1001 l 200 989 l 186 1053 z "},"Ľ":{"ha":568,"x_min":15,"x_max":689,"o":"m 15 0 m 188 917 l 421 917 l 275 146 l 424 146 q 547 161 511 146 q 561 129 556 149 q 567 92 567 110 q 523 19 567 39 q 410 0 479 0 l 15 0 l 188 917 m 528 979 q 563 992 540 986 q 604 997 585 997 q 665 972 642 997 q 689 901 689 947 q 665 822 689 861 q 600 758 640 783 q 515 733 560 733 q 469 742 497 733 q 523 826 507 786 q 539 913 539 867 q 528 979 539 951 z "},"Ļ":{"ha":568,"x_min":15,"x_max":567,"o":"m 15 0 m 188 917 l 421 917 l 275 146 l 424 146 q 547 161 511 146 q 561 129 556 149 q 567 92 567 110 q 523 19 567 39 q 410 0 479 0 l 15 0 l 188 917 m 340 -156 q 310 -250 340 -207 q 232 -319 279 -293 q 142 -344 185 -344 q 94 -333 110 -344 q 156 -242 136 -283 q 176 -149 176 -201 q 165 -87 176 -114 q 201 -75 178 -81 q 244 -69 225 -69 q 314 -92 288 -69 q 340 -156 340 -115 z "},"Ŀ":{"ha":568,"x_min":15,"x_max":569,"o":"m 188 917 l 421 917 l 275 146 l 424 146 q 547 161 511 146 q 561 129 556 149 q 567 92 567 110 q 523 19 567 39 q 410 0 479 0 l 15 0 l 188 917 m 500 557 q 551 539 532 557 q 569 489 569 521 q 568 469 569 476 q 530 403 560 428 q 460 379 500 379 q 408 397 428 379 q 389 444 389 414 q 422 526 389 494 q 500 557 456 557 z "},"ǈ":{"ha":568,"x_min":-131,"x_max":567,"o":"m 318 1033 q 228 1058 263 1033 q 193 1131 193 1083 q 229 1206 193 1179 q 322 1232 265 1232 q 412 1206 378 1232 q 446 1133 446 1181 q 410 1059 446 1085 q 318 1033 375 1033 m 547 161 q 561 129 556 149 q 567 92 567 110 q 523 19 567 39 q 410 0 479 0 l 153 0 q 1 -69 92 -69 q -86 -47 -51 -69 q -131 22 -121 -24 q -41 58 -76 24 q 19 162 -6 92 q 68 356 44 232 l 179 917 l 397 939 l 393 917 l 421 917 l 275 146 l 424 146 q 547 161 511 146 z "},"Ł":{"ha":624,"x_min":-14,"x_max":621,"o":"m 478 146 q 601 161 565 146 q 615 129 610 149 q 621 92 621 110 q 578 19 621 39 q 464 0 535 0 l 69 0 l 133 338 l 14 294 q -14 354 -14 319 q 44 431 -14 408 l 158 472 l 242 917 l 476 917 l 410 564 l 544 614 q 563 585 557 603 q 568 551 568 568 q 547 499 568 519 q 478 463 525 479 l 383 428 l 331 146 l 478 146 z "},"M":{"ha":1083,"x_min":-8,"x_max":1065,"o":"m 1065 917 l 1007 207 q 1003 142 1003 169 q 1040 35 1003 67 q 985 -12 1021 4 q 904 -29 950 -29 q 815 6 840 -29 q 789 113 789 42 q 794 196 789 154 l 842 672 l 536 0 l 399 0 l 282 672 l 140 0 l -8 0 l 206 917 l 453 917 l 556 339 l 821 917 l 1065 917 z "},"N":{"ha":928,"x_min":19,"x_max":906,"o":"m 168 0 l 19 0 l 188 917 l 436 917 l 644 243 l 757 917 l 906 917 l 738 0 l 489 0 l 281 675 l 168 0 z "},"Ǌ":{"ha":1363,"x_min":19,"x_max":1349,"o":"m 19 0 m 168 0 l 19 0 l 188 917 l 436 917 l 644 243 l 757 917 l 906 917 l 738 0 l 489 0 l 281 675 l 168 0 m 1201 157 q 1099 -145 1163 -47 q 929 -243 1036 -243 q 850 -227 883 -243 q 803 -181 817 -211 q 878 -125 849 -162 q 927 -26 907 -87 q 968 143 947 36 l 1117 917 l 1349 917 l 1201 157 z "},"Ń":{"ha":928,"x_min":19,"x_max":906,"o":"m 19 0 m 168 0 l 19 0 l 188 917 l 436 917 l 644 243 l 757 917 l 906 917 l 738 0 l 489 0 l 281 675 l 168 0 m 456 1053 l 788 1185 q 822 1117 822 1163 q 632 996 822 1001 l 469 989 l 456 1053 z "},"Ň":{"ha":928,"x_min":19,"x_max":906,"o":"m 19 0 m 168 0 l 19 0 l 188 917 l 436 917 l 644 243 l 757 917 l 906 917 l 738 0 l 489 0 l 281 675 l 168 0 m 374 1117 l 436 1175 l 590 1103 l 783 1175 l 824 1115 l 601 961 l 551 961 l 374 1117 z "},"Ņ":{"ha":928,"x_min":19,"x_max":906,"o":"m 19 0 m 168 0 l 19 0 l 188 917 l 436 917 l 644 243 l 757 917 l 906 917 l 738 0 l 489 0 l 281 675 l 168 0 m 496 -156 q 465 -250 496 -207 q 388 -319 435 -293 q 297 -344 340 -344 q 250 -333 265 -344 q 312 -242 292 -283 q 332 -149 332 -201 q 321 -87 332 -114 q 357 -75 333 -81 q 400 -69 381 -69 q 469 -92 443 -69 q 496 -156 496 -115 z "},"Ṅ":{"ha":928,"x_min":19,"x_max":906,"o":"m 578 1178 q 665 1153 632 1178 q 697 1082 697 1128 q 663 1010 697 1035 q 572 985 628 985 q 485 1009 518 985 q 451 1079 451 1033 q 487 1152 451 1126 q 578 1178 522 1178 m 168 0 l 19 0 l 188 917 l 436 917 l 644 243 l 757 917 l 906 917 l 738 0 l 489 0 l 281 675 l 168 0 z "},"Ŋ":{"ha":928,"x_min":19,"x_max":906,"o":"m 168 0 l 19 0 l 188 917 l 436 917 l 644 243 l 757 917 l 906 917 l 753 82 q 674 -167 722 -85 q 543 -249 626 -249 q 486 -237 511 -249 q 451 -203 461 -225 q 542 -135 508 -182 q 597 0 575 -89 l 492 0 l 281 675 l 168 0 z "},"ǋ":{"ha":928,"x_min":19,"x_max":906,"o":"m 588 1033 q 497 1058 532 1033 q 463 1131 463 1083 q 499 1206 463 1179 q 592 1232 535 1232 q 681 1206 647 1232 q 715 1133 715 1181 q 680 1059 715 1085 q 588 1033 644 1033 m 906 917 l 738 0 l 489 0 l 468 68 q 271 -69 397 -69 q 192 -52 225 -69 q 146 0 160 -35 l 19 0 l 188 917 l 436 917 l 443 892 l 449 917 l 667 939 l 574 471 l 644 243 l 757 917 l 906 917 m 354 438 l 281 675 l 172 26 q 270 117 233 43 q 338 356 307 192 l 354 438 z "},"Ñ":{"ha":928,"x_min":19,"x_max":906,"o":"m 19 0 m 168 0 l 19 0 l 188 917 l 436 917 l 644 243 l 757 917 l 906 917 l 738 0 l 489 0 l 281 675 l 168 0 m 801 1163 q 826 1099 826 1132 q 794 1030 826 1054 q 706 1006 763 1006 q 571 1018 664 1006 q 449 1029 476 1029 q 399 1023 422 1029 q 364 1007 376 1017 q 338 1078 338 1043 q 370 1140 338 1118 q 463 1163 403 1163 q 600 1150 510 1163 q 725 1139 697 1139 q 801 1163 782 1139 z "},"O":{"ha":889,"x_min":33,"x_max":856,"o":"m 542 944 q 778 856 700 944 q 856 590 856 768 q 799 293 856 435 q 627 62 742 151 q 349 -28 513 -28 q 112 60 190 -28 q 33 328 33 149 q 90 626 33 485 q 263 856 147 767 q 542 944 378 944 m 514 847 q 380 758 429 847 q 301 496 331 669 q 280 355 289 431 q 271 225 271 279 q 294 111 271 151 q 375 71 318 71 q 510 162 461 71 q 588 422 560 253 q 609 565 600 489 q 618 694 618 640 q 595 807 618 767 q 514 847 572 847 z "},"Ó":{"ha":889,"x_min":33,"x_max":856,"o":"m 33 0 m 542 944 q 778 856 700 944 q 856 590 856 768 q 799 293 856 435 q 627 62 742 151 q 349 -28 513 -28 q 112 60 190 -28 q 33 328 33 149 q 90 626 33 485 q 263 856 147 767 q 542 944 378 944 m 514 847 q 380 758 429 847 q 301 496 331 669 q 280 355 289 431 q 271 225 271 279 q 294 111 271 151 q 375 71 318 71 q 510 162 461 71 q 588 422 560 253 q 609 565 600 489 q 618 694 618 640 q 595 807 618 767 q 514 847 572 847 m 438 1053 l 769 1185 q 804 1117 804 1163 q 614 996 804 1001 l 451 989 l 438 1053 z "},"Ŏ":{"ha":889,"x_min":33,"x_max":856,"o":"m 33 0 m 542 944 q 778 856 700 944 q 856 590 856 768 q 799 293 856 435 q 627 62 742 151 q 349 -28 513 -28 q 112 60 190 -28 q 33 328 33 149 q 90 626 33 485 q 263 856 147 767 q 542 944 378 944 m 514 847 q 380 758 429 847 q 301 496 331 669 q 280 355 289 431 q 271 225 271 279 q 294 111 271 151 q 375 71 318 71 q 510 162 461 71 q 588 422 560 253 q 609 565 600 489 q 618 694 618 640 q 595 807 618 767 q 514 847 572 847 m 513 1157 q 507 1111 507 1131 q 521 1061 507 1082 q 567 1040 535 1040 q 638 1075 611 1040 q 674 1157 664 1110 l 829 1157 q 741 1023 811 1074 q 553 972 671 972 q 398 1013 451 972 q 344 1119 344 1053 q 349 1157 344 1136 l 513 1157 z "},"Ô":{"ha":889,"x_min":33,"x_max":856,"o":"m 33 0 m 542 944 q 778 856 700 944 q 856 590 856 768 q 799 293 856 435 q 627 62 742 151 q 349 -28 513 -28 q 112 60 190 -28 q 33 328 33 149 q 90 626 33 485 q 263 856 147 767 q 542 944 378 944 m 514 847 q 380 758 429 847 q 301 496 331 669 q 280 355 289 431 q 271 225 271 279 q 294 111 271 151 q 375 71 318 71 q 510 162 461 71 q 588 422 560 253 q 609 565 600 489 q 618 694 618 640 q 595 807 618 767 q 514 847 572 847 m 768 1011 l 706 946 l 551 1032 l 358 946 l 318 1013 l 547 1174 l 583 1174 l 768 1011 z "},"Ö":{"ha":889,"x_min":33,"x_max":856,"o":"m 33 0 m 542 944 q 778 856 700 944 q 856 590 856 768 q 799 293 856 435 q 627 62 742 151 q 349 -28 513 -28 q 112 60 190 -28 q 33 328 33 149 q 90 626 33 485 q 263 856 147 767 q 542 944 378 944 m 514 847 q 380 758 429 847 q 301 496 331 669 q 280 355 289 431 q 271 225 271 279 q 294 111 271 151 q 375 71 318 71 q 510 162 461 71 q 588 422 560 253 q 609 565 600 489 q 618 694 618 640 q 595 807 618 767 q 514 847 572 847 m 411 1178 q 498 1153 465 1178 q 531 1082 531 1128 q 496 1010 531 1035 q 406 985 461 985 q 318 1009 351 985 q 285 1079 285 1033 q 320 1152 285 1126 q 411 1178 356 1178 m 719 1178 q 806 1153 774 1178 q 839 1082 839 1128 q 804 1010 839 1035 q 714 985 769 985 q 626 1009 660 985 q 593 1079 593 1033 q 628 1152 593 1126 q 719 1178 664 1178 z "},"Ọ":{"ha":889,"x_min":33,"x_max":856,"o":"m 33 0 m 542 944 q 778 856 700 944 q 856 590 856 768 q 799 293 856 435 q 627 62 742 151 q 349 -28 513 -28 q 112 60 190 -28 q 33 328 33 149 q 90 626 33 485 q 263 856 147 767 q 542 944 378 944 m 514 847 q 380 758 429 847 q 301 496 331 669 q 280 355 289 431 q 271 225 271 279 q 294 111 271 151 q 375 71 318 71 q 510 162 461 71 q 588 422 560 253 q 609 565 600 489 q 618 694 618 640 q 595 807 618 767 q 514 847 572 847 m 338 -67 q 425 -92 392 -67 q 458 -162 458 -117 q 423 -235 458 -210 q 332 -260 388 -260 q 244 -235 278 -260 q 211 -165 211 -211 q 247 -92 211 -118 q 338 -67 282 -67 z "},"Ò":{"ha":889,"x_min":33,"x_max":856,"o":"m 33 0 m 542 944 q 778 856 700 944 q 856 590 856 768 q 799 293 856 435 q 627 62 742 151 q 349 -28 513 -28 q 112 60 190 -28 q 33 328 33 149 q 90 626 33 485 q 263 856 147 767 q 542 944 378 944 m 514 847 q 380 758 429 847 q 301 496 331 669 q 280 355 289 431 q 271 225 271 279 q 294 111 271 151 q 375 71 318 71 q 510 162 461 71 q 588 422 560 253 q 609 565 600 489 q 618 694 618 640 q 595 807 618 767 q 514 847 572 847 m 676 989 l 514 996 q 376 1026 429 1000 q 322 1117 322 1053 q 331 1157 322 1140 q 357 1186 339 1174 l 690 1053 l 676 989 z "},"Ő":{"ha":889,"x_min":33,"x_max":906,"o":"m 33 0 m 542 944 q 778 856 700 944 q 856 590 856 768 q 799 293 856 435 q 627 62 742 151 q 349 -28 513 -28 q 112 60 190 -28 q 33 328 33 149 q 90 626 33 485 q 263 856 147 767 q 542 944 378 944 m 514 847 q 380 758 429 847 q 301 496 331 669 q 280 355 289 431 q 271 225 271 279 q 294 111 271 151 q 375 71 318 71 q 510 162 461 71 q 588 422 560 253 q 609 565 600 489 q 618 694 618 640 q 595 807 618 767 q 514 847 572 847 m 581 1183 q 614 1153 601 1172 q 626 1111 626 1133 q 595 1041 626 1065 q 490 1000 564 1017 l 376 975 l 342 1022 l 581 1183 m 860 1183 q 893 1153 881 1172 q 906 1113 906 1135 q 874 1041 906 1065 q 771 1000 843 1017 l 656 975 l 621 1022 l 860 1183 z "},"Ō":{"ha":889,"x_min":33,"x_max":856,"o":"m 760 1144 q 765 1108 765 1125 q 740 1047 765 1071 q 665 1024 714 1024 l 356 1024 q 353 1060 353 1036 q 378 1122 354 1099 q 442 1144 403 1144 l 760 1144 m 542 944 q 778 856 700 944 q 856 590 856 768 q 799 293 856 435 q 627 62 742 151 q 349 -28 513 -28 q 112 60 190 -28 q 33 328 33 149 q 90 626 33 485 q 263 856 147 767 q 542 944 378 944 m 514 847 q 380 758 429 847 q 301 496 331 669 q 280 355 289 431 q 271 225 271 279 q 294 111 271 151 q 375 71 318 71 q 510 162 461 71 q 588 422 560 253 q 609 565 600 489 q 618 694 618 640 q 595 807 618 767 q 514 847 572 847 z "},"Ǫ":{"ha":889,"x_min":33,"x_max":856,"o":"m 546 14 q 453 -76 489 -24 q 417 -181 417 -128 q 434 -239 417 -221 q 490 -257 451 -257 q 569 -222 543 -257 q 588 -247 582 -235 q 593 -275 593 -258 q 557 -335 593 -311 q 460 -358 521 -358 q 335 -319 381 -358 q 289 -206 289 -279 q 383 -26 289 -101 q 349 -28 372 -28 q 112 60 190 -28 q 33 328 33 149 q 90 626 33 485 q 263 856 147 767 q 542 944 378 944 q 778 856 700 944 q 856 590 856 768 q 821 355 856 469 q 717 150 786 240 q 546 14 647 60 m 271 225 q 294 111 271 151 q 375 71 318 71 q 510 162 461 71 q 588 422 560 253 q 609 565 600 489 q 618 694 618 640 q 595 807 618 767 q 514 847 572 847 q 380 758 429 847 q 301 496 331 669 q 280 355 289 431 q 271 225 271 279 z "},"Ø":{"ha":901,"x_min":-14,"x_max":900,"o":"m 900 917 q 868 846 900 881 l 825 799 q 868 590 868 718 q 811 293 868 435 q 640 62 754 151 q 360 -28 525 -28 q 146 39 225 -28 l 136 29 q 54 -78 90 -18 q 6 -58 24 -78 q -14 -7 -12 -39 q 15 68 -14 38 l 79 139 q 46 328 46 214 q 103 626 46 485 q 274 856 160 768 q 553 944 389 944 q 749 893 676 944 l 761 907 q 832 996 806 957 q 878 972 857 996 q 900 917 900 949 m 624 753 q 593 823 615 799 q 526 847 571 847 q 392 758 442 847 q 314 497 343 669 q 296 383 301 435 l 624 753 m 386 71 q 522 159 472 71 q 590 347 571 247 q 621 571 608 447 l 285 194 q 386 71 292 71 z "},"Ǿ":{"ha":901,"x_min":-14,"x_max":900,"o":"m 0 0 m 900 917 q 868 846 900 881 l 825 799 q 868 590 868 718 q 811 293 868 435 q 640 62 754 151 q 360 -28 525 -28 q 146 39 225 -28 l 136 29 q 54 -78 90 -18 q 6 -58 24 -78 q -14 -7 -12 -39 q 15 68 -14 38 l 79 139 q 46 328 46 214 q 103 626 46 485 q 274 856 160 768 q 553 944 389 944 q 749 893 676 944 l 761 907 q 832 996 806 957 q 878 972 857 996 q 900 917 900 949 m 624 753 q 593 823 615 799 q 526 847 571 847 q 392 758 442 847 q 314 497 343 669 q 296 383 301 435 l 624 753 m 386 71 q 522 159 472 71 q 590 347 571 247 q 621 571 608 447 l 285 194 q 386 71 292 71 m 422 1053 l 754 1185 q 789 1117 789 1163 q 599 996 789 1001 l 436 989 l 422 1053 z "},"Õ":{"ha":889,"x_min":33,"x_max":856,"o":"m 33 0 m 542 944 q 778 856 700 944 q 856 590 856 768 q 799 293 856 435 q 627 62 742 151 q 349 -28 513 -28 q 112 60 190 -28 q 33 328 33 149 q 90 626 33 485 q 263 856 147 767 q 542 944 378 944 m 514 847 q 380 758 429 847 q 301 496 331 669 q 280 355 289 431 q 271 225 271 279 q 294 111 271 151 q 375 71 318 71 q 510 162 461 71 q 588 422 560 253 q 609 565 600 489 q 618 694 618 640 q 595 807 618 767 q 514 847 572 847 m 783 1163 q 808 1099 808 1132 q 776 1030 808 1054 q 688 1006 744 1006 q 553 1018 646 1006 q 431 1029 458 1029 q 381 1023 404 1029 q 346 1007 358 1017 q 319 1078 319 1043 q 352 1140 319 1118 q 444 1163 385 1163 q 582 1150 492 1163 q 707 1139 679 1139 q 783 1163 764 1139 z "},"Œ":{"ha":1154,"x_min":33,"x_max":1188,"o":"m 1082 531 q 1045 430 1082 464 q 943 396 1008 396 q 874 403 910 396 q 810 425 838 411 q 793 257 793 286 q 825 158 793 185 q 928 132 857 132 q 1057 153 1001 132 q 1068 99 1068 129 q 1005 1 1068 31 q 854 -28 942 -28 q 632 79 689 -28 q 353 -28 525 -28 q 112 59 190 -28 q 33 324 33 146 q 91 624 33 482 q 262 856 149 767 q 531 944 375 944 q 689 917 621 944 l 1188 917 q 1144 802 1188 840 q 1028 764 1100 764 q 940 774 989 764 q 853 801 892 785 l 822 531 l 1082 531 m 374 71 q 508 162 458 71 q 586 424 558 253 q 608 564 599 489 q 617 692 617 639 q 594 806 617 764 q 514 847 571 847 q 379 756 429 847 q 301 494 329 665 q 280 354 289 429 q 271 226 271 279 q 294 113 271 154 q 374 71 317 71 z "},"P":{"ha":785,"x_min":11,"x_max":828,"o":"m 11 0 l 188 917 q 235 919 221 919 q 432 928 363 928 q 652 910 568 928 q 782 840 736 892 q 828 690 828 788 q 789 528 828 599 q 681 419 750 457 q 522 381 611 381 q 424 398 465 381 q 371 456 382 415 l 389 454 q 415 457 399 454 q 556 526 504 464 q 608 692 608 589 q 577 801 608 767 q 476 836 546 836 q 403 829 442 836 l 243 0 l 11 0 z "},"Þ":{"ha":757,"x_min":11,"x_max":794,"o":"m 388 746 q 461 747 410 747 q 710 696 626 747 q 794 513 794 644 q 756 351 794 421 q 649 242 718 281 q 489 203 579 203 q 390 220 432 203 q 338 278 349 238 q 358 277 350 276 q 372 278 367 278 q 522 344 469 283 q 575 506 575 404 q 541 618 575 583 q 435 653 507 653 q 368 646 400 653 l 243 0 l 11 0 l 188 917 l 421 917 l 388 746 z "},"Q":{"ha":892,"x_min":49,"x_max":871,"o":"m 558 944 q 871 594 871 944 q 812 306 871 446 q 645 74 753 165 q 401 -24 538 -17 q 631 -57 524 -57 q 800 -21 738 -57 q 818 -97 818 -53 q 767 -199 818 -167 q 646 -231 717 -231 q 550 -220 596 -231 q 436 -187 504 -210 q 334 -158 372 -167 q 256 -149 296 -149 q 144 -175 189 -149 q 107 -79 107 -133 q 131 -10 107 -35 q 192 24 156 14 q 289 42 228 33 q 426 85 369 51 q 528 199 483 118 q 603 424 574 279 q 633 688 633 585 q 613 805 633 763 q 536 847 592 847 q 406 764 458 847 q 324 554 354 681 q 298 420 308 490 q 288 299 288 350 q 301 226 288 253 q 351 196 314 200 q 320 143 351 164 q 233 122 289 122 q 49 357 49 122 q 106 629 49 493 q 280 855 164 765 q 558 944 396 944 z "},"R":{"ha":838,"x_min":14,"x_max":819,"o":"m 240 919 q 341 924 269 921 q 464 926 413 926 q 656 908 579 926 q 776 840 732 890 q 819 693 819 789 q 757 497 819 576 q 590 397 694 417 q 697 173 642 257 q 806 65 753 89 q 756 -5 792 18 q 669 -28 719 -28 q 542 26 593 -28 q 456 177 492 79 q 367 464 419 275 q 390 463 376 463 q 545 520 492 463 q 599 683 599 578 q 568 798 599 760 q 468 836 538 836 q 403 831 436 836 l 243 0 l 14 0 l 188 917 l 240 919 z "},"Ŕ":{"ha":838,"x_min":14,"x_max":819,"o":"m 14 0 m 240 919 q 341 924 269 921 q 464 926 413 926 q 656 908 579 926 q 776 840 732 890 q 819 693 819 789 q 757 497 819 576 q 590 397 694 417 q 697 173 642 257 q 806 65 753 89 q 756 -5 792 18 q 669 -28 719 -28 q 542 26 593 -28 q 456 177 492 79 q 367 464 419 275 q 390 463 376 463 q 545 520 492 463 q 599 683 599 578 q 568 798 599 760 q 468 836 538 836 q 403 831 436 836 l 243 0 l 14 0 l 188 917 l 240 919 m 389 1053 l 721 1185 q 756 1117 756 1163 q 565 996 756 1001 l 403 989 l 389 1053 z "},"Ř":{"ha":838,"x_min":14,"x_max":819,"o":"m 14 0 m 240 919 q 341 924 269 921 q 464 926 413 926 q 656 908 579 926 q 776 840 732 890 q 819 693 819 789 q 757 497 819 576 q 590 397 694 417 q 697 173 642 257 q 806 65 753 89 q 756 -5 792 18 q 669 -28 719 -28 q 542 26 593 -28 q 456 177 492 79 q 367 464 419 275 q 390 463 376 463 q 545 520 492 463 q 599 683 599 578 q 568 798 599 760 q 468 836 538 836 q 403 831 436 836 l 243 0 l 14 0 l 188 917 l 240 919 m 307 1117 l 369 1175 l 524 1103 l 717 1175 l 757 1115 l 535 961 l 485 961 l 307 1117 z "},"Ŗ":{"ha":838,"x_min":14,"x_max":819,"o":"m 14 0 m 240 919 q 341 924 269 921 q 464 926 413 926 q 656 908 579 926 q 776 840 732 890 q 819 693 819 789 q 757 497 819 576 q 590 397 694 417 q 697 173 642 257 q 806 65 753 89 q 756 -5 792 18 q 669 -28 719 -28 q 542 26 593 -28 q 456 177 492 79 q 367 464 419 275 q 390 463 376 463 q 545 520 492 463 q 599 683 599 578 q 568 798 599 760 q 468 836 538 836 q 403 831 436 836 l 243 0 l 14 0 l 188 917 l 240 919 m 464 -156 q 433 -250 464 -207 q 356 -319 403 -293 q 265 -344 308 -344 q 218 -333 233 -344 q 280 -242 260 -283 q 300 -149 300 -201 q 289 -87 300 -114 q 325 -75 301 -81 q 368 -69 349 -69 q 438 -92 411 -69 q 464 -156 464 -115 z "},"Ṛ":{"ha":838,"x_min":14,"x_max":819,"o":"m 14 0 m 240 919 q 341 924 269 921 q 464 926 413 926 q 656 908 579 926 q 776 840 732 890 q 819 693 819 789 q 757 497 819 576 q 590 397 694 417 q 697 173 642 257 q 806 65 753 89 q 756 -5 792 18 q 669 -28 719 -28 q 542 26 593 -28 q 456 177 492 79 q 367 464 419 275 q 390 463 376 463 q 545 520 492 463 q 599 683 599 578 q 568 798 599 760 q 468 836 538 836 q 403 831 436 836 l 243 0 l 14 0 l 188 917 l 240 919 m 364 -67 q 451 -92 418 -67 q 485 -162 485 -117 q 449 -235 485 -210 q 358 -260 414 -260 q 271 -235 304 -260 q 238 -165 238 -211 q 273 -92 238 -118 q 364 -67 308 -67 z "},"S":{"ha":753,"x_min":6,"x_max":739,"o":"m 493 944 q 669 906 600 944 q 739 779 739 867 q 695 672 739 710 q 592 633 651 633 q 518 650 554 633 q 533 701 528 672 q 539 756 539 731 q 517 830 539 803 q 451 857 494 857 q 357 817 396 857 q 318 722 318 778 q 357 628 318 667 q 472 542 396 589 q 499 524 475 539 q 627 412 582 467 q 672 272 672 357 q 617 113 672 182 q 469 8 561 44 q 269 -29 376 -29 q 83 13 161 -29 q 6 149 6 56 q 45 252 6 214 q 149 290 85 290 q 232 272 192 290 q 211 161 211 221 q 235 89 211 114 q 307 64 260 64 q 410 100 367 64 q 453 193 453 136 q 417 283 453 246 q 306 372 381 321 q 290 383 297 379 q 278 392 283 388 q 149 506 194 449 q 103 650 103 563 q 154 806 103 739 q 294 908 206 872 q 493 944 383 944 z "},"Ś":{"ha":753,"x_min":6,"x_max":764,"o":"m 6 0 m 493 944 q 669 906 600 944 q 739 779 739 867 q 695 672 739 710 q 592 633 651 633 q 518 650 554 633 q 533 701 528 672 q 539 756 539 731 q 517 830 539 803 q 451 857 494 857 q 357 817 396 857 q 318 722 318 778 q 357 628 318 667 q 472 542 396 589 q 499 524 475 539 q 627 412 582 467 q 672 272 672 357 q 617 113 672 182 q 469 8 561 44 q 269 -29 376 -29 q 83 13 161 -29 q 6 149 6 56 q 45 252 6 214 q 149 290 85 290 q 232 272 192 290 q 211 161 211 221 q 235 89 211 114 q 307 64 260 64 q 410 100 367 64 q 453 193 453 136 q 417 283 453 246 q 306 372 381 321 q 290 383 297 379 q 278 392 283 388 q 149 506 194 449 q 103 650 103 563 q 154 806 103 739 q 294 908 206 872 q 493 944 383 944 m 397 1053 l 729 1185 q 764 1117 764 1163 q 574 996 764 1001 l 411 989 l 397 1053 z "},"Š":{"ha":753,"x_min":6,"x_max":765,"o":"m 6 0 m 493 944 q 669 906 600 944 q 739 779 739 867 q 695 672 739 710 q 592 633 651 633 q 518 650 554 633 q 533 701 528 672 q 539 756 539 731 q 517 830 539 803 q 451 857 494 857 q 357 817 396 857 q 318 722 318 778 q 357 628 318 667 q 472 542 396 589 q 499 524 475 539 q 627 412 582 467 q 672 272 672 357 q 617 113 672 182 q 469 8 561 44 q 269 -29 376 -29 q 83 13 161 -29 q 6 149 6 56 q 45 252 6 214 q 149 290 85 290 q 232 272 192 290 q 211 161 211 221 q 235 89 211 114 q 307 64 260 64 q 410 100 367 64 q 453 193 453 136 q 417 283 453 246 q 306 372 381 321 q 290 383 297 379 q 278 392 283 388 q 149 506 194 449 q 103 650 103 563 q 154 806 103 739 q 294 908 206 872 q 493 944 383 944 m 315 1117 l 378 1175 l 532 1103 l 725 1175 l 765 1115 l 543 961 l 493 961 l 315 1117 z "},"Ş":{"ha":753,"x_min":6,"x_max":739,"o":"m 592 633 q 518 650 554 633 q 533 701 528 672 q 539 756 539 731 q 517 830 539 803 q 451 857 494 857 q 357 817 396 857 q 318 722 318 778 q 357 628 318 667 q 472 542 396 589 q 499 524 475 539 q 627 412 582 467 q 672 272 672 357 q 627 127 672 190 q 505 25 582 64 q 335 -25 428 -14 l 317 -86 l 368 -85 q 472 -111 432 -85 q 513 -193 513 -137 q 449 -310 513 -264 q 292 -356 386 -356 q 201 -337 235 -356 q 167 -285 167 -318 q 190 -229 167 -249 q 283 -271 217 -271 q 346 -256 321 -271 q 371 -208 371 -242 q 275 -154 371 -154 q 221 -157 257 -154 l 258 -29 q 79 16 153 -26 q 6 149 6 58 q 45 252 6 214 q 149 290 85 290 q 232 272 192 290 q 211 161 211 221 q 235 89 211 114 q 307 64 260 64 q 410 100 367 64 q 453 193 453 136 q 417 283 453 246 q 306 372 381 321 q 290 383 297 379 q 278 392 283 388 q 149 506 194 449 q 103 650 103 563 q 154 806 103 739 q 294 908 206 872 q 493 944 383 944 q 669 906 600 944 q 739 779 739 867 q 695 672 739 710 q 592 633 651 633 z "},"Ŝ":{"ha":753,"x_min":6,"x_max":739,"o":"m 6 0 m 493 944 q 669 906 600 944 q 739 779 739 867 q 695 672 739 710 q 592 633 651 633 q 518 650 554 633 q 533 701 528 672 q 539 756 539 731 q 517 830 539 803 q 451 857 494 857 q 357 817 396 857 q 318 722 318 778 q 357 628 318 667 q 472 542 396 589 q 499 524 475 539 q 627 412 582 467 q 672 272 672 357 q 617 113 672 182 q 469 8 561 44 q 269 -29 376 -29 q 83 13 161 -29 q 6 149 6 56 q 45 252 6 214 q 149 290 85 290 q 232 272 192 290 q 211 161 211 221 q 235 89 211 114 q 307 64 260 64 q 410 100 367 64 q 453 193 453 136 q 417 283 453 246 q 306 372 381 321 q 290 383 297 379 q 278 392 283 388 q 149 506 194 449 q 103 650 103 563 q 154 806 103 739 q 294 908 206 872 q 493 944 383 944 m 728 1011 l 665 946 l 511 1032 l 318 946 l 278 1013 l 507 1174 l 543 1174 l 728 1011 z "},"Ș":{"ha":753,"x_min":6,"x_max":739,"o":"m 6 0 m 493 944 q 669 906 600 944 q 739 779 739 867 q 695 672 739 710 q 592 633 651 633 q 518 650 554 633 q 533 701 528 672 q 539 756 539 731 q 517 830 539 803 q 451 857 494 857 q 357 817 396 857 q 318 722 318 778 q 357 628 318 667 q 472 542 396 589 q 499 524 475 539 q 627 412 582 467 q 672 272 672 357 q 617 113 672 182 q 469 8 561 44 q 269 -29 376 -29 q 83 13 161 -29 q 6 149 6 56 q 45 252 6 214 q 149 290 85 290 q 232 272 192 290 q 211 161 211 221 q 235 89 211 114 q 307 64 260 64 q 410 100 367 64 q 453 193 453 136 q 417 283 453 246 q 306 372 381 321 q 290 383 297 379 q 278 392 283 388 q 149 506 194 449 q 103 650 103 563 q 154 806 103 739 q 294 908 206 872 q 493 944 383 944 m 392 -156 q 361 -250 392 -207 q 283 -319 331 -293 q 193 -344 236 -344 q 146 -333 161 -344 q 208 -242 188 -283 q 228 -149 228 -201 q 217 -87 228 -114 q 253 -75 229 -81 q 296 -69 276 -69 q 365 -92 339 -69 q 392 -156 392 -115 z "},"Ṣ":{"ha":753,"x_min":6,"x_max":739,"o":"m 6 0 m 493 944 q 669 906 600 944 q 739 779 739 867 q 695 672 739 710 q 592 633 651 633 q 518 650 554 633 q 533 701 528 672 q 539 756 539 731 q 517 830 539 803 q 451 857 494 857 q 357 817 396 857 q 318 722 318 778 q 357 628 318 667 q 472 542 396 589 q 499 524 475 539 q 627 412 582 467 q 672 272 672 357 q 617 113 672 182 q 469 8 561 44 q 269 -29 376 -29 q 83 13 161 -29 q 6 149 6 56 q 45 252 6 214 q 149 290 85 290 q 232 272 192 290 q 211 161 211 221 q 235 89 211 114 q 307 64 260 64 q 410 100 367 64 q 453 193 453 136 q 417 283 453 246 q 306 372 381 321 q 290 383 297 379 q 278 392 283 388 q 149 506 194 449 q 103 650 103 563 q 154 806 103 739 q 294 908 206 872 q 493 944 383 944 m 292 -67 q 379 -92 346 -67 q 413 -162 413 -117 q 377 -235 413 -210 q 286 -260 342 -260 q 199 -235 232 -260 q 165 -165 165 -211 q 201 -92 165 -118 q 292 -67 236 -67 z "},"ẞ":{"ha":1021,"x_min":-1,"x_max":979,"o":"m 89 460 q 276 835 140 726 q 619 944 411 944 q 979 807 871 944 q 806 705 878 764 q 733 589 733 646 q 755 531 733 556 q 821 474 776 506 q 890 413 864 439 q 935 347 917 388 q 954 254 954 307 q 904 103 954 168 q 772 5 854 39 q 594 -29 690 -29 q 424 11 494 -29 q 353 136 353 51 q 388 228 353 193 q 475 263 422 263 q 549 244 515 263 q 531 150 531 194 q 553 87 531 110 q 618 64 576 64 q 703 97 669 64 q 738 176 738 131 q 715 242 738 214 q 643 308 692 269 q 577 366 601 342 q 535 426 553 390 q 517 508 517 461 q 581 667 517 593 q 769 808 644 742 q 613 872 706 872 q 427 771 493 872 q 322 469 361 669 l 232 0 l -1 0 l 89 460 z "},"Ə":{"ha":797,"x_min":14,"x_max":763,"o":"m 253 -36 q 14 169 14 -36 q 126 392 14 311 q 429 481 239 474 l 518 479 q 525 579 525 539 q 494 724 525 676 q 383 772 463 772 q 256 738 315 772 q 164 643 196 704 q 131 714 131 663 q 176 831 131 778 q 299 914 222 883 q 465 944 375 944 q 688 854 613 944 q 763 575 763 764 q 704 276 763 417 q 531 50 646 136 q 253 -36 415 -36 m 292 46 q 422 147 364 46 q 507 411 479 249 q 363 381 429 411 q 258 292 297 350 q 218 156 218 233 q 292 46 218 46 z "},"T":{"ha":596,"x_min":46,"x_max":707,"o":"m 564 917 q 634 921 600 917 q 688 932 668 925 q 702 900 697 919 q 707 861 707 881 q 667 791 707 810 q 560 772 628 772 l 476 772 l 358 176 q 349 88 349 115 q 367 13 349 44 q 240 -28 313 -28 q 126 89 126 -28 q 150 271 126 153 l 251 772 l 161 772 q 58 761 96 772 q 49 790 53 772 q 46 821 46 807 q 84 896 46 875 q 186 917 122 917 l 564 917 z "},"Ŧ":{"ha":599,"x_min":-4,"x_max":707,"o":"m 688 932 q 702 900 697 919 q 707 861 707 881 q 667 791 707 810 q 560 772 628 772 l 476 772 l 428 526 l 626 526 q 632 490 632 507 q 608 434 632 456 q 535 413 583 413 l 406 413 l 358 176 q 349 88 349 115 q 367 13 349 44 q 240 -28 313 -28 q 126 89 126 -28 q 140 213 126 142 l 178 413 l 0 413 q -4 449 -4 425 q 20 506 -3 485 q 83 526 43 526 l 201 526 l 251 772 l 161 772 q 58 761 96 772 q 49 790 53 772 q 46 821 46 807 q 84 896 46 875 q 186 917 122 917 l 564 917 q 634 921 600 917 q 688 932 668 925 z "},"Ť":{"ha":596,"x_min":46,"x_max":707,"o":"m 46 0 m 564 917 q 634 921 600 917 q 688 932 668 925 q 702 900 697 919 q 707 861 707 881 q 667 791 707 810 q 560 772 628 772 l 476 772 l 358 176 q 349 88 349 115 q 367 13 349 44 q 240 -28 313 -28 q 126 89 126 -28 q 150 271 126 153 l 251 772 l 161 772 q 58 761 96 772 q 49 790 53 772 q 46 821 46 807 q 84 896 46 875 q 186 917 122 917 l 564 917 m 204 1117 l 267 1175 l 421 1103 l 614 1175 l 654 1115 l 432 961 l 382 961 l 204 1117 z "},"Ţ":{"ha":596,"x_min":46,"x_max":707,"o":"m 688 932 q 702 900 697 919 q 707 861 707 881 q 667 791 707 810 q 560 772 628 772 l 476 772 l 358 176 q 349 88 349 115 q 367 13 349 44 q 260 -26 319 -22 l 242 -86 l 293 -85 q 397 -111 357 -85 q 438 -193 438 -137 q 374 -310 438 -264 q 217 -356 311 -356 q 126 -337 160 -356 q 92 -285 92 -318 q 115 -229 92 -249 q 208 -271 142 -271 q 271 -256 246 -271 q 296 -208 296 -242 q 200 -154 296 -154 q 146 -157 182 -154 l 188 -19 q 126 89 126 4 q 150 271 126 153 l 251 772 l 161 772 q 58 761 96 772 q 49 790 53 772 q 46 821 46 807 q 84 896 46 875 q 186 917 122 917 l 564 917 q 634 921 600 917 q 688 932 668 925 z "},"Ț":{"ha":596,"x_min":46,"x_max":707,"o":"m 46 0 m 564 917 q 634 921 600 917 q 688 932 668 925 q 702 900 697 919 q 707 861 707 881 q 667 791 707 810 q 560 772 628 772 l 476 772 l 358 176 q 349 88 349 115 q 367 13 349 44 q 240 -28 313 -28 q 126 89 126 -28 q 150 271 126 153 l 251 772 l 161 772 q 58 761 96 772 q 49 790 53 772 q 46 821 46 807 q 84 896 46 875 q 186 917 122 917 l 564 917 m 317 -156 q 286 -250 317 -207 q 208 -319 256 -293 q 118 -344 161 -344 q 71 -333 86 -344 q 133 -242 113 -283 q 153 -149 153 -201 q 142 -87 153 -114 q 178 -75 154 -81 q 221 -69 201 -69 q 290 -92 264 -69 q 317 -156 317 -115 z "},"Ṭ":{"ha":596,"x_min":46,"x_max":707,"o":"m 46 0 m 564 917 q 634 921 600 917 q 688 932 668 925 q 702 900 697 919 q 707 861 707 881 q 667 791 707 810 q 560 772 628 772 l 476 772 l 358 176 q 349 88 349 115 q 367 13 349 44 q 240 -28 313 -28 q 126 89 126 -28 q 150 271 126 153 l 251 772 l 161 772 q 58 761 96 772 q 49 790 53 772 q 46 821 46 807 q 84 896 46 875 q 186 917 122 917 l 564 917 m 217 -67 q 304 -92 271 -67 q 338 -162 338 -117 q 302 -235 338 -210 q 211 -260 267 -260 q 124 -235 157 -260 q 90 -165 90 -211 q 126 -92 90 -118 q 217 -67 161 -67 z "},"U":{"ha":844,"x_min":47,"x_max":851,"o":"m 746 365 q 612 68 707 164 q 339 -28 517 -28 q 126 27 204 -28 q 47 194 47 82 q 67 354 47 257 l 175 917 l 410 917 l 301 338 q 283 199 283 250 q 310 117 283 146 q 388 89 336 89 q 509 156 471 89 q 571 351 547 222 l 674 917 l 851 917 l 746 365 z "},"Ú":{"ha":844,"x_min":47,"x_max":851,"o":"m 47 0 m 746 365 q 612 68 707 164 q 339 -28 517 -28 q 126 27 204 -28 q 47 194 47 82 q 67 354 47 257 l 175 917 l 410 917 l 301 338 q 283 199 283 250 q 310 117 283 146 q 388 89 336 89 q 509 156 471 89 q 571 351 547 222 l 674 917 l 851 917 l 746 365 m 446 1053 l 778 1185 q 813 1117 813 1163 q 622 996 813 1001 l 460 989 l 446 1053 z "},"Ŭ":{"ha":844,"x_min":47,"x_max":851,"o":"m 47 0 m 746 365 q 612 68 707 164 q 339 -28 517 -28 q 126 27 204 -28 q 47 194 47 82 q 67 354 47 257 l 175 917 l 410 917 l 301 338 q 283 199 283 250 q 310 117 283 146 q 388 89 336 89 q 509 156 471 89 q 571 351 547 222 l 674 917 l 851 917 l 746 365 m 521 1157 q 515 1111 515 1131 q 529 1061 515 1082 q 575 1040 543 1040 q 646 1075 619 1040 q 682 1157 672 1110 l 838 1157 q 749 1023 819 1074 q 561 972 679 972 q 406 1013 460 972 q 353 1119 353 1053 q 357 1157 353 1136 l 521 1157 z "},"Û":{"ha":844,"x_min":47,"x_max":851,"o":"m 47 0 m 746 365 q 612 68 707 164 q 339 -28 517 -28 q 126 27 204 -28 q 47 194 47 82 q 67 354 47 257 l 175 917 l 410 917 l 301 338 q 283 199 283 250 q 310 117 283 146 q 388 89 336 89 q 509 156 471 89 q 571 351 547 222 l 674 917 l 851 917 l 746 365 m 776 1011 l 714 946 l 560 1032 l 367 946 l 326 1013 l 556 1174 l 592 1174 l 776 1011 z "},"Ü":{"ha":844,"x_min":47,"x_max":851,"o":"m 47 0 m 746 365 q 612 68 707 164 q 339 -28 517 -28 q 126 27 204 -28 q 47 194 47 82 q 67 354 47 257 l 175 917 l 410 917 l 301 338 q 283 199 283 250 q 310 117 283 146 q 388 89 336 89 q 509 156 471 89 q 571 351 547 222 l 674 917 l 851 917 l 746 365 m 419 1178 q 506 1153 474 1178 q 539 1082 539 1128 q 504 1010 539 1035 q 414 985 469 985 q 326 1009 360 985 q 293 1079 293 1033 q 328 1152 293 1126 q 419 1178 364 1178 m 728 1178 q 815 1153 782 1178 q 847 1082 847 1128 q 813 1010 847 1035 q 722 985 778 985 q 635 1009 668 985 q 601 1079 601 1033 q 637 1152 601 1126 q 728 1178 672 1178 z "},"Ụ":{"ha":844,"x_min":47,"x_max":851,"o":"m 47 0 m 746 365 q 612 68 707 164 q 339 -28 517 -28 q 126 27 204 -28 q 47 194 47 82 q 67 354 47 257 l 175 917 l 410 917 l 301 338 q 283 199 283 250 q 310 117 283 146 q 388 89 336 89 q 509 156 471 89 q 571 351 547 222 l 674 917 l 851 917 l 746 365 m 317 -67 q 404 -92 371 -67 q 438 -162 438 -117 q 402 -235 438 -210 q 311 -260 367 -260 q 224 -235 257 -260 q 190 -165 190 -211 q 226 -92 190 -118 q 317 -67 261 -67 z "},"Ù":{"ha":844,"x_min":47,"x_max":851,"o":"m 47 0 m 746 365 q 612 68 707 164 q 339 -28 517 -28 q 126 27 204 -28 q 47 194 47 82 q 67 354 47 257 l 175 917 l 410 917 l 301 338 q 283 199 283 250 q 310 117 283 146 q 388 89 336 89 q 509 156 471 89 q 571 351 547 222 l 674 917 l 851 917 l 746 365 m 685 989 l 522 996 q 384 1026 438 1000 q 331 1117 331 1053 q 339 1157 331 1140 q 365 1186 347 1174 l 699 1053 l 685 989 z "},"Ű":{"ha":844,"x_min":47,"x_max":914,"o":"m 47 0 m 746 365 q 612 68 707 164 q 339 -28 517 -28 q 126 27 204 -28 q 47 194 47 82 q 67 354 47 257 l 175 917 l 410 917 l 301 338 q 283 199 283 250 q 310 117 283 146 q 388 89 336 89 q 509 156 471 89 q 571 351 547 222 l 674 917 l 851 917 l 746 365 m 589 1183 q 622 1153 610 1172 q 635 1111 635 1133 q 603 1041 635 1065 q 499 1000 572 1017 l 385 975 l 350 1022 l 589 1183 m 868 1183 q 901 1153 889 1172 q 914 1113 914 1135 q 883 1041 914 1065 q 779 1000 851 1017 l 664 975 l 629 1022 l 868 1183 z "},"Ū":{"ha":844,"x_min":47,"x_max":851,"o":"m 768 1144 q 774 1108 774 1125 q 748 1047 774 1071 q 674 1024 722 1024 l 364 1024 q 361 1060 361 1036 q 387 1122 363 1099 q 450 1144 411 1144 l 768 1144 m 746 365 q 612 68 707 164 q 339 -28 517 -28 q 126 27 204 -28 q 47 194 47 82 q 67 354 47 257 l 175 917 l 410 917 l 301 338 q 283 199 283 250 q 310 117 283 146 q 388 89 336 89 q 509 156 471 89 q 571 351 547 222 l 674 917 l 851 917 l 746 365 z "},"Ų":{"ha":844,"x_min":47,"x_max":851,"o":"m 851 917 l 746 365 q 670 144 721 231 q 538 14 619 57 q 444 -74 481 -22 q 407 -181 407 -126 q 424 -239 407 -221 q 481 -257 442 -257 q 560 -222 533 -257 q 578 -247 572 -235 q 583 -275 583 -258 q 547 -335 583 -311 q 450 -358 511 -358 q 325 -319 371 -358 q 279 -206 279 -279 q 374 -26 279 -101 q 339 -28 363 -28 q 126 27 204 -28 q 47 194 47 82 q 67 354 47 257 l 175 917 l 410 917 l 301 338 q 283 199 283 250 q 310 117 283 146 q 388 89 336 89 q 509 156 471 89 q 571 351 547 222 l 674 917 l 851 917 z "},"Ů":{"ha":844,"x_min":47,"x_max":851,"o":"m 47 0 m 746 365 q 612 68 707 164 q 339 -28 517 -28 q 126 27 204 -28 q 47 194 47 82 q 67 354 47 257 l 175 917 l 410 917 l 301 338 q 283 199 283 250 q 310 117 283 146 q 388 89 336 89 q 509 156 471 89 q 571 351 547 222 l 674 917 l 851 917 l 746 365 m 726 1092 q 675 995 726 1032 q 556 958 624 958 q 464 983 497 958 q 431 1054 431 1008 q 483 1151 431 1114 q 603 1188 535 1188 q 693 1163 660 1188 q 726 1092 726 1138 m 638 1088 q 589 1136 638 1136 q 538 1113 558 1136 q 518 1053 518 1089 q 565 1006 518 1006 q 617 1029 596 1006 q 638 1088 638 1053 z "},"Ũ":{"ha":844,"x_min":47,"x_max":851,"o":"m 47 0 m 746 365 q 612 68 707 164 q 339 -28 517 -28 q 126 27 204 -28 q 47 194 47 82 q 67 354 47 257 l 175 917 l 410 917 l 301 338 q 283 199 283 250 q 310 117 283 146 q 388 89 336 89 q 509 156 471 89 q 571 351 547 222 l 674 917 l 851 917 l 746 365 m 792 1163 q 817 1099 817 1132 q 785 1030 817 1054 q 696 1006 753 1006 q 561 1018 654 1006 q 439 1029 467 1029 q 390 1023 413 1029 q 354 1007 367 1017 q 328 1078 328 1043 q 360 1140 328 1118 q 453 1163 393 1163 q 590 1150 500 1163 q 715 1139 688 1139 q 792 1163 772 1139 z "},"V":{"ha":715,"x_min":28,"x_max":832,"o":"m 92 707 q 28 868 83 826 q 77 925 43 906 q 160 944 111 944 q 280 886 247 944 q 315 719 313 828 l 336 142 l 667 917 l 832 917 l 406 0 l 135 0 l 92 707 z "},"W":{"ha":1188,"x_min":28,"x_max":1306,"o":"m 92 707 q 28 868 83 826 q 77 925 43 906 q 160 944 111 944 q 280 886 247 944 q 315 719 313 828 l 336 142 l 643 917 l 781 917 l 826 142 l 1140 917 l 1306 917 l 896 0 l 639 0 l 614 507 l 406 0 l 135 0 l 92 707 z "},"Ẃ":{"ha":1188,"x_min":28,"x_max":1306,"o":"m 28 0 m 92 707 q 28 868 83 826 q 77 925 43 906 q 160 944 111 944 q 280 886 247 944 q 315 719 313 828 l 336 142 l 643 917 l 781 917 l 826 142 l 1140 917 l 1306 917 l 896 0 l 639 0 l 614 507 l 406 0 l 135 0 l 92 707 m 624 1053 l 956 1185 q 990 1117 990 1163 q 800 996 990 1001 l 638 989 l 624 1053 z "},"Ŵ":{"ha":1188,"x_min":28,"x_max":1306,"o":"m 28 0 m 92 707 q 28 868 83 826 q 77 925 43 906 q 160 944 111 944 q 280 886 247 944 q 315 719 313 828 l 336 142 l 643 917 l 781 917 l 826 142 l 1140 917 l 1306 917 l 896 0 l 639 0 l 614 507 l 406 0 l 135 0 l 92 707 m 954 1011 l 892 946 l 738 1032 l 544 946 l 504 1013 l 733 1174 l 769 1174 l 954 1011 z "},"Ẅ":{"ha":1188,"x_min":28,"x_max":1306,"o":"m 28 0 m 92 707 q 28 868 83 826 q 77 925 43 906 q 160 944 111 944 q 280 886 247 944 q 315 719 313 828 l 336 142 l 643 917 l 781 917 l 826 142 l 1140 917 l 1306 917 l 896 0 l 639 0 l 614 507 l 406 0 l 135 0 l 92 707 m 597 1178 q 684 1153 651 1178 q 717 1082 717 1128 q 682 1010 717 1035 q 592 985 647 985 q 504 1009 538 985 q 471 1079 471 1033 q 506 1152 471 1126 q 597 1178 542 1178 m 906 1178 q 992 1153 960 1178 q 1025 1082 1025 1128 q 990 1010 1025 1035 q 900 985 956 985 q 813 1009 846 985 q 779 1079 779 1033 q 815 1152 779 1126 q 906 1178 850 1178 z "},"Ẁ":{"ha":1188,"x_min":28,"x_max":1306,"o":"m 28 0 m 92 707 q 28 868 83 826 q 77 925 43 906 q 160 944 111 944 q 280 886 247 944 q 315 719 313 828 l 336 142 l 643 917 l 781 917 l 826 142 l 1140 917 l 1306 917 l 896 0 l 639 0 l 614 507 l 406 0 l 135 0 l 92 707 m 863 989 l 700 996 q 562 1026 615 1000 q 508 1117 508 1053 q 517 1157 508 1140 q 543 1186 525 1174 l 876 1053 l 863 989 z "},"X":{"ha":747,"x_min":-83,"x_max":833,"o":"m 151 735 q 54 868 111 844 q 115 923 76 903 q 206 943 154 943 q 306 908 271 943 q 369 796 342 872 l 439 606 l 661 917 l 833 917 l 492 461 l 590 193 q 638 105 608 144 q 696 60 667 65 q 639 -5 679 18 q 549 -28 599 -28 q 440 15 479 -28 q 371 140 401 58 l 306 315 l 89 0 l -83 0 l 253 460 l 151 735 z "},"Y":{"ha":642,"x_min":13,"x_max":790,"o":"m 363 518 q 525 838 449 742 q 692 935 601 935 q 790 868 774 935 q 590 688 689 814 q 422 392 490 561 l 346 0 l 113 0 l 197 428 q 116 729 160 632 q 13 858 72 826 q 69 915 32 894 q 158 935 107 935 q 260 903 221 935 q 320 801 299 871 q 354 611 342 732 l 363 518 z "},"Ý":{"ha":642,"x_min":13,"x_max":790,"o":"m 13 0 m 363 518 q 525 838 449 742 q 692 935 601 935 q 790 868 774 935 q 590 688 689 814 q 422 392 490 561 l 346 0 l 113 0 l 197 428 q 116 729 160 632 q 13 858 72 826 q 69 915 32 894 q 158 935 107 935 q 260 903 221 935 q 320 801 299 871 q 354 611 342 732 l 363 518 m 331 1053 l 663 1185 q 697 1117 697 1163 q 507 996 697 1001 l 344 989 l 331 1053 z "},"Ŷ":{"ha":642,"x_min":13,"x_max":790,"o":"m 13 0 m 363 518 q 525 838 449 742 q 692 935 601 935 q 790 868 774 935 q 590 688 689 814 q 422 392 490 561 l 346 0 l 113 0 l 197 428 q 116 729 160 632 q 13 858 72 826 q 69 915 32 894 q 158 935 107 935 q 260 903 221 935 q 320 801 299 871 q 354 611 342 732 l 363 518 m 661 1011 l 599 946 l 444 1032 l 251 946 l 211 1013 l 440 1174 l 476 1174 l 661 1011 z "},"Ÿ":{"ha":642,"x_min":13,"x_max":790,"o":"m 13 0 m 363 518 q 525 838 449 742 q 692 935 601 935 q 790 868 774 935 q 590 688 689 814 q 422 392 490 561 l 346 0 l 113 0 l 197 428 q 116 729 160 632 q 13 858 72 826 q 69 915 32 894 q 158 935 107 935 q 260 903 221 935 q 320 801 299 871 q 354 611 342 732 l 363 518 m 304 1178 q 391 1153 358 1178 q 424 1082 424 1128 q 389 1010 424 1035 q 299 985 354 985 q 211 1009 244 985 q 178 1079 178 1033 q 213 1152 178 1126 q 304 1178 249 1178 m 613 1178 q 699 1153 667 1178 q 732 1082 732 1128 q 697 1010 732 1035 q 607 985 663 985 q 519 1009 553 985 q 486 1079 486 1033 q 522 1152 486 1126 q 613 1178 557 1178 z "},"Ỳ":{"ha":642,"x_min":13,"x_max":790,"o":"m 13 0 m 363 518 q 525 838 449 742 q 692 935 601 935 q 790 868 774 935 q 590 688 689 814 q 422 392 490 561 l 346 0 l 113 0 l 197 428 q 116 729 160 632 q 13 858 72 826 q 69 915 32 894 q 158 935 107 935 q 260 903 221 935 q 320 801 299 871 q 354 611 342 732 l 363 518 m 569 989 l 407 996 q 269 1026 322 1000 q 215 1117 215 1053 q 224 1157 215 1140 q 250 1186 232 1174 l 583 1053 l 569 989 z "},"Ỹ":{"ha":642,"x_min":13,"x_max":790,"o":"m 13 0 m 363 518 q 525 838 449 742 q 692 935 601 935 q 790 868 774 935 q 590 688 689 814 q 422 392 490 561 l 346 0 l 113 0 l 197 428 q 116 729 160 632 q 13 858 72 826 q 69 915 32 894 q 158 935 107 935 q 260 903 221 935 q 320 801 299 871 q 354 611 342 732 l 363 518 m 676 1163 q 701 1099 701 1132 q 669 1030 701 1054 q 581 1006 638 1006 q 446 1018 539 1006 q 324 1029 351 1029 q 274 1023 297 1029 q 239 1007 251 1017 q 213 1078 213 1043 q 245 1140 213 1118 q 338 1163 278 1163 q 475 1150 385 1163 q 600 1139 572 1139 q 676 1163 657 1139 z "},"Z":{"ha":686,"x_min":-28,"x_max":731,"o":"m 496 719 q 260 746 336 746 q 113 715 171 746 q 85 813 85 760 q 257 938 85 938 q 357 929 304 938 q 419 919 410 921 q 576 901 519 901 q 685 917 636 901 q 719 869 707 897 q 731 813 731 842 q 674 700 731 749 l 199 199 q 317 179 251 186 q 443 172 383 172 q 532 180 496 172 q 596 208 568 188 q 622 118 622 171 q 433 -19 622 -19 q 341 -13 392 -19 q 244 1 290 -7 q 101 19 146 19 q 17 0 51 19 q -15 47 -3 15 q -28 111 -28 79 q 26 221 -28 175 l 496 719 z "},"Ź":{"ha":686,"x_min":-28,"x_max":731,"o":"m 0 0 m 496 719 q 260 746 336 746 q 113 715 171 746 q 85 813 85 760 q 257 938 85 938 q 357 929 304 938 q 419 919 410 921 q 576 901 519 901 q 685 917 636 901 q 719 869 707 897 q 731 813 731 842 q 674 700 731 749 l 199 199 q 317 179 251 186 q 443 172 383 172 q 532 180 496 172 q 596 208 568 188 q 622 118 622 171 q 433 -19 622 -19 q 341 -13 392 -19 q 244 1 290 -7 q 101 19 146 19 q 17 0 51 19 q -15 47 -3 15 q -28 111 -28 79 q 26 221 -28 175 l 496 719 m 304 1053 l 636 1185 q 671 1117 671 1163 q 481 996 671 1001 l 318 989 l 304 1053 z "},"Ž":{"ha":686,"x_min":-28,"x_max":731,"o":"m 0 0 m 496 719 q 260 746 336 746 q 113 715 171 746 q 85 813 85 760 q 257 938 85 938 q 357 929 304 938 q 419 919 410 921 q 576 901 519 901 q 685 917 636 901 q 719 869 707 897 q 731 813 731 842 q 674 700 731 749 l 199 199 q 317 179 251 186 q 443 172 383 172 q 532 180 496 172 q 596 208 568 188 q 622 118 622 171 q 433 -19 622 -19 q 341 -13 392 -19 q 244 1 290 -7 q 101 19 146 19 q 17 0 51 19 q -15 47 -3 15 q -28 111 -28 79 q 26 221 -28 175 l 496 719 m 222 1117 l 285 1175 l 439 1103 l 632 1175 l 672 1115 l 450 961 l 400 961 l 222 1117 z "},"Ż":{"ha":686,"x_min":-28,"x_max":731,"o":"m 428 1178 q 515 1153 482 1178 q 547 1082 547 1128 q 513 1010 547 1035 q 422 985 478 985 q 335 1009 368 985 q 301 1079 301 1033 q 337 1152 301 1126 q 428 1178 372 1178 m 496 719 q 260 746 336 746 q 113 715 171 746 q 85 813 85 760 q 257 938 85 938 q 357 929 304 938 q 419 919 410 921 q 576 901 519 901 q 685 917 636 901 q 719 869 707 897 q 731 813 731 842 q 674 700 731 749 l 199 199 q 317 179 251 186 q 443 172 383 172 q 532 180 496 172 q 596 208 568 188 q 622 118 622 171 q 433 -19 622 -19 q 341 -13 392 -19 q 244 1 290 -7 q 101 19 146 19 q 17 0 51 19 q -15 47 -3 15 q -28 111 -28 79 q 26 221 -28 175 l 496 719 z "},"Ẓ":{"ha":686,"x_min":-28,"x_max":731,"o":"m 0 0 m 496 719 q 260 746 336 746 q 113 715 171 746 q 85 813 85 760 q 257 938 85 938 q 357 929 304 938 q 419 919 410 921 q 576 901 519 901 q 685 917 636 901 q 719 869 707 897 q 731 813 731 842 q 674 700 731 749 l 199 199 q 317 179 251 186 q 443 172 383 172 q 532 180 496 172 q 596 208 568 188 q 622 118 622 171 q 433 -19 622 -19 q 341 -13 392 -19 q 244 1 290 -7 q 101 19 146 19 q 17 0 51 19 q -15 47 -3 15 q -28 111 -28 79 q 26 221 -28 175 l 496 719 m 275 -67 q 363 -92 329 -67 q 396 -162 396 -117 q 360 -235 396 -210 q 269 -260 325 -260 q 182 -235 215 -260 q 149 -165 149 -211 q 184 -92 149 -118 q 275 -67 219 -67 z "},"a":{"ha":783,"x_min":28,"x_max":757,"o":"m 651 176 q 644 118 644 135 q 658 75 644 92 q 697 57 671 58 q 646 -6 686 15 q 558 -28 606 -28 q 483 -8 515 -28 q 442 51 451 13 q 356 -8 410 13 q 240 -28 303 -28 q 78 40 128 -28 q 28 239 28 108 q 74 485 28 372 q 214 667 121 599 q 438 736 307 736 q 578 708 513 736 l 757 731 l 651 176 m 522 619 q 476 644 503 636 q 426 653 450 653 q 324 587 361 653 q 263 383 286 521 q 238 175 238 261 q 254 90 238 121 q 314 58 271 58 q 408 117 374 58 q 457 257 443 176 l 522 619 z "},"á":{"ha":783,"x_min":28,"x_max":757,"o":"m 28 0 m 651 176 q 644 118 644 135 q 658 75 644 92 q 697 57 671 58 q 646 -6 686 15 q 558 -28 606 -28 q 483 -8 515 -28 q 442 51 451 13 q 356 -8 410 13 q 240 -28 303 -28 q 78 40 128 -28 q 28 239 28 108 q 74 485 28 372 q 214 667 121 599 q 438 736 307 736 q 578 708 513 736 l 757 731 l 651 176 m 522 619 q 476 644 503 636 q 426 653 450 653 q 324 587 361 653 q 263 383 286 521 q 238 175 238 261 q 254 90 238 121 q 314 58 271 58 q 408 117 374 58 q 457 257 443 176 l 522 619 m 689 1074 q 724 1040 713 1064 q 736 989 736 1017 q 691 901 736 931 q 567 853 646 871 l 404 815 l 378 878 l 689 1074 z "},"ă":{"ha":783,"x_min":28,"x_max":799,"o":"m 28 0 m 651 176 q 644 118 644 135 q 658 75 644 92 q 697 57 671 58 q 646 -6 686 15 q 558 -28 606 -28 q 483 -8 515 -28 q 442 51 451 13 q 356 -8 410 13 q 240 -28 303 -28 q 78 40 128 -28 q 28 239 28 108 q 74 485 28 372 q 214 667 121 599 q 438 736 307 736 q 578 708 513 736 l 757 731 l 651 176 m 522 619 q 476 644 503 636 q 426 653 450 653 q 324 587 361 653 q 263 383 286 521 q 238 175 238 261 q 254 90 238 121 q 314 58 271 58 q 408 117 374 58 q 457 257 443 176 l 522 619 m 482 1024 q 476 983 476 997 q 488 917 476 942 q 533 893 499 893 q 606 932 579 893 q 643 1024 633 971 l 799 1024 q 710 879 781 933 q 519 825 639 825 q 367 869 419 825 q 314 986 314 914 q 318 1024 314 1003 l 482 1024 z "},"â":{"ha":783,"x_min":28,"x_max":757,"o":"m 28 0 m 651 176 q 644 118 644 135 q 658 75 644 92 q 697 57 671 58 q 646 -6 686 15 q 558 -28 606 -28 q 483 -8 515 -28 q 442 51 451 13 q 356 -8 410 13 q 240 -28 303 -28 q 78 40 128 -28 q 28 239 28 108 q 74 485 28 372 q 214 667 121 599 q 438 736 307 736 q 578 708 513 736 l 757 731 l 651 176 m 522 619 q 476 644 503 636 q 426 653 450 653 q 324 587 361 653 q 263 383 286 521 q 238 175 238 261 q 254 90 238 121 q 314 58 271 58 q 408 117 374 58 q 457 257 443 176 l 522 619 m 757 876 l 694 811 l 540 897 l 347 811 l 307 878 l 536 1039 l 572 1039 l 757 876 z "},"ä":{"ha":783,"x_min":28,"x_max":821,"o":"m 28 0 m 651 176 q 644 118 644 135 q 658 75 644 92 q 697 57 671 58 q 646 -6 686 15 q 558 -28 606 -28 q 483 -8 515 -28 q 442 51 451 13 q 356 -8 410 13 q 240 -28 303 -28 q 78 40 128 -28 q 28 239 28 108 q 74 485 28 372 q 214 667 121 599 q 438 736 307 736 q 578 708 513 736 l 757 731 l 651 176 m 522 619 q 476 644 503 636 q 426 653 450 653 q 324 587 361 653 q 263 383 286 521 q 238 175 238 261 q 254 90 238 121 q 314 58 271 58 q 408 117 374 58 q 457 257 443 176 l 522 619 m 697 1024 q 787 998 753 1024 q 821 925 821 972 q 785 851 821 876 q 693 825 750 825 q 603 850 638 825 q 568 922 568 875 q 604 997 568 971 q 697 1024 640 1024 m 388 1024 q 477 998 443 1024 q 511 925 511 972 q 476 851 511 876 q 383 825 440 825 q 293 850 328 825 q 258 922 258 875 q 294 997 258 971 q 388 1024 331 1024 z "},"à":{"ha":783,"x_min":28,"x_max":757,"o":"m 28 0 m 651 176 q 644 118 644 135 q 658 75 644 92 q 697 57 671 58 q 646 -6 686 15 q 558 -28 606 -28 q 483 -8 515 -28 q 442 51 451 13 q 356 -8 410 13 q 240 -28 303 -28 q 78 40 128 -28 q 28 239 28 108 q 74 485 28 372 q 214 667 121 599 q 438 736 307 736 q 578 708 513 736 l 757 731 l 651 176 m 522 619 q 476 644 503 636 q 426 653 450 653 q 324 587 361 653 q 263 383 286 521 q 238 175 238 261 q 254 90 238 121 q 314 58 271 58 q 408 117 374 58 q 457 257 443 176 l 522 619 m 450 853 q 326 901 371 871 q 282 989 282 931 q 293 1041 282 1018 q 329 1074 304 1064 l 639 878 l 613 815 l 450 853 z "},"ā":{"ha":783,"x_min":28,"x_max":757,"o":"m 28 0 m 651 176 q 644 118 644 135 q 658 75 644 92 q 697 57 671 58 q 646 -6 686 15 q 558 -28 606 -28 q 483 -8 515 -28 q 442 51 451 13 q 356 -8 410 13 q 240 -28 303 -28 q 78 40 128 -28 q 28 239 28 108 q 74 485 28 372 q 214 667 121 599 q 438 736 307 736 q 578 708 513 736 l 757 731 l 651 176 m 522 619 q 476 644 503 636 q 426 653 450 653 q 324 587 361 653 q 263 383 286 521 q 238 175 238 261 q 254 90 238 121 q 314 58 271 58 q 408 117 374 58 q 457 257 443 176 l 522 619 m 753 979 q 757 943 757 965 q 731 882 757 906 q 657 858 706 858 l 349 858 q 344 894 344 871 q 370 956 346 933 q 435 979 394 979 l 753 979 z "},"ą":{"ha":783,"x_min":28,"x_max":757,"o":"m 615 -257 q 694 -222 668 -257 q 713 -247 707 -235 q 718 -275 718 -258 q 682 -335 718 -311 q 585 -358 646 -358 q 460 -319 506 -358 q 414 -206 414 -279 q 441 -102 414 -149 q 515 -22 468 -56 q 442 51 456 -4 q 356 -8 410 13 q 240 -28 303 -28 q 78 40 128 -28 q 28 239 28 108 q 74 485 28 372 q 214 667 121 599 q 438 736 307 736 q 578 708 513 736 l 757 731 l 651 176 q 644 118 644 135 q 658 75 644 92 q 697 57 671 58 q 672 14 692 36 l 671 14 q 639 -10 661 3 q 568 -90 594 -46 q 542 -181 542 -135 q 559 -239 542 -221 q 615 -257 576 -257 m 522 619 q 476 644 503 636 q 426 653 450 653 q 324 587 361 653 q 263 383 286 521 q 238 175 238 261 q 254 90 238 121 q 314 58 271 58 q 408 117 374 58 q 457 257 443 176 l 522 619 z "},"å":{"ha":783,"x_min":28,"x_max":757,"o":"m 28 0 m 651 176 q 644 118 644 135 q 658 75 644 92 q 697 57 671 58 q 646 -6 686 15 q 558 -28 606 -28 q 483 -8 515 -28 q 442 51 451 13 q 356 -8 410 13 q 240 -28 303 -28 q 78 40 128 -28 q 28 239 28 108 q 74 485 28 372 q 214 667 121 599 q 438 736 307 736 q 578 708 513 736 l 757 731 l 651 176 m 522 619 q 476 644 503 636 q 426 653 450 653 q 324 587 361 653 q 263 383 286 521 q 238 175 238 261 q 254 90 238 121 q 314 58 271 58 q 408 117 374 58 q 457 257 443 176 l 522 619 m 503 789 q 410 817 443 789 q 376 900 376 846 q 430 1013 376 971 q 560 1056 483 1056 q 653 1027 619 1056 q 686 944 686 999 q 633 831 686 874 q 503 789 579 789 m 515 838 q 572 868 549 838 q 596 939 596 899 q 582 985 596 968 q 543 1003 568 1003 q 489 973 510 1003 q 468 900 468 943 q 480 854 468 871 q 515 838 492 838 z "},"ǻ":{"ha":783,"x_min":28,"x_max":782,"o":"m 415 1138 l 747 1269 q 782 1201 782 1247 q 592 1081 782 1086 l 429 1074 l 415 1138 m 507 772 q 414 801 447 772 q 381 883 381 829 q 434 997 381 954 q 564 1039 488 1039 q 657 1010 624 1039 q 690 928 690 982 q 637 815 690 857 q 507 772 583 772 m 519 821 q 576 851 553 821 q 600 922 600 882 q 586 969 600 951 q 547 986 572 986 q 493 956 514 986 q 472 883 472 926 q 484 838 472 854 q 519 821 496 821 m 651 176 q 644 118 644 135 q 658 75 644 92 q 697 57 671 58 q 646 -6 686 15 q 558 -28 606 -28 q 483 -8 515 -28 q 442 51 451 13 q 356 -8 410 13 q 240 -28 303 -28 q 78 40 128 -28 q 28 239 28 108 q 74 485 28 372 q 214 667 121 599 q 438 736 307 736 q 578 708 513 736 l 757 731 l 651 176 m 522 619 q 476 644 503 636 q 426 653 450 653 q 324 587 361 653 q 263 383 286 521 q 238 175 238 261 q 254 90 238 121 q 314 58 271 58 q 408 117 374 58 q 457 257 443 176 l 522 619 z "},"ã":{"ha":783,"x_min":28,"x_max":778,"o":"m 28 0 m 651 176 q 644 118 644 135 q 658 75 644 92 q 697 57 671 58 q 646 -6 686 15 q 558 -28 606 -28 q 483 -8 515 -28 q 442 51 451 13 q 356 -8 410 13 q 240 -28 303 -28 q 78 40 128 -28 q 28 239 28 108 q 74 485 28 372 q 214 667 121 599 q 438 736 307 736 q 578 708 513 736 l 757 731 l 651 176 m 522 619 q 476 644 503 636 q 426 653 450 653 q 324 587 361 653 q 263 383 286 521 q 238 175 238 261 q 254 90 238 121 q 314 58 271 58 q 408 117 374 58 q 457 257 443 176 l 522 619 m 754 1006 q 778 942 778 976 q 746 873 778 897 q 658 849 714 849 q 586 854 633 849 q 522 861 539 860 q 401 872 428 872 q 351 866 375 872 q 315 850 328 860 q 290 921 290 886 q 322 983 290 961 q 414 1006 354 1006 q 491 1000 443 1006 q 554 993 539 994 q 678 982 649 982 q 754 1006 732 982 z "},"æ":{"ha":1069,"x_min":28,"x_max":1097,"o":"m 878 736 q 1039 699 981 736 q 1097 574 1097 663 q 1006 399 1097 461 q 757 331 915 338 q 671 329 729 329 q 667 258 667 292 q 694 153 667 189 q 788 118 722 118 q 897 144 846 118 q 972 217 947 169 q 1007 156 1007 201 q 970 65 1007 107 q 867 -3 933 22 q 719 -28 801 -28 q 580 -1 644 -28 q 479 85 515 25 q 246 -28 396 -28 q 78 38 129 -28 q 28 236 28 104 q 73 482 28 368 q 208 666 118 596 q 426 736 299 736 q 646 675 544 736 q 755 722 700 707 q 878 736 810 736 m 854 661 q 747 587 793 661 q 681 393 701 513 q 848 444 781 393 q 915 583 915 496 q 854 661 915 661 m 522 619 q 476 644 503 636 q 425 653 450 653 q 322 587 360 653 q 261 383 285 521 q 238 175 238 254 q 254 90 238 121 q 313 58 271 58 q 408 117 372 58 q 457 257 443 176 l 522 619 z "},"ǽ":{"ha":1069,"x_min":28,"x_max":1097,"o":"m 28 0 m 878 736 q 1039 699 981 736 q 1097 574 1097 663 q 1006 399 1097 461 q 757 331 915 338 q 671 329 729 329 q 667 258 667 292 q 694 153 667 189 q 788 118 722 118 q 897 144 846 118 q 972 217 947 169 q 1007 156 1007 201 q 970 65 1007 107 q 867 -3 933 22 q 719 -28 801 -28 q 580 -1 644 -28 q 479 85 515 25 q 246 -28 396 -28 q 78 38 129 -28 q 28 236 28 104 q 73 482 28 368 q 208 666 118 596 q 426 736 299 736 q 646 675 544 736 q 755 722 700 707 q 878 736 810 736 m 854 661 q 747 587 793 661 q 681 393 701 513 q 848 444 781 393 q 915 583 915 496 q 854 661 915 661 m 522 619 q 476 644 503 636 q 425 653 450 653 q 322 587 360 653 q 261 383 285 521 q 238 175 238 254 q 254 90 238 121 q 313 58 271 58 q 408 117 372 58 q 457 257 443 176 l 522 619 m 833 1074 q 869 1040 857 1064 q 881 989 881 1017 q 835 901 881 931 q 711 853 790 871 l 549 815 l 522 878 l 833 1074 z "},"b":{"ha":756,"x_min":11,"x_max":729,"o":"m 374 835 q 349 730 364 785 q 319 638 335 675 q 413 710 357 685 q 533 736 468 736 q 684 670 639 736 q 729 479 729 604 q 682 228 729 343 q 541 42 635 113 q 314 -28 447 -28 q 148 -7 236 -28 q 11 54 60 14 l 188 972 l 404 994 l 374 835 m 229 89 q 277 64 250 72 q 328 56 304 56 q 430 120 392 56 q 493 322 468 185 q 518 529 518 447 q 502 607 518 579 q 447 635 486 635 q 344 567 382 635 q 289 408 307 500 l 229 89 z "},"c":{"ha":639,"x_min":31,"x_max":664,"o":"m 454 736 q 607 700 550 736 q 664 589 664 664 q 624 492 664 525 q 524 458 583 458 q 464 474 482 458 q 480 532 474 499 q 486 590 486 565 q 432 654 486 654 q 331 587 375 654 q 265 427 288 519 q 242 264 242 335 q 269 156 242 194 q 358 118 296 118 q 463 151 417 118 q 531 240 510 185 q 569 210 557 229 q 581 163 581 192 q 542 64 581 107 q 438 -3 503 21 q 294 -28 372 -28 q 98 45 165 -28 q 31 264 31 118 q 81 500 31 392 q 228 672 132 608 q 454 736 324 736 z "},"ć":{"ha":639,"x_min":31,"x_max":685,"o":"m 31 0 m 454 736 q 607 700 550 736 q 664 589 664 664 q 624 492 664 525 q 524 458 583 458 q 464 474 482 458 q 480 532 474 499 q 486 590 486 565 q 432 654 486 654 q 331 587 375 654 q 265 427 288 519 q 242 264 242 335 q 269 156 242 194 q 358 118 296 118 q 463 151 417 118 q 531 240 510 185 q 569 210 557 229 q 581 163 581 192 q 542 64 581 107 q 438 -3 503 21 q 294 -28 372 -28 q 98 45 165 -28 q 31 264 31 118 q 81 500 31 392 q 228 672 132 608 q 454 736 324 736 m 638 1074 q 673 1040 661 1064 q 685 989 685 1017 q 640 901 685 931 q 515 853 594 871 l 353 815 l 326 878 l 638 1074 z "},"č":{"ha":639,"x_min":31,"x_max":717,"o":"m 31 0 m 454 736 q 607 700 550 736 q 664 589 664 664 q 624 492 664 525 q 524 458 583 458 q 464 474 482 458 q 480 532 474 499 q 486 590 486 565 q 432 654 486 654 q 331 587 375 654 q 265 427 288 519 q 242 264 242 335 q 269 156 242 194 q 358 118 296 118 q 463 151 417 118 q 531 240 510 185 q 569 210 557 229 q 581 163 581 192 q 542 64 581 107 q 438 -3 503 21 q 294 -28 372 -28 q 98 45 165 -28 q 31 264 31 118 q 81 500 31 392 q 228 672 132 608 q 454 736 324 736 m 268 1001 l 331 1067 l 483 974 l 676 1067 l 717 1000 l 494 825 l 444 825 l 268 1001 z "},"ç":{"ha":639,"x_min":31,"x_max":664,"o":"m 524 458 q 464 474 482 458 q 480 532 474 499 q 486 590 486 565 q 432 654 486 654 q 331 587 375 654 q 265 427 288 519 q 242 264 242 335 q 269 156 242 194 q 358 118 296 118 q 463 151 417 118 q 531 240 510 185 q 569 210 557 229 q 581 163 581 192 q 511 36 581 88 q 338 -26 442 -15 l 319 -86 l 371 -85 q 475 -111 435 -85 q 515 -193 515 -137 q 452 -310 515 -264 q 294 -356 389 -356 q 203 -337 238 -356 q 169 -285 169 -318 q 193 -229 169 -249 q 286 -271 219 -271 q 349 -256 324 -271 q 374 -208 374 -242 q 278 -154 374 -154 q 224 -157 260 -154 l 263 -26 q 90 54 149 -18 q 31 264 31 126 q 81 500 31 392 q 228 672 132 608 q 454 736 324 736 q 607 700 550 736 q 664 589 664 664 q 624 492 664 525 q 524 458 583 458 z "},"ĉ":{"ha":639,"x_min":31,"x_max":706,"o":"m 31 0 m 454 736 q 607 700 550 736 q 664 589 664 664 q 624 492 664 525 q 524 458 583 458 q 464 474 482 458 q 480 532 474 499 q 486 590 486 565 q 432 654 486 654 q 331 587 375 654 q 265 427 288 519 q 242 264 242 335 q 269 156 242 194 q 358 118 296 118 q 463 151 417 118 q 531 240 510 185 q 569 210 557 229 q 581 163 581 192 q 542 64 581 107 q 438 -3 503 21 q 294 -28 372 -28 q 98 45 165 -28 q 31 264 31 118 q 81 500 31 392 q 228 672 132 608 q 454 736 324 736 m 706 876 l 643 811 l 489 897 l 296 811 l 256 878 l 485 1039 l 521 1039 l 706 876 z "},"ċ":{"ha":639,"x_min":31,"x_max":664,"o":"m 31 0 m 454 736 q 607 700 550 736 q 664 589 664 664 q 624 492 664 525 q 524 458 583 458 q 464 474 482 458 q 480 532 474 499 q 486 590 486 565 q 432 654 486 654 q 331 587 375 654 q 265 427 288 519 q 242 264 242 335 q 269 156 242 194 q 358 118 296 118 q 463 151 417 118 q 531 240 510 185 q 569 210 557 229 q 581 163 581 192 q 542 64 581 107 q 438 -3 503 21 q 294 -28 372 -28 q 98 45 165 -28 q 31 264 31 118 q 81 500 31 392 q 228 672 132 608 q 454 736 324 736 m 482 1024 q 572 998 538 1024 q 606 925 606 972 q 570 851 606 876 q 478 825 535 825 q 388 850 422 825 q 353 922 353 875 q 389 997 353 971 q 482 1024 425 1024 z "},"d":{"ha":783,"x_min":28,"x_max":807,"o":"m 651 176 q 644 118 644 135 q 658 75 644 92 q 697 57 671 58 q 646 -6 686 15 q 558 -28 606 -28 q 483 -8 515 -28 q 442 51 451 13 q 356 -8 410 13 q 240 -28 303 -28 q 78 40 128 -28 q 28 239 28 108 q 74 485 28 371 q 214 667 121 599 q 438 736 307 736 q 544 719 493 736 l 592 972 l 807 994 l 651 176 m 522 619 q 476 644 503 636 q 426 653 450 653 q 324 587 361 653 q 263 383 286 521 q 238 175 238 261 q 254 90 238 121 q 314 58 271 58 q 408 117 374 58 q 457 257 443 176 l 522 619 z "},"ð":{"ha":763,"x_min":29,"x_max":803,"o":"m 786 985 q 799 965 794 978 q 803 940 803 953 q 788 903 803 918 q 739 875 772 888 l 701 863 q 738 650 738 778 q 691 339 738 494 q 541 78 644 183 q 276 -28 438 -28 q 29 249 29 -28 q 76 483 29 374 q 215 658 124 592 q 429 724 306 724 q 533 708 492 724 q 531 803 536 767 l 390 753 q 371 797 371 772 q 413 850 371 835 l 496 881 q 433 903 471 903 q 399 898 417 903 q 371 886 381 893 q 364 914 364 897 q 403 977 364 954 q 500 1000 442 1000 q 585 983 546 1000 q 654 936 625 967 l 786 985 m 485 368 q 525 607 511 476 q 478 633 506 624 q 424 642 450 642 q 326 588 361 642 q 269 428 292 533 q 239 185 239 289 q 256 89 239 122 q 311 56 272 56 q 410 135 371 56 q 485 368 450 214 z "},"ď":{"ha":783,"x_min":28,"x_max":1014,"o":"m 28 0 m 651 176 q 644 118 644 135 q 658 75 644 92 q 697 57 671 58 q 646 -6 686 15 q 558 -28 606 -28 q 483 -8 515 -28 q 442 51 451 13 q 356 -8 410 13 q 240 -28 303 -28 q 78 40 128 -28 q 28 239 28 108 q 74 485 28 371 q 214 667 121 599 q 438 736 307 736 q 544 719 493 736 l 592 972 l 807 994 l 651 176 m 522 619 q 476 644 503 636 q 426 653 450 653 q 324 587 361 653 q 263 383 286 521 q 238 175 238 261 q 254 90 238 121 q 314 58 271 58 q 408 117 374 58 q 457 257 443 176 l 522 619 m 853 979 q 888 992 865 986 q 929 997 910 997 q 990 972 967 997 q 1014 901 1014 947 q 990 822 1014 861 q 925 758 965 783 q 840 733 885 733 q 794 742 822 733 q 848 826 832 786 q 864 913 864 867 q 853 979 864 951 z "},"đ":{"ha":783,"x_min":32,"x_max":900,"o":"m 896 892 q 900 856 900 878 q 876 799 900 821 q 804 778 853 778 l 769 778 l 654 176 q 647 118 647 135 q 660 75 647 92 q 701 57 674 58 q 649 -6 689 15 q 563 -28 610 -28 q 487 -8 518 -28 q 446 51 456 13 q 360 -8 414 13 q 244 -28 307 -28 q 82 40 132 -28 q 32 239 32 107 q 78 485 32 371 q 217 667 125 599 q 440 736 310 736 q 547 719 496 736 l 558 778 l 381 778 q 376 814 376 790 q 401 871 378 850 q 463 892 424 892 l 581 892 l 596 972 l 811 994 l 790 892 l 896 892 m 526 619 q 481 644 507 636 q 429 653 454 653 q 326 587 364 653 q 265 383 289 521 q 242 175 242 254 q 258 90 242 121 q 317 58 275 58 q 412 117 376 58 q 461 257 447 176 l 526 619 z "},"ḍ":{"ha":783,"x_min":28,"x_max":807,"o":"m 28 0 m 651 176 q 644 118 644 135 q 658 75 644 92 q 697 57 671 58 q 646 -6 686 15 q 558 -28 606 -28 q 483 -8 515 -28 q 442 51 451 13 q 356 -8 410 13 q 240 -28 303 -28 q 78 40 128 -28 q 28 239 28 108 q 74 485 28 371 q 214 667 121 599 q 438 736 307 736 q 544 719 493 736 l 592 972 l 807 994 l 651 176 m 522 619 q 476 644 503 636 q 426 653 450 653 q 324 587 361 653 q 263 383 286 521 q 238 175 238 261 q 254 90 238 121 q 314 58 271 58 q 408 117 374 58 q 457 257 443 176 l 522 619 m 314 -67 q 401 -92 368 -67 q 435 -162 435 -117 q 399 -235 435 -210 q 308 -260 364 -260 q 221 -235 254 -260 q 188 -165 188 -211 q 223 -92 188 -118 q 314 -67 258 -67 z "},"ǳ":{"ha":1372,"x_min":28,"x_max":1399,"o":"m 28 0 m 651 176 q 644 118 644 135 q 658 75 644 92 q 697 57 671 58 q 646 -6 686 15 q 558 -28 606 -28 q 483 -8 515 -28 q 442 51 451 13 q 356 -8 410 13 q 240 -28 303 -28 q 78 40 128 -28 q 28 239 28 108 q 74 485 28 371 q 214 667 121 599 q 438 736 307 736 q 544 719 493 736 l 592 972 l 807 994 l 651 176 m 522 619 q 476 644 503 636 q 426 653 450 653 q 324 587 361 653 q 263 383 286 521 q 238 175 238 261 q 254 90 238 121 q 314 58 271 58 q 408 117 374 58 q 457 257 443 176 l 522 619 m 1192 538 q 1092 554 1149 547 q 1000 561 1036 561 q 930 549 958 561 q 883 513 901 538 q 857 561 867 532 q 847 619 847 590 q 890 708 847 681 q 1001 736 932 736 q 1150 719 1047 736 q 1292 703 1250 703 q 1368 717 1342 703 q 1399 644 1399 688 q 1335 525 1399 579 l 974 183 q 1075 165 1017 172 q 1171 157 1133 157 q 1244 168 1210 157 q 1301 203 1279 179 q 1333 108 1333 167 q 1288 8 1333 40 q 1168 -25 1243 -25 q 1025 -6 1119 -25 q 972 4 1015 -4 q 892 13 928 13 q 810 -3 844 13 q 780 33 792 10 q 768 85 768 56 q 836 218 768 156 l 1192 538 z "},"ǆ":{"ha":1372,"x_min":28,"x_max":1417,"o":"m 28 0 m 651 176 q 644 118 644 135 q 658 75 644 92 q 697 57 671 58 q 646 -6 686 15 q 558 -28 606 -28 q 483 -8 515 -28 q 442 51 451 13 q 356 -8 410 13 q 240 -28 303 -28 q 78 40 128 -28 q 28 239 28 108 q 74 485 28 371 q 214 667 121 599 q 438 736 307 736 q 544 719 493 736 l 592 972 l 807 994 l 651 176 m 522 619 q 476 644 503 636 q 426 653 450 653 q 324 587 361 653 q 263 383 286 521 q 238 175 238 261 q 254 90 238 121 q 314 58 271 58 q 408 117 374 58 q 457 257 443 176 l 522 619 m 1192 538 q 1092 554 1149 547 q 1000 561 1036 561 q 930 549 958 561 q 883 513 901 538 q 857 561 867 532 q 847 619 847 590 q 890 708 847 681 q 1001 736 932 736 q 1150 719 1047 736 q 1292 703 1250 703 q 1368 717 1342 703 q 1399 644 1399 688 q 1335 525 1399 579 l 974 183 q 1075 165 1017 172 q 1171 157 1133 157 q 1244 168 1210 157 q 1301 203 1279 179 q 1333 108 1333 167 q 1288 8 1333 40 q 1168 -25 1243 -25 q 1025 -6 1119 -25 q 972 4 1015 -4 q 892 13 928 13 q 810 -3 844 13 q 780 33 792 10 q 768 85 768 56 q 836 218 768 156 l 1192 538 m 968 1001 l 1031 1067 l 1183 974 l 1376 1067 l 1417 1000 l 1194 825 l 1144 825 l 968 1001 z "},"e":{"ha":654,"x_min":31,"x_max":672,"o":"m 460 736 q 672 572 672 736 q 570 393 672 457 q 293 329 468 329 l 244 329 q 240 258 240 292 q 268 153 240 189 q 363 118 296 118 q 471 144 421 118 q 547 217 521 169 q 581 156 581 201 q 542 63 581 106 q 439 -3 504 21 q 296 -28 374 -28 q 99 44 167 -28 q 31 263 31 115 q 78 494 31 386 q 223 669 126 603 q 460 736 319 736 m 429 661 q 322 588 368 661 q 254 393 276 514 q 422 444 354 393 q 490 583 490 496 q 429 661 490 661 z "},"é":{"ha":654,"x_min":31,"x_max":672,"o":"m 31 0 m 460 736 q 672 572 672 736 q 570 393 672 457 q 293 329 468 329 l 244 329 q 240 258 240 292 q 268 153 240 189 q 363 118 296 118 q 471 144 421 118 q 547 217 521 169 q 581 156 581 201 q 542 63 581 106 q 439 -3 504 21 q 296 -28 374 -28 q 99 44 167 -28 q 31 263 31 115 q 78 494 31 386 q 223 669 126 603 q 460 736 319 736 m 429 661 q 322 588 368 661 q 254 393 276 514 q 422 444 354 393 q 490 583 490 496 q 429 661 490 661 m 624 1074 q 659 1040 647 1064 q 671 989 671 1017 q 626 901 671 931 q 501 853 581 871 l 339 815 l 313 878 l 624 1074 z "},"ĕ":{"ha":654,"x_min":31,"x_max":733,"o":"m 31 0 m 460 736 q 672 572 672 736 q 570 393 672 457 q 293 329 468 329 l 244 329 q 240 258 240 292 q 268 153 240 189 q 363 118 296 118 q 471 144 421 118 q 547 217 521 169 q 581 156 581 201 q 542 63 581 106 q 439 -3 504 21 q 296 -28 374 -28 q 99 44 167 -28 q 31 263 31 115 q 78 494 31 386 q 223 669 126 603 q 460 736 319 736 m 429 661 q 322 588 368 661 q 254 393 276 514 q 422 444 354 393 q 490 583 490 496 q 429 661 490 661 m 417 1024 q 411 983 411 997 q 422 917 411 942 q 468 893 433 893 q 541 932 514 893 q 578 1024 568 971 l 733 1024 q 644 879 715 933 q 454 825 574 825 q 301 869 354 825 q 249 986 249 914 q 253 1024 249 1003 l 417 1024 z "},"ě":{"ha":654,"x_min":31,"x_max":703,"o":"m 31 0 m 460 736 q 672 572 672 736 q 570 393 672 457 q 293 329 468 329 l 244 329 q 240 258 240 292 q 268 153 240 189 q 363 118 296 118 q 471 144 421 118 q 547 217 521 169 q 581 156 581 201 q 542 63 581 106 q 439 -3 504 21 q 296 -28 374 -28 q 99 44 167 -28 q 31 263 31 115 q 78 494 31 386 q 223 669 126 603 q 460 736 319 736 m 429 661 q 322 588 368 661 q 254 393 276 514 q 422 444 354 393 q 490 583 490 496 q 429 661 490 661 m 254 1001 l 317 1067 l 469 974 l 663 1067 l 703 1000 l 481 825 l 431 825 l 254 1001 z "},"ê":{"ha":654,"x_min":31,"x_max":692,"o":"m 31 0 m 460 736 q 672 572 672 736 q 570 393 672 457 q 293 329 468 329 l 244 329 q 240 258 240 292 q 268 153 240 189 q 363 118 296 118 q 471 144 421 118 q 547 217 521 169 q 581 156 581 201 q 542 63 581 106 q 439 -3 504 21 q 296 -28 374 -28 q 99 44 167 -28 q 31 263 31 115 q 78 494 31 386 q 223 669 126 603 q 460 736 319 736 m 429 661 q 322 588 368 661 q 254 393 276 514 q 422 444 354 393 q 490 583 490 496 q 429 661 490 661 m 692 876 l 629 811 l 475 897 l 282 811 l 242 878 l 471 1039 l 507 1039 l 692 876 z "},"ë":{"ha":654,"x_min":31,"x_max":756,"o":"m 31 0 m 460 736 q 672 572 672 736 q 570 393 672 457 q 293 329 468 329 l 244 329 q 240 258 240 292 q 268 153 240 189 q 363 118 296 118 q 471 144 421 118 q 547 217 521 169 q 581 156 581 201 q 542 63 581 106 q 439 -3 504 21 q 296 -28 374 -28 q 99 44 167 -28 q 31 263 31 115 q 78 494 31 386 q 223 669 126 603 q 460 736 319 736 m 429 661 q 322 588 368 661 q 254 393 276 514 q 422 444 354 393 q 490 583 490 496 q 429 661 490 661 m 632 1024 q 722 998 688 1024 q 756 925 756 972 q 720 851 756 876 q 628 825 685 825 q 538 850 572 825 q 503 922 503 875 q 539 997 503 971 q 632 1024 575 1024 m 322 1024 q 412 998 378 1024 q 446 925 446 972 q 410 851 446 876 q 318 825 375 825 q 228 850 263 825 q 193 922 193 875 q 229 997 193 971 q 322 1024 265 1024 z "},"ė":{"ha":654,"x_min":31,"x_max":672,"o":"m 31 0 m 460 736 q 672 572 672 736 q 570 393 672 457 q 293 329 468 329 l 244 329 q 240 258 240 292 q 268 153 240 189 q 363 118 296 118 q 471 144 421 118 q 547 217 521 169 q 581 156 581 201 q 542 63 581 106 q 439 -3 504 21 q 296 -28 374 -28 q 99 44 167 -28 q 31 263 31 115 q 78 494 31 386 q 223 669 126 603 q 460 736 319 736 m 429 661 q 322 588 368 661 q 254 393 276 514 q 422 444 354 393 q 490 583 490 496 q 429 661 490 661 m 468 1024 q 558 998 524 1024 q 592 925 592 972 q 556 851 592 876 q 464 825 521 825 q 374 850 408 825 q 339 922 339 875 q 375 997 339 971 q 468 1024 411 1024 z "},"ẹ":{"ha":654,"x_min":31,"x_max":672,"o":"m 31 0 m 460 736 q 672 572 672 736 q 570 393 672 457 q 293 329 468 329 l 244 329 q 240 258 240 292 q 268 153 240 189 q 363 118 296 118 q 471 144 421 118 q 547 217 521 169 q 581 156 581 201 q 542 63 581 106 q 439 -3 504 21 q 296 -28 374 -28 q 99 44 167 -28 q 31 263 31 115 q 78 494 31 386 q 223 669 126 603 q 460 736 319 736 m 429 661 q 322 588 368 661 q 254 393 276 514 q 422 444 354 393 q 490 583 490 496 q 429 661 490 661 m 297 -67 q 385 -92 351 -67 q 418 -162 418 -117 q 383 -235 418 -210 q 292 -260 347 -260 q 204 -235 238 -260 q 171 -165 171 -211 q 206 -92 171 -118 q 297 -67 242 -67 z "},"è":{"ha":654,"x_min":31,"x_max":672,"o":"m 31 0 m 460 736 q 672 572 672 736 q 570 393 672 457 q 293 329 468 329 l 244 329 q 240 258 240 292 q 268 153 240 189 q 363 118 296 118 q 471 144 421 118 q 547 217 521 169 q 581 156 581 201 q 542 63 581 106 q 439 -3 504 21 q 296 -28 374 -28 q 99 44 167 -28 q 31 263 31 115 q 78 494 31 386 q 223 669 126 603 q 460 736 319 736 m 429 661 q 322 588 368 661 q 254 393 276 514 q 422 444 354 393 q 490 583 490 496 q 429 661 490 661 m 385 853 q 261 901 306 871 q 217 989 217 931 q 228 1041 217 1018 q 264 1074 239 1064 l 574 878 l 547 815 l 385 853 z "},"ē":{"ha":654,"x_min":31,"x_max":692,"o":"m 31 0 m 460 736 q 672 572 672 736 q 570 393 672 457 q 293 329 468 329 l 244 329 q 240 258 240 292 q 268 153 240 189 q 363 118 296 118 q 471 144 421 118 q 547 217 521 169 q 581 156 581 201 q 542 63 581 106 q 439 -3 504 21 q 296 -28 374 -28 q 99 44 167 -28 q 31 263 31 115 q 78 494 31 386 q 223 669 126 603 q 460 736 319 736 m 429 661 q 322 588 368 661 q 254 393 276 514 q 422 444 354 393 q 490 583 490 496 q 429 661 490 661 m 688 979 q 692 943 692 965 q 666 882 692 906 q 592 858 640 858 l 283 858 q 279 894 279 871 q 305 956 281 933 q 369 979 329 979 l 688 979 z "},"ę":{"ha":654,"x_min":31,"x_max":672,"o":"m 244 329 q 240 258 240 292 q 268 153 240 189 q 363 118 296 118 q 471 144 421 118 q 547 217 521 169 q 581 156 581 201 q 553 76 581 113 q 476 14 525 39 q 383 -75 419 -22 q 347 -181 347 -128 q 365 -239 347 -221 q 421 -257 382 -257 q 500 -222 474 -257 q 518 -247 513 -235 q 524 -275 524 -258 q 488 -335 524 -311 q 390 -358 451 -358 q 265 -319 311 -358 q 219 -206 219 -279 q 244 -106 219 -151 q 313 -28 269 -61 l 296 -28 q 99 44 167 -28 q 31 263 31 115 q 78 494 31 386 q 223 669 126 603 q 460 736 319 736 q 672 572 672 736 q 570 393 672 457 q 293 329 468 329 l 244 329 m 429 661 q 322 588 368 661 q 254 393 276 514 q 422 444 354 393 q 490 583 490 496 q 429 661 490 661 z "},"ẽ":{"ha":654,"x_min":31,"x_max":713,"o":"m 31 0 m 460 736 q 672 572 672 736 q 570 393 672 457 q 293 329 468 329 l 244 329 q 240 258 240 292 q 268 153 240 189 q 363 118 296 118 q 471 144 421 118 q 547 217 521 169 q 581 156 581 201 q 542 63 581 106 q 439 -3 504 21 q 296 -28 374 -28 q 99 44 167 -28 q 31 263 31 115 q 78 494 31 386 q 223 669 126 603 q 460 736 319 736 m 429 661 q 322 588 368 661 q 254 393 276 514 q 422 444 354 393 q 490 583 490 496 q 429 661 490 661 m 689 1006 q 713 942 713 976 q 681 873 713 897 q 593 849 649 849 q 521 854 568 849 q 457 861 474 860 q 336 872 363 872 q 286 866 310 872 q 250 850 263 860 q 225 921 225 886 q 257 983 225 961 q 349 1006 289 1006 q 426 1000 378 1006 q 489 993 474 994 q 613 982 583 982 q 689 1006 667 982 z "},"ə":{"ha":689,"x_min":7,"x_max":649,"o":"m 219 -28 q 7 136 7 -28 q 101 312 7 249 q 361 381 196 375 q 435 379 413 381 q 439 450 439 417 q 411 556 439 521 q 317 592 383 592 q 209 565 260 592 q 132 493 158 539 q 99 554 99 506 q 137 646 99 604 q 240 712 175 688 q 383 736 306 736 q 649 447 649 736 q 601 215 649 324 q 456 40 553 107 q 219 -28 360 -28 m 250 47 q 357 122 311 47 q 425 315 403 196 q 257 264 325 315 q 189 125 189 213 q 250 47 189 47 z "},"f":{"ha":436,"x_min":18,"x_max":713,"o":"m 179 788 q 289 951 208 901 q 493 1000 369 1000 q 649 974 585 1000 q 713 886 713 947 q 677 815 713 840 q 590 790 642 790 q 521 806 547 790 q 540 883 540 842 q 490 939 540 939 q 424 903 447 939 q 389 803 400 867 l 372 708 l 499 708 l 490 646 l 360 646 l 242 0 l 18 -22 l 149 646 l 50 646 l 63 708 l 160 708 l 179 788 z "},"g":{"ha":751,"x_min":-15,"x_max":758,"o":"m 653 193 q 574 -80 619 21 q 453 -230 529 -181 q 254 -279 378 -279 q 64 -238 143 -279 q -15 -112 -15 -197 q 22 -26 -15 -57 q 111 4 60 4 q 176 -9 146 4 q 224 -47 206 -22 q 203 -80 211 -61 q 194 -117 194 -99 q 213 -169 194 -149 q 264 -190 232 -190 q 377 -103 336 -190 q 449 164 418 -17 q 360 102 415 124 q 244 81 306 81 q 97 135 149 81 q 44 303 44 190 q 94 514 44 414 q 234 675 143 614 q 443 736 325 736 q 576 710 511 736 l 758 731 l 653 193 m 525 622 q 483 645 507 638 q 438 653 458 653 q 336 590 376 653 q 277 439 296 526 q 258 282 258 351 q 275 203 258 231 q 332 176 292 176 q 476 372 439 176 l 525 622 z "},"ğ":{"ha":751,"x_min":-15,"x_max":761,"o":"m 0 0 m 653 193 q 574 -80 619 21 q 453 -230 529 -181 q 254 -279 378 -279 q 64 -238 143 -279 q -15 -112 -15 -197 q 22 -26 -15 -57 q 111 4 60 4 q 176 -9 146 4 q 224 -47 206 -22 q 203 -80 211 -61 q 194 -117 194 -99 q 213 -169 194 -149 q 264 -190 232 -190 q 377 -103 336 -190 q 449 164 418 -17 q 360 102 415 124 q 244 81 306 81 q 97 135 149 81 q 44 303 44 190 q 94 514 44 414 q 234 675 143 614 q 443 736 325 736 q 576 710 511 736 l 758 731 l 653 193 m 525 622 q 483 645 507 638 q 438 653 458 653 q 336 590 376 653 q 277 439 296 526 q 258 282 258 351 q 275 203 258 231 q 332 176 292 176 q 476 372 439 176 l 525 622 m 444 1024 q 439 983 439 997 q 450 917 439 942 q 496 893 461 893 q 569 932 542 893 q 606 1024 596 971 l 761 1024 q 672 879 743 933 q 482 825 601 825 q 329 869 382 825 q 276 986 276 914 q 281 1024 276 1003 l 444 1024 z "},"ĝ":{"ha":751,"x_min":-15,"x_max":758,"o":"m 0 0 m 653 193 q 574 -80 619 21 q 453 -230 529 -181 q 254 -279 378 -279 q 64 -238 143 -279 q -15 -112 -15 -197 q 22 -26 -15 -57 q 111 4 60 4 q 176 -9 146 4 q 224 -47 206 -22 q 203 -80 211 -61 q 194 -117 194 -99 q 213 -169 194 -149 q 264 -190 232 -190 q 377 -103 336 -190 q 449 164 418 -17 q 360 102 415 124 q 244 81 306 81 q 97 135 149 81 q 44 303 44 190 q 94 514 44 414 q 234 675 143 614 q 443 736 325 736 q 576 710 511 736 l 758 731 l 653 193 m 525 622 q 483 645 507 638 q 438 653 458 653 q 336 590 376 653 q 277 439 296 526 q 258 282 258 351 q 275 203 258 231 q 332 176 292 176 q 476 372 439 176 l 525 622 m 719 876 l 657 811 l 503 897 l 310 811 l 269 878 l 499 1039 l 535 1039 l 719 876 z "},"ģ":{"ha":751,"x_min":-15,"x_max":758,"o":"m 0 0 m 653 193 q 574 -80 619 21 q 453 -230 529 -181 q 254 -279 378 -279 q 64 -238 143 -279 q -15 -112 -15 -197 q 22 -26 -15 -57 q 111 4 60 4 q 176 -9 146 4 q 224 -47 206 -22 q 203 -80 211 -61 q 194 -117 194 -99 q 213 -169 194 -149 q 264 -190 232 -190 q 377 -103 336 -190 q 449 164 418 -17 q 360 102 415 124 q 244 81 306 81 q 97 135 149 81 q 44 303 44 190 q 94 514 44 414 q 234 675 143 614 q 443 736 325 736 q 576 710 511 736 l 758 731 l 653 193 m 525 622 q 483 645 507 638 q 438 653 458 653 q 336 590 376 653 q 277 439 296 526 q 258 282 258 351 q 275 203 258 231 q 332 176 292 176 q 476 372 439 176 l 525 622 m 582 1065 q 628 1056 606 1065 q 566 963 586 1007 q 546 871 546 918 q 558 810 546 839 q 474 792 528 792 q 381 869 381 792 q 408 958 381 913 q 481 1035 435 1004 q 582 1065 528 1065 z "},"ġ":{"ha":751,"x_min":-15,"x_max":758,"o":"m 0 0 m 653 193 q 574 -80 619 21 q 453 -230 529 -181 q 254 -279 378 -279 q 64 -238 143 -279 q -15 -112 -15 -197 q 22 -26 -15 -57 q 111 4 60 4 q 176 -9 146 4 q 224 -47 206 -22 q 203 -80 211 -61 q 194 -117 194 -99 q 213 -169 194 -149 q 264 -190 232 -190 q 377 -103 336 -190 q 449 164 418 -17 q 360 102 415 124 q 244 81 306 81 q 97 135 149 81 q 44 303 44 190 q 94 514 44 414 q 234 675 143 614 q 443 736 325 736 q 576 710 511 736 l 758 731 l 653 193 m 525 622 q 483 645 507 638 q 438 653 458 653 q 336 590 376 653 q 277 439 296 526 q 258 282 258 351 q 275 203 258 231 q 332 176 292 176 q 476 372 439 176 l 525 622 m 496 1024 q 585 998 551 1024 q 619 925 619 972 q 584 851 619 876 q 492 825 549 825 q 401 850 436 825 q 367 922 367 875 q 403 997 367 971 q 496 1024 439 1024 z "},"h":{"ha":793,"x_min":15,"x_max":747,"o":"m 396 835 q 372 730 386 785 q 342 638 357 675 q 439 713 381 689 q 565 736 497 736 q 747 565 747 736 q 735 454 747 517 q 701 306 724 392 q 675 192 683 233 q 667 122 667 150 q 678 76 667 93 q 719 57 690 60 q 667 -6 707 15 q 578 -28 628 -28 q 486 3 519 -28 q 453 96 453 35 q 463 182 453 133 q 496 331 472 231 q 536 549 536 494 q 519 608 536 586 q 467 629 501 629 q 367 563 404 629 q 311 404 329 497 l 232 0 l 15 -22 l 210 972 l 426 994 l 396 835 z "},"ħ":{"ha":793,"x_min":15,"x_max":747,"o":"m 385 781 q 342 638 363 688 q 439 713 381 689 q 565 736 497 736 q 747 565 747 736 q 735 454 747 517 q 701 306 724 392 q 675 192 683 233 q 667 122 667 150 q 678 76 667 93 q 719 57 690 60 q 667 -6 707 15 q 578 -28 628 -28 q 486 3 519 -28 q 453 96 453 35 q 463 182 453 133 q 496 331 472 231 q 536 549 536 494 q 519 608 536 586 q 467 629 501 629 q 367 563 404 629 q 311 404 329 497 l 232 0 l 15 -22 l 172 781 l 88 781 q 85 817 85 793 q 109 874 86 853 q 171 894 132 894 l 194 894 l 210 972 l 426 994 l 407 894 l 603 894 q 608 858 608 875 q 584 802 608 824 q 511 781 560 781 l 385 781 z "},"ĥ":{"ha":793,"x_min":15,"x_max":747,"o":"m 15 0 m 396 835 q 372 730 386 785 q 342 638 357 675 q 439 713 381 689 q 565 736 497 736 q 747 565 747 736 q 735 454 747 517 q 701 306 724 392 q 675 192 683 233 q 667 122 667 150 q 678 76 667 93 q 719 57 690 60 q 667 -6 707 15 q 578 -28 628 -28 q 486 3 519 -28 q 453 96 453 35 q 463 182 453 133 q 496 331 472 231 q 536 549 536 494 q 519 608 536 586 q 467 629 501 629 q 367 563 404 629 q 311 404 329 497 l 232 0 l 15 -22 l 210 972 l 426 994 l 396 835 m 563 1024 l 500 958 l 346 1044 l 153 958 l 113 1025 l 342 1186 l 378 1186 l 563 1024 z "},"ḥ":{"ha":793,"x_min":15,"x_max":747,"o":"m 15 0 m 396 835 q 372 730 386 785 q 342 638 357 675 q 439 713 381 689 q 565 736 497 736 q 747 565 747 736 q 735 454 747 517 q 701 306 724 392 q 675 192 683 233 q 667 122 667 150 q 678 76 667 93 q 719 57 690 60 q 667 -6 707 15 q 578 -28 628 -28 q 486 3 519 -28 q 453 96 453 35 q 463 182 453 133 q 496 331 472 231 q 536 549 536 494 q 519 608 536 586 q 467 629 501 629 q 367 563 404 629 q 311 404 329 497 l 232 0 l 15 -22 l 210 972 l 426 994 l 396 835 m 338 -67 q 425 -92 392 -67 q 458 -162 458 -117 q 423 -235 458 -210 q 332 -260 388 -260 q 244 -235 278 -260 q 211 -165 211 -211 q 247 -92 211 -118 q 338 -67 282 -67 z "},"i":{"ha":400,"x_min":47,"x_max":433,"o":"m 310 1024 q 399 998 365 1024 q 433 925 433 972 q 398 851 433 876 q 306 825 363 825 q 215 850 250 825 q 181 922 181 875 q 217 997 181 971 q 310 1024 253 1024 m 268 176 q 261 118 261 139 q 274 75 261 92 q 314 57 288 58 q 263 -6 301 15 q 174 -28 224 -28 q 81 3 115 -28 q 47 90 47 33 q 61 206 47 126 q 86 339 75 285 l 160 708 l 378 731 l 268 176 z "},"ı":{"ha":392,"x_min":47,"x_max":378,"o":"m 268 176 q 261 118 261 139 q 274 75 261 92 q 314 57 288 58 q 263 -6 301 15 q 174 -28 224 -28 q 81 3 115 -28 q 47 90 47 33 q 61 206 47 126 q 86 339 75 285 l 160 708 l 378 731 l 268 176 z "},"í":{"ha":392,"x_min":47,"x_max":506,"o":"m 47 0 m 268 176 q 261 118 261 139 q 274 75 261 92 q 314 57 288 58 q 263 -6 301 15 q 174 -28 224 -28 q 81 3 115 -28 q 47 90 47 33 q 61 206 47 126 q 86 339 75 285 l 160 708 l 378 731 l 268 176 m 458 1074 q 494 1040 482 1064 q 506 989 506 1017 q 460 901 506 931 q 336 853 415 871 l 174 815 l 147 878 l 458 1074 z "},"ĭ":{"ha":392,"x_min":47,"x_max":568,"o":"m 47 0 m 268 176 q 261 118 261 139 q 274 75 261 92 q 314 57 288 58 q 263 -6 301 15 q 174 -28 224 -28 q 81 3 115 -28 q 47 90 47 33 q 61 206 47 126 q 86 339 75 285 l 160 708 l 378 731 l 268 176 m 251 1024 q 246 983 246 997 q 257 917 246 942 q 303 893 268 893 q 376 932 349 893 q 413 1024 403 971 l 568 1024 q 479 879 550 933 q 289 825 408 825 q 136 869 189 825 q 83 986 83 914 q 88 1024 83 1003 l 251 1024 z "},"î":{"ha":392,"x_min":47,"x_max":526,"o":"m 47 0 m 268 176 q 261 118 261 139 q 274 75 261 92 q 314 57 288 58 q 263 -6 301 15 q 174 -28 224 -28 q 81 3 115 -28 q 47 90 47 33 q 61 206 47 126 q 86 339 75 285 l 160 708 l 378 731 l 268 176 m 526 876 l 464 811 l 310 897 l 117 811 l 76 878 l 306 1039 l 342 1039 l 526 876 z "},"ï":{"ha":392,"x_min":28,"x_max":590,"o":"m 28 0 m 268 176 q 261 118 261 139 q 274 75 261 92 q 314 57 288 58 q 263 -6 301 15 q 174 -28 224 -28 q 81 3 115 -28 q 47 90 47 33 q 61 206 47 126 q 86 339 75 285 l 160 708 l 378 731 l 268 176 m 467 1024 q 556 998 522 1024 q 590 925 590 972 q 555 851 590 876 q 463 825 519 825 q 372 850 407 825 q 338 922 338 875 q 374 997 338 971 q 467 1024 410 1024 m 157 1024 q 247 998 213 1024 q 281 925 281 972 q 245 851 281 876 q 153 825 210 825 q 63 850 97 825 q 28 922 28 875 q 64 997 28 971 q 157 1024 100 1024 z "},"ị":{"ha":400,"x_min":3,"x_max":433,"o":"m 3 0 m 310 1024 q 399 998 365 1024 q 433 925 433 972 q 398 851 433 876 q 306 825 363 825 q 215 850 250 825 q 181 922 181 875 q 217 997 181 971 q 310 1024 253 1024 m 268 176 q 261 118 261 139 q 274 75 261 92 q 314 57 288 58 q 263 -6 301 15 q 174 -28 224 -28 q 81 3 115 -28 q 47 90 47 33 q 61 206 47 126 q 86 339 75 285 l 160 708 l 378 731 l 268 176 m 129 -67 q 217 -92 183 -67 q 250 -162 250 -117 q 215 -235 250 -210 q 124 -260 179 -260 q 36 -235 69 -260 q 3 -165 3 -211 q 38 -92 3 -118 q 129 -67 74 -67 z "},"ì":{"ha":392,"x_min":47,"x_max":408,"o":"m 47 0 m 268 176 q 261 118 261 139 q 274 75 261 92 q 314 57 288 58 q 263 -6 301 15 q 174 -28 224 -28 q 81 3 115 -28 q 47 90 47 33 q 61 206 47 126 q 86 339 75 285 l 160 708 l 378 731 l 268 176 m 219 853 q 96 901 140 871 q 51 989 51 931 q 63 1041 51 1018 q 99 1074 74 1064 l 408 878 l 382 815 l 219 853 z "},"ĳ":{"ha":793,"x_min":47,"x_max":831,"o":"m 47 0 m 310 1024 q 399 998 365 1024 q 433 925 433 972 q 398 851 433 876 q 306 825 363 825 q 215 850 250 825 q 181 922 181 875 q 217 997 181 971 q 310 1024 253 1024 m 268 176 q 261 118 261 139 q 274 75 261 92 q 314 57 288 58 q 263 -6 301 15 q 174 -28 224 -28 q 81 3 115 -28 q 47 90 47 33 q 61 206 47 126 q 86 339 75 285 l 160 708 l 378 731 l 268 176 m 707 1024 q 797 998 763 1024 q 831 925 831 972 q 795 851 831 876 q 703 825 760 825 q 613 850 647 825 q 578 922 578 875 q 614 997 578 971 q 707 1024 650 1024 m 654 85 q 552 -191 617 -104 q 386 -278 488 -278 q 299 -255 333 -278 q 254 -186 264 -232 q 344 -151 308 -185 q 404 -47 379 -117 q 453 147 429 24 l 564 708 l 782 731 l 654 85 z "},"ī":{"ha":392,"x_min":47,"x_max":526,"o":"m 47 0 m 268 176 q 261 118 261 139 q 274 75 261 92 q 314 57 288 58 q 263 -6 301 15 q 174 -28 224 -28 q 81 3 115 -28 q 47 90 47 33 q 61 206 47 126 q 86 339 75 285 l 160 708 l 378 731 l 268 176 m 522 979 q 526 943 526 965 q 501 882 526 906 q 426 858 475 858 l 118 858 q 114 894 114 871 q 140 956 115 933 q 204 979 164 979 l 522 979 z "},"į":{"ha":392,"x_min":28,"x_max":426,"o":"m 303 1024 q 392 998 358 1024 q 426 925 426 972 q 391 851 426 876 q 299 825 356 825 q 208 850 243 825 q 174 922 174 875 q 210 997 174 971 q 303 1024 246 1024 m 268 176 q 261 118 261 139 q 274 75 261 92 q 314 57 288 58 q 249 -12 300 8 q 181 -92 206 -49 q 156 -181 156 -136 q 173 -239 156 -221 q 229 -257 190 -257 q 308 -222 282 -257 q 326 -247 321 -235 q 332 -275 332 -258 q 296 -335 332 -311 q 199 -358 260 -358 q 74 -319 119 -358 q 28 -206 28 -279 q 56 -102 28 -149 q 129 -22 83 -56 q 69 17 90 -11 q 47 90 47 46 q 61 206 47 126 q 86 339 75 285 l 160 708 l 378 731 l 268 176 z "},"ĩ":{"ha":392,"x_min":47,"x_max":547,"o":"m 47 0 m 268 176 q 261 118 261 139 q 274 75 261 92 q 314 57 288 58 q 263 -6 301 15 q 174 -28 224 -28 q 81 3 115 -28 q 47 90 47 33 q 61 206 47 126 q 86 339 75 285 l 160 708 l 378 731 l 268 176 m 524 1006 q 547 942 547 976 q 515 873 547 897 q 428 849 483 849 q 356 854 403 849 q 292 861 308 860 q 171 872 197 872 q 121 866 144 872 q 85 850 97 860 q 60 921 60 886 q 92 983 60 961 q 183 1006 124 1006 q 260 1000 213 1006 q 324 993 308 994 q 447 982 418 982 q 524 1006 501 982 z "},"j":{"ha":393,"x_min":-146,"x_max":431,"o":"m 307 1024 q 397 998 363 1024 q 431 925 431 972 q 395 851 431 876 q 303 825 360 825 q 213 850 247 825 q 178 922 178 875 q 214 997 178 971 q 307 1024 250 1024 m 254 85 q 152 -191 217 -104 q -14 -278 88 -278 q -101 -255 -67 -278 q -146 -186 -136 -232 q -56 -151 -92 -185 q 4 -47 -21 -117 q 53 147 29 24 l 164 708 l 382 731 l 254 85 z "},"ȷ":{"ha":393,"x_min":-146,"x_max":382,"o":"m 254 85 q 152 -191 217 -104 q -14 -278 88 -278 q -101 -255 -67 -278 q -146 -186 -136 -232 q -56 -151 -92 -185 q 4 -47 -21 -117 q 53 147 29 24 l 164 708 l 382 731 l 254 85 z "},"ĵ":{"ha":393,"x_min":-146,"x_max":526,"o":"m 0 0 m 254 85 q 152 -191 217 -104 q -14 -278 88 -278 q -101 -255 -67 -278 q -146 -186 -136 -232 q -56 -151 -92 -185 q 4 -47 -21 -117 q 53 147 29 24 l 164 708 l 382 731 l 254 85 m 526 876 l 464 811 l 310 897 l 117 811 l 76 878 l 306 1039 l 342 1039 l 526 876 z "},"k":{"ha":706,"x_min":-7,"x_max":721,"o":"m 374 835 q 321 638 350 706 q 417 712 360 688 q 539 736 475 736 q 674 692 628 736 q 721 568 721 649 q 662 413 721 476 q 508 321 603 350 l 568 165 q 668 67 604 74 q 620 -3 657 22 q 533 -28 583 -28 q 424 16 467 -28 q 358 135 382 60 q 310 331 333 210 q 451 411 392 353 q 510 547 510 469 q 492 608 510 588 q 440 629 474 629 q 343 566 378 629 q 289 404 308 503 l 211 0 l -7 -22 l 188 972 l 406 994 l 374 835 z "},"ķ":{"ha":706,"x_min":-7,"x_max":721,"o":"m 0 0 m 374 835 q 321 638 350 706 q 417 712 360 688 q 539 736 475 736 q 674 692 628 736 q 721 568 721 649 q 662 413 721 476 q 508 321 603 350 l 568 165 q 668 67 604 74 q 620 -3 657 22 q 533 -28 583 -28 q 424 16 467 -28 q 358 135 382 60 q 310 331 333 210 q 451 411 392 353 q 510 547 510 469 q 492 608 510 588 q 440 629 474 629 q 343 566 378 629 q 289 404 308 503 l 211 0 l -7 -22 l 188 972 l 406 994 l 374 835 m 418 -156 q 388 -250 418 -207 q 310 -319 357 -293 q 219 -344 263 -344 q 172 -333 188 -344 q 234 -242 214 -283 q 254 -149 254 -201 q 243 -87 254 -114 q 279 -75 256 -81 q 322 -69 303 -69 q 392 -92 365 -69 q 418 -156 418 -115 z "},"ĸ":{"ha":728,"x_min":15,"x_max":742,"o":"m 317 599 q 422 706 357 675 q 560 736 488 736 q 695 692 649 736 q 742 568 742 649 q 683 413 742 475 q 531 321 624 350 l 590 165 q 689 67 624 74 q 642 -3 679 22 q 554 -28 606 -28 q 446 16 488 -28 q 379 135 404 60 q 331 331 354 210 q 472 411 413 353 q 531 547 531 469 q 461 629 531 629 q 364 565 399 629 q 311 404 329 501 l 232 0 l 15 -22 l 158 708 l 336 731 l 317 599 z "},"l":{"ha":379,"x_min":26,"x_max":408,"o":"m 247 176 q 240 118 240 139 q 253 75 240 92 q 293 57 267 58 q 242 -6 281 15 q 153 -28 203 -28 q 60 3 94 -28 q 26 90 26 33 q 40 206 26 126 q 65 339 54 285 l 189 972 l 408 994 l 247 176 z "},"ĺ":{"ha":379,"x_min":26,"x_max":542,"o":"m 26 0 m 247 176 q 240 118 240 139 q 253 75 240 92 q 293 57 267 58 q 242 -6 281 15 q 153 -28 203 -28 q 60 3 94 -28 q 26 90 26 33 q 40 206 26 126 q 65 339 54 285 l 189 972 l 408 994 l 247 176 m 175 1079 l 507 1211 q 542 1143 542 1189 q 351 1022 542 1028 l 189 1015 l 175 1079 z "},"ľ":{"ha":379,"x_min":26,"x_max":603,"o":"m 26 0 m 247 176 q 240 118 240 139 q 253 75 240 92 q 293 57 267 58 q 242 -6 281 15 q 153 -28 203 -28 q 60 3 94 -28 q 26 90 26 33 q 40 206 26 126 q 65 339 54 285 l 189 972 l 408 994 l 247 176 m 442 982 q 476 994 454 989 q 518 1000 499 1000 q 579 975 556 1000 q 603 904 603 950 q 578 825 603 864 q 514 761 554 786 q 429 736 474 736 q 383 744 411 736 q 437 829 421 789 q 453 915 453 869 q 442 982 453 954 z "},"ļ":{"ha":379,"x_min":10,"x_max":408,"o":"m 10 0 m 247 176 q 240 118 240 139 q 253 75 240 92 q 293 57 267 58 q 242 -6 281 15 q 153 -28 203 -28 q 60 3 94 -28 q 26 90 26 33 q 40 206 26 126 q 65 339 54 285 l 189 972 l 408 994 l 247 176 m 256 -156 q 225 -250 256 -207 q 147 -319 194 -293 q 57 -344 100 -344 q 10 -333 25 -344 q 72 -242 51 -283 q 92 -149 92 -201 q 81 -87 92 -114 q 117 -75 93 -81 q 160 -69 140 -69 q 229 -92 203 -69 q 256 -156 256 -115 z "},"ŀ":{"ha":435,"x_min":26,"x_max":503,"o":"m 247 176 q 240 118 240 139 q 253 75 240 92 q 293 57 267 58 q 242 -6 281 15 q 153 -28 203 -28 q 60 3 94 -28 q 26 90 26 33 q 40 206 26 126 q 65 339 54 285 l 189 972 l 408 994 l 247 176 m 433 550 q 484 532 465 550 q 503 482 503 514 q 501 463 503 469 q 463 397 493 421 q 393 372 433 372 q 342 390 361 372 q 322 438 322 407 q 356 519 322 488 q 433 550 389 550 z "},"ǉ":{"ha":379,"x_min":-142,"x_max":435,"o":"m 311 1258 q 401 1233 367 1258 q 435 1160 435 1207 q 399 1085 435 1111 q 307 1060 364 1060 q 217 1085 251 1060 q 182 1157 182 1110 q 218 1232 182 1206 q 311 1258 254 1258 m 247 176 q 240 118 240 139 q 253 75 240 92 q 293 57 267 58 q 242 -6 281 15 q 153 -28 203 -28 q 92 -17 121 -28 q -10 -43 47 -43 q -97 -20 -62 -43 q -142 49 -132 3 q -52 84 -87 50 q 8 188 -17 118 q 57 382 33 258 l 168 943 l 183 944 l 189 972 l 408 994 l 247 176 z "},"ł":{"ha":485,"x_min":-8,"x_max":538,"o":"m 514 628 q 538 564 538 606 q 516 512 538 532 q 447 475 494 492 l 365 446 l 313 176 q 306 118 306 139 q 319 75 306 92 q 358 57 332 58 q 307 -6 346 15 q 218 -28 268 -28 q 126 3 160 -28 q 92 90 92 33 q 113 243 92 129 l 135 363 l 19 321 q -8 379 -8 349 q 50 456 -8 435 l 161 497 l 254 972 l 474 994 l 392 582 l 514 628 z "},"m":{"ha":1193,"x_min":15,"x_max":1153,"o":"m 317 600 q 554 736 388 736 q 670 708 626 736 q 731 618 714 679 q 828 708 768 679 q 964 736 889 736 q 1104 693 1056 736 q 1153 565 1153 650 q 1141 463 1153 518 q 1104 306 1129 407 q 1076 192 1085 233 q 1067 124 1067 150 q 1079 76 1067 93 q 1119 57 1092 60 q 1067 -6 1107 15 q 978 -28 1028 -28 q 886 3 919 -28 q 853 96 853 35 q 863 187 853 135 q 896 332 874 239 q 926 464 915 414 q 936 547 936 514 q 919 607 936 585 q 867 629 901 629 q 718 404 761 629 l 640 0 l 422 -22 l 497 338 q 500 349 499 343 q 503 365 501 356 q 518 442 504 375 q 532 549 532 510 q 515 608 532 586 q 461 629 497 629 q 363 564 397 629 q 311 404 329 499 l 232 0 l 15 -22 l 158 708 l 336 731 l 317 600 z "},"n":{"ha":793,"x_min":15,"x_max":747,"o":"m 317 600 q 417 703 354 669 q 563 736 481 736 q 747 567 747 736 q 735 456 747 518 q 701 304 724 393 q 675 190 683 231 q 667 122 667 150 q 678 76 667 93 q 719 57 690 60 q 667 -6 707 15 q 578 -28 628 -28 q 486 3 519 -28 q 453 96 453 35 q 463 182 453 133 q 496 331 472 231 q 536 549 536 494 q 519 608 536 586 q 467 629 501 629 q 367 563 404 629 q 311 404 329 497 l 232 0 l 15 -22 l 158 708 l 336 731 l 317 600 z "},"ń":{"ha":793,"x_min":15,"x_max":747,"o":"m 15 0 m 317 600 q 417 703 354 669 q 563 736 481 736 q 747 567 747 736 q 735 456 747 518 q 701 304 724 393 q 675 190 683 231 q 667 122 667 150 q 678 76 667 93 q 719 57 690 60 q 667 -6 707 15 q 578 -28 628 -28 q 486 3 519 -28 q 453 96 453 35 q 463 182 453 133 q 496 331 472 231 q 536 549 536 494 q 519 608 536 586 q 467 629 501 629 q 367 563 404 629 q 311 404 329 497 l 232 0 l 15 -22 l 158 708 l 336 731 l 317 600 m 660 1074 q 695 1040 683 1064 q 707 989 707 1017 q 662 901 707 931 q 538 853 617 871 l 375 815 l 349 878 l 660 1074 z "},"ŉ":{"ha":793,"x_min":-49,"x_max":747,"o":"m 115 993 q 192 967 164 993 q 221 889 221 942 q 194 791 221 838 q 118 717 167 744 q 7 689 69 689 q -49 697 -15 689 q 17 791 -1 742 q 36 897 36 840 q 22 972 36 943 q 63 988 36 982 q 115 993 90 993 m 563 736 q 747 567 747 736 q 735 456 747 518 q 701 304 724 393 q 675 190 683 231 q 667 122 667 150 q 678 76 667 93 q 719 57 690 60 q 667 -6 707 15 q 578 -28 628 -28 q 486 3 519 -28 q 453 96 453 35 q 463 182 453 133 q 496 331 472 231 q 536 549 536 494 q 519 608 536 586 q 467 629 501 629 q 367 563 404 629 q 311 404 329 497 l 232 0 l 15 -22 l 158 708 l 336 731 l 317 600 q 417 703 354 669 q 563 736 481 736 z "},"ň":{"ha":793,"x_min":15,"x_max":747,"o":"m 15 0 m 317 600 q 417 703 354 669 q 563 736 481 736 q 747 567 747 736 q 735 456 747 518 q 701 304 724 393 q 675 190 683 231 q 667 122 667 150 q 678 76 667 93 q 719 57 690 60 q 667 -6 707 15 q 578 -28 628 -28 q 486 3 519 -28 q 453 96 453 35 q 463 182 453 133 q 496 331 472 231 q 536 549 536 494 q 519 608 536 586 q 467 629 501 629 q 367 563 404 629 q 311 404 329 497 l 232 0 l 15 -22 l 158 708 l 336 731 l 317 600 m 290 1001 l 353 1067 l 506 974 l 699 1067 l 739 1000 l 517 825 l 467 825 l 290 1001 z "},"ņ":{"ha":793,"x_min":15,"x_max":747,"o":"m 15 0 m 317 600 q 417 703 354 669 q 563 736 481 736 q 747 567 747 736 q 735 456 747 518 q 701 304 724 393 q 675 190 683 231 q 667 122 667 150 q 678 76 667 93 q 719 57 690 60 q 667 -6 707 15 q 578 -28 628 -28 q 486 3 519 -28 q 453 96 453 35 q 463 182 453 133 q 496 331 472 231 q 536 549 536 494 q 519 608 536 586 q 467 629 501 629 q 367 563 404 629 q 311 404 329 497 l 232 0 l 15 -22 l 158 708 l 336 731 l 317 600 m 428 -156 q 397 -250 428 -207 q 319 -319 367 -293 q 229 -344 272 -344 q 182 -333 197 -344 q 244 -242 224 -283 q 264 -149 264 -201 q 253 -87 264 -114 q 289 -75 265 -81 q 332 -69 313 -69 q 401 -92 375 -69 q 428 -156 428 -115 z "},"ṅ":{"ha":793,"x_min":15,"x_max":747,"o":"m 15 0 m 317 600 q 417 703 354 669 q 563 736 481 736 q 747 567 747 736 q 735 456 747 518 q 701 304 724 393 q 675 190 683 231 q 667 122 667 150 q 678 76 667 93 q 719 57 690 60 q 667 -6 707 15 q 578 -28 628 -28 q 486 3 519 -28 q 453 96 453 35 q 463 182 453 133 q 496 331 472 231 q 536 549 536 494 q 519 608 536 586 q 467 629 501 629 q 367 563 404 629 q 311 404 329 497 l 232 0 l 15 -22 l 158 708 l 336 731 l 317 600 m 504 1024 q 594 998 560 1024 q 628 925 628 972 q 592 851 628 876 q 500 825 557 825 q 410 850 444 825 q 375 922 375 875 q 411 997 375 971 q 504 1024 447 1024 z "},"ŋ":{"ha":793,"x_min":15,"x_max":747,"o":"m 336 731 l 317 600 q 417 703 354 669 q 563 736 481 736 q 701 694 656 736 q 747 565 747 653 q 737 471 747 525 q 724 404 726 417 l 660 85 q 558 -191 622 -104 q 393 -278 494 -278 q 308 -255 343 -278 q 263 -186 272 -232 q 352 -151 317 -185 q 413 -48 388 -118 q 465 147 439 22 q 520 417 504 332 q 536 546 536 503 q 519 607 536 585 q 468 629 501 629 q 367 563 404 629 q 311 404 329 497 l 232 0 l 15 -22 l 158 708 l 336 731 z "},"ǌ":{"ha":793,"x_min":15,"x_max":747,"o":"m 500 825 q 410 850 444 825 q 375 922 375 875 q 411 997 375 971 q 504 1024 447 1024 q 594 998 560 1024 q 628 925 628 972 q 592 851 628 876 q 500 825 557 825 m 667 122 q 678 76 667 93 q 719 57 690 60 q 667 -6 707 15 q 578 -28 628 -28 q 488 2 521 -28 q 453 92 454 32 l 451 85 q 349 -191 414 -104 q 183 -278 285 -278 q 96 -255 131 -278 q 51 -186 61 -232 q 150 -142 113 -185 q 215 -1 188 -99 l 15 -22 l 158 708 l 336 731 l 317 600 q 349 649 326 618 l 361 708 l 450 717 q 563 736 499 736 q 747 567 747 736 q 735 456 747 518 q 701 304 724 393 q 675 190 683 231 q 667 122 667 150 z "},"ñ":{"ha":793,"x_min":15,"x_max":749,"o":"m 15 0 m 317 600 q 417 703 354 669 q 563 736 481 736 q 747 567 747 736 q 735 456 747 518 q 701 304 724 393 q 675 190 683 231 q 667 122 667 150 q 678 76 667 93 q 719 57 690 60 q 667 -6 707 15 q 578 -28 628 -28 q 486 3 519 -28 q 453 96 453 35 q 463 182 453 133 q 496 331 472 231 q 536 549 536 494 q 519 608 536 586 q 467 629 501 629 q 367 563 404 629 q 311 404 329 497 l 232 0 l 15 -22 l 158 708 l 336 731 l 317 600 m 725 1006 q 749 942 749 976 q 717 873 749 897 q 629 849 685 849 q 557 854 604 849 q 493 861 510 860 q 372 872 399 872 q 322 866 346 872 q 286 850 299 860 q 261 921 261 886 q 293 983 261 961 q 385 1006 325 1006 q 462 1000 414 1006 q 525 993 510 994 q 649 982 619 982 q 725 1006 703 982 z "},"o":{"ha":746,"x_min":31,"x_max":717,"o":"m 453 736 q 655 664 593 736 q 717 457 717 592 q 669 215 717 325 q 525 38 621 104 q 294 -28 429 -28 q 92 45 154 -28 q 31 254 31 118 q 78 496 31 386 q 222 671 126 606 q 453 736 317 736 m 426 653 q 325 585 363 653 q 264 383 288 518 q 240 174 240 263 q 258 87 240 118 q 319 56 275 56 q 422 123 385 56 q 482 326 458 190 q 507 535 507 454 q 489 622 507 592 q 426 653 471 653 z "},"ó":{"ha":746,"x_min":31,"x_max":717,"o":"m 31 0 m 453 736 q 655 664 593 736 q 717 457 717 592 q 669 215 717 325 q 525 38 621 104 q 294 -28 429 -28 q 92 45 154 -28 q 31 254 31 118 q 78 496 31 386 q 222 671 126 606 q 453 736 317 736 m 426 653 q 325 585 363 653 q 264 383 288 518 q 240 174 240 263 q 258 87 240 118 q 319 56 275 56 q 422 123 385 56 q 482 326 458 190 q 507 535 507 454 q 489 622 507 592 q 426 653 471 653 m 653 1074 q 688 1040 676 1064 q 700 989 700 1017 q 655 901 700 931 q 531 853 610 871 l 368 815 l 342 878 l 653 1074 z "},"ŏ":{"ha":746,"x_min":31,"x_max":763,"o":"m 31 0 m 453 736 q 655 664 593 736 q 717 457 717 592 q 669 215 717 325 q 525 38 621 104 q 294 -28 429 -28 q 92 45 154 -28 q 31 254 31 118 q 78 496 31 386 q 222 671 126 606 q 453 736 317 736 m 426 653 q 325 585 363 653 q 264 383 288 518 q 240 174 240 263 q 258 87 240 118 q 319 56 275 56 q 422 123 385 56 q 482 326 458 190 q 507 535 507 454 q 489 622 507 592 q 426 653 471 653 m 446 1024 q 440 983 440 997 q 451 917 440 942 q 497 893 463 893 q 570 932 543 893 q 607 1024 597 971 l 763 1024 q 674 879 744 933 q 483 825 603 825 q 331 869 383 825 q 278 986 278 914 q 282 1024 278 1003 l 446 1024 z "},"ô":{"ha":746,"x_min":31,"x_max":721,"o":"m 31 0 m 453 736 q 655 664 593 736 q 717 457 717 592 q 669 215 717 325 q 525 38 621 104 q 294 -28 429 -28 q 92 45 154 -28 q 31 254 31 118 q 78 496 31 386 q 222 671 126 606 q 453 736 317 736 m 426 653 q 325 585 363 653 q 264 383 288 518 q 240 174 240 263 q 258 87 240 118 q 319 56 275 56 q 422 123 385 56 q 482 326 458 190 q 507 535 507 454 q 489 622 507 592 q 426 653 471 653 m 721 876 l 658 811 l 504 897 l 311 811 l 271 878 l 500 1039 l 536 1039 l 721 876 z "},"ö":{"ha":746,"x_min":31,"x_max":785,"o":"m 31 0 m 453 736 q 655 664 593 736 q 717 457 717 592 q 669 215 717 325 q 525 38 621 104 q 294 -28 429 -28 q 92 45 154 -28 q 31 254 31 118 q 78 496 31 386 q 222 671 126 606 q 453 736 317 736 m 426 653 q 325 585 363 653 q 264 383 288 518 q 240 174 240 263 q 258 87 240 118 q 319 56 275 56 q 422 123 385 56 q 482 326 458 190 q 507 535 507 454 q 489 622 507 592 q 426 653 471 653 m 661 1024 q 751 998 717 1024 q 785 925 785 972 q 749 851 785 876 q 657 825 714 825 q 567 850 601 825 q 532 922 532 875 q 568 997 532 971 q 661 1024 604 1024 m 351 1024 q 441 998 407 1024 q 475 925 475 972 q 440 851 475 876 q 347 825 404 825 q 257 850 292 825 q 222 922 222 875 q 258 997 222 971 q 351 1024 294 1024 z "},"ọ":{"ha":746,"x_min":31,"x_max":717,"o":"m 31 0 m 453 736 q 655 664 593 736 q 717 457 717 592 q 669 215 717 325 q 525 38 621 104 q 294 -28 429 -28 q 92 45 154 -28 q 31 254 31 118 q 78 496 31 386 q 222 671 126 606 q 453 736 317 736 m 426 653 q 325 585 363 653 q 264 383 288 518 q 240 174 240 263 q 258 87 240 118 q 319 56 275 56 q 422 123 385 56 q 482 326 458 190 q 507 535 507 454 q 489 622 507 592 q 426 653 471 653 m 296 -67 q 383 -92 350 -67 q 417 -162 417 -117 q 381 -235 417 -210 q 290 -260 346 -260 q 203 -235 236 -260 q 169 -165 169 -211 q 205 -92 169 -118 q 296 -67 240 -67 z "},"ò":{"ha":746,"x_min":31,"x_max":717,"o":"m 31 0 m 453 736 q 655 664 593 736 q 717 457 717 592 q 669 215 717 325 q 525 38 621 104 q 294 -28 429 -28 q 92 45 154 -28 q 31 254 31 118 q 78 496 31 386 q 222 671 126 606 q 453 736 317 736 m 426 653 q 325 585 363 653 q 264 383 288 518 q 240 174 240 263 q 258 87 240 118 q 319 56 275 56 q 422 123 385 56 q 482 326 458 190 q 507 535 507 454 q 489 622 507 592 q 426 653 471 653 m 414 853 q 290 901 335 871 q 246 989 246 931 q 257 1041 246 1018 q 293 1074 268 1064 l 603 878 l 576 815 l 414 853 z "},"ő":{"ha":746,"x_min":31,"x_max":840,"o":"m 31 0 m 453 736 q 655 664 593 736 q 717 457 717 592 q 669 215 717 325 q 525 38 621 104 q 294 -28 429 -28 q 92 45 154 -28 q 31 254 31 118 q 78 496 31 386 q 222 671 126 606 q 453 736 317 736 m 426 653 q 325 585 363 653 q 264 383 288 518 q 240 174 240 263 q 258 87 240 118 q 319 56 275 56 q 422 123 385 56 q 482 326 458 190 q 507 535 507 454 q 489 622 507 592 q 426 653 471 653 m 483 1083 q 545 1049 521 1075 q 569 990 569 1024 q 538 903 569 944 q 453 832 506 861 l 339 761 l 279 800 l 483 1083 m 756 1083 q 817 1049 793 1075 q 840 990 840 1024 q 808 903 840 944 q 724 832 776 861 l 610 761 l 551 800 l 756 1083 z "},"ō":{"ha":746,"x_min":31,"x_max":721,"o":"m 31 0 m 453 736 q 655 664 593 736 q 717 457 717 592 q 669 215 717 325 q 525 38 621 104 q 294 -28 429 -28 q 92 45 154 -28 q 31 254 31 118 q 78 496 31 386 q 222 671 126 606 q 453 736 317 736 m 426 653 q 325 585 363 653 q 264 383 288 518 q 240 174 240 263 q 258 87 240 118 q 319 56 275 56 q 422 123 385 56 q 482 326 458 190 q 507 535 507 454 q 489 622 507 592 q 426 653 471 653 m 717 979 q 721 943 721 965 q 695 882 721 906 q 621 858 669 858 l 313 858 q 308 894 308 871 q 334 956 310 933 q 399 979 358 979 l 717 979 z "},"ǫ":{"ha":746,"x_min":31,"x_max":717,"o":"m 450 0 q 370 -84 400 -36 q 340 -181 340 -132 q 358 -239 340 -221 q 414 -257 375 -257 q 493 -222 467 -257 q 511 -247 506 -235 q 517 -275 517 -258 q 481 -335 517 -311 q 383 -358 444 -358 q 258 -319 304 -358 q 213 -206 213 -279 q 238 -106 213 -151 q 306 -28 263 -61 l 294 -28 q 92 45 154 -28 q 31 254 31 118 q 78 496 31 386 q 222 671 126 606 q 453 736 317 736 q 655 664 593 736 q 717 457 717 592 q 648 174 717 299 q 450 0 579 49 m 240 174 q 258 87 240 118 q 319 56 275 56 q 422 123 385 56 q 482 326 458 190 q 507 535 507 454 q 489 622 507 592 q 426 653 471 653 q 325 585 363 653 q 264 383 288 518 q 240 174 240 263 z "},"ø":{"ha":746,"x_min":-10,"x_max":758,"o":"m 758 750 q 729 686 758 715 l 678 631 q 717 457 717 563 q 669 215 717 325 q 525 38 621 104 q 294 -28 429 -28 q 125 18 189 -28 l 119 13 q 82 -33 96 -14 q 53 -78 68 -51 q 7 -59 24 -78 q -10 -12 -10 -40 q 17 54 -10 28 l 58 101 q 31 254 31 161 q 78 496 31 386 q 222 671 126 606 q 453 736 317 736 q 600 706 542 736 l 631 739 q 696 822 669 783 q 738 801 718 822 q 758 750 758 781 m 276 456 q 251 317 264 404 l 499 590 q 474 637 490 621 q 426 653 457 653 q 333 602 368 653 q 276 456 299 551 m 319 56 q 444 172 403 56 q 500 433 486 289 l 239 144 q 319 56 250 56 z "},"ǿ":{"ha":746,"x_min":-10,"x_max":758,"o":"m 0 0 m 758 750 q 729 686 758 715 l 678 631 q 717 457 717 563 q 669 215 717 325 q 525 38 621 104 q 294 -28 429 -28 q 125 18 189 -28 l 119 13 q 82 -33 96 -14 q 53 -78 68 -51 q 7 -59 24 -78 q -10 -12 -10 -40 q 17 54 -10 28 l 58 101 q 31 254 31 161 q 78 496 31 386 q 222 671 126 606 q 453 736 317 736 q 600 706 542 736 l 631 739 q 696 822 669 783 q 738 801 718 822 q 758 750 758 781 m 276 456 q 251 317 264 404 l 499 590 q 474 637 490 621 q 426 653 457 653 q 333 602 368 653 q 276 456 299 551 m 319 56 q 444 172 403 56 q 500 433 486 289 l 239 144 q 319 56 250 56 m 644 1074 q 680 1040 668 1064 q 692 989 692 1017 q 647 901 692 931 q 522 853 601 871 l 360 815 l 333 878 l 644 1074 z "},"õ":{"ha":746,"x_min":31,"x_max":742,"o":"m 31 0 m 453 736 q 655 664 593 736 q 717 457 717 592 q 669 215 717 325 q 525 38 621 104 q 294 -28 429 -28 q 92 45 154 -28 q 31 254 31 118 q 78 496 31 386 q 222 671 126 606 q 453 736 317 736 m 426 653 q 325 585 363 653 q 264 383 288 518 q 240 174 240 263 q 258 87 240 118 q 319 56 275 56 q 422 123 385 56 q 482 326 458 190 q 507 535 507 454 q 489 622 507 592 q 426 653 471 653 m 718 1006 q 742 942 742 976 q 710 873 742 897 q 622 849 678 849 q 550 854 597 849 q 486 861 503 860 q 365 872 392 872 q 315 866 339 872 q 279 850 292 860 q 254 921 254 886 q 286 983 254 961 q 378 1006 318 1006 q 455 1000 407 1006 q 518 993 503 994 q 642 982 613 982 q 718 1006 696 982 z "},"œ":{"ha":1092,"x_min":31,"x_max":1119,"o":"m 903 736 q 1061 699 1003 736 q 1119 574 1119 663 q 1028 400 1119 463 q 785 331 936 338 q 693 329 756 329 q 689 264 689 296 q 716 156 689 193 q 811 118 743 118 q 917 144 867 118 q 994 217 968 169 q 1029 156 1029 201 q 990 63 1029 106 q 887 -3 951 21 q 750 -28 822 -28 q 631 -8 686 -28 q 542 51 575 11 q 432 -8 492 11 q 299 -28 372 -28 q 94 42 158 -28 q 31 254 31 111 q 78 494 31 385 q 221 670 126 604 q 447 736 315 736 q 572 717 518 736 q 656 658 625 697 q 766 717 706 697 q 903 736 826 736 m 876 661 q 769 587 815 661 q 703 393 724 513 q 870 444 803 393 q 938 583 938 496 q 876 661 938 661 m 319 56 q 422 123 385 56 q 482 326 458 190 q 507 535 507 454 q 489 622 507 592 q 426 653 471 653 q 325 585 363 653 q 264 383 288 518 q 240 174 240 263 q 258 87 240 118 q 319 56 275 56 z "},"p":{"ha":772,"x_min":-32,"x_max":744,"o":"m 318 615 q 413 705 354 672 q 544 738 472 738 q 698 670 651 738 q 744 474 744 603 q 698 225 744 339 q 559 42 651 111 q 336 -28 467 -28 q 229 -11 282 -28 l 185 -250 l -32 -272 l 157 708 l 335 731 l 318 615 m 250 90 q 296 65 269 74 q 347 57 322 57 q 449 122 413 57 q 510 322 486 188 q 535 528 535 447 q 519 608 535 581 q 463 635 503 635 q 366 579 403 635 q 315 447 329 524 l 250 90 z "},"þ":{"ha":771,"x_min":-32,"x_max":744,"o":"m 394 835 q 346 649 371 715 q 543 738 425 738 q 697 669 650 738 q 744 474 744 601 q 698 224 744 339 q 559 41 651 110 q 335 -28 467 -28 q 228 -11 281 -28 l 183 -250 l -32 -272 l 208 972 l 425 994 l 394 835 m 250 90 q 296 65 269 74 q 346 57 322 57 q 449 123 411 57 q 510 322 486 189 q 533 528 533 440 q 518 608 533 581 q 463 635 503 635 q 366 580 403 635 q 314 447 329 525 l 250 90 z "},"q":{"ha":760,"x_min":26,"x_max":757,"o":"m 575 -257 l 356 -279 l 385 -126 q 436 72 410 11 q 343 -1 399 25 q 222 -28 288 -28 q 72 39 117 -28 q 26 231 26 106 q 73 482 26 367 q 213 667 119 597 q 440 736 307 736 q 579 708 517 736 l 757 731 l 575 -257 m 525 619 q 479 644 506 635 q 428 653 453 653 q 326 589 364 653 q 263 386 288 525 q 238 181 238 261 q 253 102 238 129 q 308 75 269 75 q 411 142 374 75 q 467 300 449 208 l 525 619 z "},"r":{"ha":633,"x_min":15,"x_max":672,"o":"m 315 600 q 398 700 344 664 q 521 736 451 736 q 633 696 594 736 q 672 586 672 656 q 626 454 672 507 q 510 401 581 401 q 467 408 488 401 q 438 428 447 414 q 472 497 458 456 q 486 572 486 539 q 439 629 486 629 q 356 564 389 629 q 306 397 324 499 l 239 0 l 15 -22 l 156 708 l 335 731 l 315 600 z "},"ŕ":{"ha":633,"x_min":15,"x_max":672,"o":"m 15 0 m 315 600 q 398 700 344 664 q 521 736 451 736 q 633 696 594 736 q 672 586 672 656 q 626 454 672 507 q 510 401 581 401 q 467 408 488 401 q 438 428 447 414 q 472 497 458 456 q 486 572 486 539 q 439 629 486 629 q 356 564 389 629 q 306 397 324 499 l 239 0 l 15 -22 l 156 708 l 335 731 l 315 600 m 443 1074 q 478 1040 467 1064 q 490 989 490 1017 q 445 901 490 931 q 321 853 400 871 l 158 815 l 132 878 l 443 1074 z "},"ř":{"ha":633,"x_min":15,"x_max":672,"o":"m 15 0 m 315 600 q 398 700 344 664 q 521 736 451 736 q 633 696 594 736 q 672 586 672 656 q 626 454 672 507 q 510 401 581 401 q 467 408 488 401 q 438 428 447 414 q 472 497 458 456 q 486 572 486 539 q 439 629 486 629 q 356 564 389 629 q 306 397 324 499 l 239 0 l 15 -22 l 156 708 l 335 731 l 315 600 m 74 1001 l 136 1067 l 289 974 l 482 1067 l 522 1000 l 300 825 l 250 825 l 74 1001 z "},"ŗ":{"ha":633,"x_min":-25,"x_max":672,"o":"m 0 0 m 315 600 q 398 700 344 664 q 521 736 451 736 q 633 696 594 736 q 672 586 672 656 q 626 454 672 507 q 510 401 581 401 q 467 408 488 401 q 438 428 447 414 q 472 497 458 456 q 486 572 486 539 q 439 629 486 629 q 356 564 389 629 q 306 397 324 499 l 239 0 l 15 -22 l 156 708 l 335 731 l 315 600 m 221 -156 q 190 -250 221 -207 q 113 -319 160 -293 q 22 -344 65 -344 q -25 -333 -10 -344 q 37 -242 17 -283 q 57 -149 57 -201 q 46 -87 57 -114 q 82 -75 58 -81 q 125 -69 106 -69 q 194 -92 168 -69 q 221 -156 221 -115 z "},"ṛ":{"ha":633,"x_min":-6,"x_max":672,"o":"m 0 0 m 315 600 q 398 700 344 664 q 521 736 451 736 q 633 696 594 736 q 672 586 672 656 q 626 454 672 507 q 510 401 581 401 q 467 408 488 401 q 438 428 447 414 q 472 497 458 456 q 486 572 486 539 q 439 629 486 629 q 356 564 389 629 q 306 397 324 499 l 239 0 l 15 -22 l 156 708 l 335 731 l 315 600 m 121 -67 q 208 -92 175 -67 q 242 -162 242 -117 q 206 -235 242 -210 q 115 -260 171 -260 q 28 -235 61 -260 q -6 -165 -6 -211 q 30 -92 -6 -118 q 121 -67 65 -67 z "},"s":{"ha":600,"x_min":-19,"x_max":613,"o":"m 356 142 q 326 210 356 182 q 226 286 296 239 q 114 381 150 336 q 78 489 78 425 q 122 617 78 561 q 241 705 165 674 q 410 736 317 736 q 556 705 500 736 q 613 603 613 674 q 576 514 613 546 q 479 482 539 482 q 421 497 439 482 q 440 588 440 549 q 422 645 440 625 q 369 665 403 665 q 297 635 325 665 q 268 567 268 606 q 298 497 268 526 q 399 421 328 468 q 510 328 474 371 q 546 218 546 285 q 503 91 546 147 q 387 3 461 35 q 221 -29 313 -29 q 52 6 124 -29 q -19 113 -19 42 q 21 194 -19 165 q 117 222 61 222 q 192 203 163 222 q 172 124 172 157 q 192 65 172 86 q 249 43 211 43 q 325 72 294 43 q 356 142 356 100 z "},"ś":{"ha":600,"x_min":-19,"x_max":628,"o":"m 0 0 m 356 142 q 326 210 356 182 q 226 286 296 239 q 114 381 150 336 q 78 489 78 425 q 122 617 78 561 q 241 705 165 674 q 410 736 317 736 q 556 705 500 736 q 613 603 613 674 q 576 514 613 546 q 479 482 539 482 q 421 497 439 482 q 440 588 440 549 q 422 645 440 625 q 369 665 403 665 q 297 635 325 665 q 268 567 268 606 q 298 497 268 526 q 399 421 328 468 q 510 328 474 371 q 546 218 546 285 q 503 91 546 147 q 387 3 461 35 q 221 -29 313 -29 q 52 6 124 -29 q -19 113 -19 42 q 21 194 -19 165 q 117 222 61 222 q 192 203 163 222 q 172 124 172 157 q 192 65 172 86 q 249 43 211 43 q 325 72 294 43 q 356 142 356 100 m 581 1074 q 616 1040 604 1064 q 628 989 628 1017 q 583 901 628 931 q 458 853 538 871 l 296 815 l 269 878 l 581 1074 z "},"š":{"ha":600,"x_min":-19,"x_max":660,"o":"m 0 0 m 356 142 q 326 210 356 182 q 226 286 296 239 q 114 381 150 336 q 78 489 78 425 q 122 617 78 561 q 241 705 165 674 q 410 736 317 736 q 556 705 500 736 q 613 603 613 674 q 576 514 613 546 q 479 482 539 482 q 421 497 439 482 q 440 588 440 549 q 422 645 440 625 q 369 665 403 665 q 297 635 325 665 q 268 567 268 606 q 298 497 268 526 q 399 421 328 468 q 510 328 474 371 q 546 218 546 285 q 503 91 546 147 q 387 3 461 35 q 221 -29 313 -29 q 52 6 124 -29 q -19 113 -19 42 q 21 194 -19 165 q 117 222 61 222 q 192 203 163 222 q 172 124 172 157 q 192 65 172 86 q 249 43 211 43 q 325 72 294 43 q 356 142 356 100 m 211 1001 l 274 1067 l 426 974 l 619 1067 l 660 1000 l 438 825 l 388 825 l 211 1001 z "},"ş":{"ha":600,"x_min":-19,"x_max":613,"o":"m 479 482 q 421 497 439 482 q 440 588 440 549 q 422 645 440 625 q 369 665 403 665 q 297 635 325 665 q 268 567 268 606 q 298 497 268 526 q 399 421 328 468 q 510 328 474 371 q 546 218 546 285 q 510 99 546 153 q 409 13 474 46 q 263 -28 344 -21 l 244 -86 l 296 -85 q 400 -111 360 -85 q 440 -193 440 -137 q 377 -310 440 -264 q 219 -356 314 -356 q 128 -337 163 -356 q 94 -285 94 -318 q 118 -229 94 -249 q 211 -271 144 -271 q 274 -256 249 -271 q 299 -208 299 -242 q 203 -154 299 -154 q 149 -157 185 -154 l 188 -28 q 40 13 100 -22 q -19 113 -19 49 q 21 194 -19 165 q 117 222 61 222 q 192 203 163 222 q 172 124 172 157 q 192 65 172 86 q 249 43 211 43 q 325 72 294 43 q 356 142 356 100 q 326 210 356 182 q 226 286 296 239 q 114 381 150 336 q 78 489 78 425 q 122 617 78 561 q 241 705 165 674 q 410 736 317 736 q 556 705 500 736 q 613 603 613 674 q 576 514 613 546 q 479 482 539 482 z "},"ŝ":{"ha":600,"x_min":-19,"x_max":649,"o":"m 0 0 m 356 142 q 326 210 356 182 q 226 286 296 239 q 114 381 150 336 q 78 489 78 425 q 122 617 78 561 q 241 705 165 674 q 410 736 317 736 q 556 705 500 736 q 613 603 613 674 q 576 514 613 546 q 479 482 539 482 q 421 497 439 482 q 440 588 440 549 q 422 645 440 625 q 369 665 403 665 q 297 635 325 665 q 268 567 268 606 q 298 497 268 526 q 399 421 328 468 q 510 328 474 371 q 546 218 546 285 q 503 91 546 147 q 387 3 461 35 q 221 -29 313 -29 q 52 6 124 -29 q -19 113 -19 42 q 21 194 -19 165 q 117 222 61 222 q 192 203 163 222 q 172 124 172 157 q 192 65 172 86 q 249 43 211 43 q 325 72 294 43 q 356 142 356 100 m 649 876 l 586 811 l 432 897 l 239 811 l 199 878 l 428 1039 l 464 1039 l 649 876 z "},"ș":{"ha":600,"x_min":-19,"x_max":613,"o":"m 0 0 m 356 142 q 326 210 356 182 q 226 286 296 239 q 114 381 150 336 q 78 489 78 425 q 122 617 78 561 q 241 705 165 674 q 410 736 317 736 q 556 705 500 736 q 613 603 613 674 q 576 514 613 546 q 479 482 539 482 q 421 497 439 482 q 440 588 440 549 q 422 645 440 625 q 369 665 403 665 q 297 635 325 665 q 268 567 268 606 q 298 497 268 526 q 399 421 328 468 q 510 328 474 371 q 546 218 546 285 q 503 91 546 147 q 387 3 461 35 q 221 -29 313 -29 q 52 6 124 -29 q -19 113 -19 42 q 21 194 -19 165 q 117 222 61 222 q 192 203 163 222 q 172 124 172 157 q 192 65 172 86 q 249 43 211 43 q 325 72 294 43 q 356 142 356 100 m 319 -156 q 289 -250 319 -207 q 211 -319 258 -293 q 121 -344 164 -344 q 74 -333 89 -344 q 135 -242 115 -283 q 156 -149 156 -201 q 144 -87 156 -114 q 181 -75 157 -81 q 224 -69 204 -69 q 293 -92 267 -69 q 319 -156 319 -115 z "},"ṣ":{"ha":600,"x_min":-19,"x_max":613,"o":"m 0 0 m 356 142 q 326 210 356 182 q 226 286 296 239 q 114 381 150 336 q 78 489 78 425 q 122 617 78 561 q 241 705 165 674 q 410 736 317 736 q 556 705 500 736 q 613 603 613 674 q 576 514 613 546 q 479 482 539 482 q 421 497 439 482 q 440 588 440 549 q 422 645 440 625 q 369 665 403 665 q 297 635 325 665 q 268 567 268 606 q 298 497 268 526 q 399 421 328 468 q 510 328 474 371 q 546 218 546 285 q 503 91 546 147 q 387 3 461 35 q 221 -29 313 -29 q 52 6 124 -29 q -19 113 -19 42 q 21 194 -19 165 q 117 222 61 222 q 192 203 163 222 q 172 124 172 157 q 192 65 172 86 q 249 43 211 43 q 325 72 294 43 q 356 142 356 100 m 219 -67 q 307 -92 274 -67 q 340 -162 340 -117 q 305 -235 340 -210 q 214 -260 269 -260 q 126 -235 160 -260 q 93 -165 93 -211 q 128 -92 93 -118 q 219 -67 164 -67 z "},"ß":{"ha":947,"x_min":-143,"x_max":924,"o":"m 156 753 q 504 1000 204 1000 q 713 956 631 1000 q 796 824 796 913 q 770 735 796 771 q 697 660 744 700 q 643 607 660 628 q 626 558 626 586 q 652 498 626 522 q 731 444 678 474 l 756 429 q 843 371 810 397 q 900 307 876 344 q 924 219 924 269 q 876 92 924 149 q 751 3 828 35 q 592 -29 675 -29 q 429 9 500 -29 q 358 119 358 47 q 398 203 358 172 q 494 233 438 233 q 569 214 540 233 q 550 115 550 164 q 619 40 550 40 q 694 67 663 40 q 725 136 725 93 q 694 213 725 179 q 597 296 663 247 l 574 314 q 500 371 526 349 q 456 425 474 393 q 438 499 438 457 q 457 570 438 539 q 517 646 476 601 q 584 733 561 694 q 607 825 607 771 q 583 908 607 876 q 511 939 560 939 q 422 894 457 939 q 369 753 388 850 l 232 68 q 143 -162 203 -83 q -17 -242 83 -242 q -94 -225 -62 -242 q -143 -174 -125 -208 q -47 -99 -86 -162 q 11 56 -8 -35 l 156 753 z "},"ſ":{"ha":411,"x_min":-7,"x_max":688,"o":"m 154 788 q 468 1000 199 1000 q 624 974 560 1000 q 688 886 688 947 q 652 815 688 840 q 565 790 617 790 q 496 806 522 790 q 515 883 515 842 q 465 939 515 939 q 399 903 422 939 q 364 803 375 867 l 217 0 l -7 -22 l 154 788 z "},"t":{"ha":436,"x_min":65,"x_max":499,"o":"m 390 708 l 499 708 l 486 646 l 378 646 l 286 176 q 279 118 279 139 q 292 75 279 92 q 332 57 306 58 q 281 -6 319 15 q 192 -28 242 -28 q 99 3 133 -28 q 65 92 65 33 q 88 257 65 144 q 114 390 110 369 l 125 443 l 164 646 l 74 646 l 79 688 q 365 853 231 738 l 421 853 l 390 708 z "},"ŧ":{"ha":436,"x_min":-4,"x_max":499,"o":"m 490 471 q 496 435 496 451 q 472 378 496 400 q 403 357 449 357 l 321 357 l 286 176 q 279 118 279 139 q 292 75 279 92 q 332 57 306 58 q 281 -6 319 15 q 192 -28 242 -28 q 99 3 133 -28 q 65 92 65 33 q 107 357 65 146 l -1 357 q -4 393 -4 369 q 19 450 -3 429 q 79 471 42 471 l 131 471 l 164 646 l 74 646 l 79 688 q 365 853 231 738 l 421 853 l 390 708 l 499 708 l 486 646 l 378 646 l 343 471 l 490 471 z "},"ť":{"ha":436,"x_min":65,"x_max":650,"o":"m 489 982 q 524 994 501 989 q 565 1000 546 1000 q 626 975 603 1000 q 650 904 650 950 q 626 825 650 864 q 561 761 601 786 q 476 736 521 736 q 431 744 458 736 q 484 829 468 789 q 500 915 500 869 q 489 982 500 957 m 390 708 l 499 708 l 486 646 l 378 646 l 286 176 q 279 118 279 139 q 292 75 279 92 q 332 57 306 58 q 281 -6 319 15 q 192 -28 242 -28 q 99 3 133 -28 q 65 92 65 33 q 88 257 65 144 q 114 390 110 369 l 125 443 l 164 646 l 74 646 l 79 688 q 365 853 231 738 l 421 853 l 390 708 z "},"ţ":{"ha":436,"x_min":38,"x_max":499,"o":"m 286 176 q 279 118 279 139 q 292 75 279 92 q 332 57 306 58 q 286 -3 321 18 q 206 -28 251 -25 l 188 -86 l 239 -85 q 343 -111 303 -85 q 383 -193 383 -137 q 320 -310 383 -264 q 163 -356 257 -356 q 72 -337 106 -356 q 38 -285 38 -318 q 61 -229 38 -249 q 154 -271 88 -271 q 217 -256 192 -271 q 242 -208 242 -242 q 146 -154 242 -154 q 92 -157 128 -154 l 133 -18 q 65 92 65 8 q 88 257 65 144 q 114 390 110 369 l 125 443 l 164 646 l 74 646 l 79 688 q 365 853 231 738 l 421 853 l 390 708 l 499 708 l 486 646 l 378 646 l 286 176 z "},"ț":{"ha":436,"x_min":17,"x_max":499,"o":"m 17 0 m 390 708 l 499 708 l 486 646 l 378 646 l 286 176 q 279 118 279 139 q 292 75 279 92 q 332 57 306 58 q 281 -6 319 15 q 192 -28 242 -28 q 99 3 133 -28 q 65 92 65 33 q 88 257 65 144 q 114 390 110 369 l 125 443 l 164 646 l 74 646 l 79 688 q 365 853 231 738 l 421 853 l 390 708 m 263 -156 q 232 -250 263 -207 q 154 -319 201 -293 q 64 -344 107 -344 q 17 -333 32 -344 q 78 -242 58 -283 q 99 -149 99 -201 q 88 -87 99 -114 q 124 -75 100 -81 q 167 -69 147 -69 q 236 -92 210 -69 q 263 -156 263 -115 z "},"ṭ":{"ha":436,"x_min":36,"x_max":499,"o":"m 36 0 m 390 708 l 499 708 l 486 646 l 378 646 l 286 176 q 279 118 279 139 q 292 75 279 92 q 332 57 306 58 q 281 -6 319 15 q 192 -28 242 -28 q 99 3 133 -28 q 65 92 65 33 q 88 257 65 144 q 114 390 110 369 l 125 443 l 164 646 l 74 646 l 79 688 q 365 853 231 738 l 421 853 l 390 708 m 163 -67 q 250 -92 217 -67 q 283 -162 283 -117 q 248 -235 283 -210 q 157 -260 213 -260 q 69 -235 103 -260 q 36 -165 36 -211 q 72 -92 36 -118 q 163 -67 107 -67 z "},"u":{"ha":790,"x_min":44,"x_max":764,"o":"m 657 176 q 650 118 650 135 q 663 75 650 92 q 704 57 676 58 q 652 -6 692 15 q 565 -28 613 -28 q 490 -8 521 -28 q 449 51 458 13 q 242 -28 383 -28 q 94 19 144 -28 q 44 158 44 65 q 82 410 44 231 l 143 708 l 358 731 l 285 392 q 250 157 250 225 q 321 58 250 58 q 414 117 379 58 q 464 257 449 175 l 547 708 l 764 731 l 657 176 z "},"ú":{"ha":790,"x_min":44,"x_max":764,"o":"m 44 0 m 657 176 q 650 118 650 135 q 663 75 650 92 q 704 57 676 58 q 652 -6 692 15 q 565 -28 613 -28 q 490 -8 521 -28 q 449 51 458 13 q 242 -28 383 -28 q 94 19 144 -28 q 44 158 44 65 q 82 410 44 231 l 143 708 l 358 731 l 285 392 q 250 157 250 225 q 321 58 250 58 q 414 117 379 58 q 464 257 449 175 l 547 708 l 764 731 l 657 176 m 649 1074 q 684 1040 672 1064 q 696 989 696 1017 q 651 901 696 931 q 526 853 606 871 l 364 815 l 338 878 l 649 1074 z "},"ŭ":{"ha":790,"x_min":44,"x_max":764,"o":"m 44 0 m 657 176 q 650 118 650 135 q 663 75 650 92 q 704 57 676 58 q 652 -6 692 15 q 565 -28 613 -28 q 490 -8 521 -28 q 449 51 458 13 q 242 -28 383 -28 q 94 19 144 -28 q 44 158 44 65 q 82 410 44 231 l 143 708 l 358 731 l 285 392 q 250 157 250 225 q 321 58 250 58 q 414 117 379 58 q 464 257 449 175 l 547 708 l 764 731 l 657 176 m 442 1024 q 436 983 436 997 q 447 917 436 942 q 493 893 458 893 q 566 932 539 893 q 603 1024 593 971 l 758 1024 q 669 879 740 933 q 479 825 599 825 q 326 869 379 825 q 274 986 274 914 q 278 1024 274 1003 l 442 1024 z "},"û":{"ha":790,"x_min":44,"x_max":764,"o":"m 44 0 m 657 176 q 650 118 650 135 q 663 75 650 92 q 704 57 676 58 q 652 -6 692 15 q 565 -28 613 -28 q 490 -8 521 -28 q 449 51 458 13 q 242 -28 383 -28 q 94 19 144 -28 q 44 158 44 65 q 82 410 44 231 l 143 708 l 358 731 l 285 392 q 250 157 250 225 q 321 58 250 58 q 414 117 379 58 q 464 257 449 175 l 547 708 l 764 731 l 657 176 m 717 876 l 654 811 l 500 897 l 307 811 l 267 878 l 496 1039 l 532 1039 l 717 876 z "},"ü":{"ha":790,"x_min":44,"x_max":781,"o":"m 44 0 m 657 176 q 650 118 650 135 q 663 75 650 92 q 704 57 676 58 q 652 -6 692 15 q 565 -28 613 -28 q 490 -8 521 -28 q 449 51 458 13 q 242 -28 383 -28 q 94 19 144 -28 q 44 158 44 65 q 82 410 44 231 l 143 708 l 358 731 l 285 392 q 250 157 250 225 q 321 58 250 58 q 414 117 379 58 q 464 257 449 175 l 547 708 l 764 731 l 657 176 m 657 1024 q 747 998 713 1024 q 781 925 781 972 q 745 851 781 876 q 653 825 710 825 q 563 850 597 825 q 528 922 528 875 q 564 997 528 971 q 657 1024 600 1024 m 347 1024 q 437 998 403 1024 q 471 925 471 972 q 435 851 471 876 q 343 825 400 825 q 253 850 288 825 q 218 922 218 875 q 254 997 218 971 q 347 1024 290 1024 z "},"ụ":{"ha":790,"x_min":44,"x_max":764,"o":"m 44 0 m 657 176 q 650 118 650 135 q 663 75 650 92 q 704 57 676 58 q 652 -6 692 15 q 565 -28 613 -28 q 490 -8 521 -28 q 449 51 458 13 q 242 -28 383 -28 q 94 19 144 -28 q 44 158 44 65 q 82 410 44 231 l 143 708 l 358 731 l 285 392 q 250 157 250 225 q 321 58 250 58 q 414 117 379 58 q 464 257 449 175 l 547 708 l 764 731 l 657 176 m 296 -67 q 383 -92 350 -67 q 417 -162 417 -117 q 381 -235 417 -210 q 290 -260 346 -260 q 203 -235 236 -260 q 169 -165 169 -211 q 205 -92 169 -118 q 296 -67 240 -67 z "},"ù":{"ha":790,"x_min":44,"x_max":764,"o":"m 44 0 m 657 176 q 650 118 650 135 q 663 75 650 92 q 704 57 676 58 q 652 -6 692 15 q 565 -28 613 -28 q 490 -8 521 -28 q 449 51 458 13 q 242 -28 383 -28 q 94 19 144 -28 q 44 158 44 65 q 82 410 44 231 l 143 708 l 358 731 l 285 392 q 250 157 250 225 q 321 58 250 58 q 414 117 379 58 q 464 257 449 175 l 547 708 l 764 731 l 657 176 m 410 853 q 286 901 331 871 q 242 989 242 931 q 253 1041 242 1018 q 289 1074 264 1064 l 599 878 l 572 815 l 410 853 z "},"ű":{"ha":790,"x_min":44,"x_max":836,"o":"m 44 0 m 657 176 q 650 118 650 135 q 663 75 650 92 q 704 57 676 58 q 652 -6 692 15 q 565 -28 613 -28 q 490 -8 521 -28 q 449 51 458 13 q 242 -28 383 -28 q 94 19 144 -28 q 44 158 44 65 q 82 410 44 231 l 143 708 l 358 731 l 285 392 q 250 157 250 225 q 321 58 250 58 q 414 117 379 58 q 464 257 449 175 l 547 708 l 764 731 l 657 176 m 479 1083 q 541 1049 517 1075 q 565 990 565 1024 q 533 903 565 944 q 449 832 501 861 l 335 761 l 275 800 l 479 1083 m 751 1083 q 813 1049 789 1075 q 836 990 836 1024 q 804 903 836 944 q 719 832 772 861 l 606 761 l 547 800 l 751 1083 z "},"ū":{"ha":790,"x_min":44,"x_max":764,"o":"m 44 0 m 657 176 q 650 118 650 135 q 663 75 650 92 q 704 57 676 58 q 652 -6 692 15 q 565 -28 613 -28 q 490 -8 521 -28 q 449 51 458 13 q 242 -28 383 -28 q 94 19 144 -28 q 44 158 44 65 q 82 410 44 231 l 143 708 l 358 731 l 285 392 q 250 157 250 225 q 321 58 250 58 q 414 117 379 58 q 464 257 449 175 l 547 708 l 764 731 l 657 176 m 713 979 q 717 943 717 965 q 691 882 717 906 q 617 858 665 858 l 308 858 q 304 894 304 871 q 330 956 306 933 q 394 979 354 979 l 713 979 z "},"ų":{"ha":790,"x_min":44,"x_max":764,"o":"m 619 -257 q 699 -222 672 -257 q 717 -247 711 -235 q 722 -275 722 -258 q 686 -335 722 -311 q 589 -358 650 -358 q 464 -319 510 -358 q 418 -206 418 -279 q 519 -21 418 -96 q 474 5 493 -14 q 449 51 454 24 q 242 -28 383 -28 q 94 19 144 -28 q 44 158 44 65 q 82 410 44 231 l 143 708 l 358 731 l 285 392 q 250 157 250 225 q 321 58 250 58 q 414 117 379 58 q 464 257 449 175 l 547 708 l 764 731 l 657 176 q 650 118 650 135 q 663 75 650 92 q 704 57 676 58 q 640 -11 690 10 q 572 -92 597 -47 q 546 -181 546 -136 q 563 -239 546 -221 q 619 -257 581 -257 z "},"ů":{"ha":790,"x_min":44,"x_max":764,"o":"m 44 0 m 657 176 q 650 118 650 135 q 663 75 650 92 q 704 57 676 58 q 652 -6 692 15 q 565 -28 613 -28 q 490 -8 521 -28 q 449 51 458 13 q 242 -28 383 -28 q 94 19 144 -28 q 44 158 44 65 q 82 410 44 231 l 143 708 l 358 731 l 285 392 q 250 157 250 225 q 321 58 250 58 q 414 117 379 58 q 464 257 449 175 l 547 708 l 764 731 l 657 176 m 463 789 q 369 817 403 789 q 336 900 336 846 q 390 1013 336 971 q 519 1056 443 1056 q 613 1027 579 1056 q 646 944 646 999 q 592 831 646 874 q 463 789 539 789 m 475 838 q 532 868 508 838 q 556 939 556 899 q 542 985 556 968 q 503 1003 528 1003 q 449 973 469 1003 q 428 900 428 943 q 440 854 428 871 q 475 838 451 838 z "},"ũ":{"ha":790,"x_min":44,"x_max":764,"o":"m 44 0 m 657 176 q 650 118 650 135 q 663 75 650 92 q 704 57 676 58 q 652 -6 692 15 q 565 -28 613 -28 q 490 -8 521 -28 q 449 51 458 13 q 242 -28 383 -28 q 94 19 144 -28 q 44 158 44 65 q 82 410 44 231 l 143 708 l 358 731 l 285 392 q 250 157 250 225 q 321 58 250 58 q 414 117 379 58 q 464 257 449 175 l 547 708 l 764 731 l 657 176 m 714 1006 q 738 942 738 976 q 706 873 738 897 q 618 849 674 849 q 546 854 593 849 q 482 861 499 860 q 361 872 388 872 q 311 866 335 872 q 275 850 288 860 q 250 921 250 886 q 282 983 250 961 q 374 1006 314 1006 q 451 1000 403 1006 q 514 993 499 994 q 638 982 608 982 q 714 1006 692 982 z "},"v":{"ha":690,"x_min":26,"x_max":706,"o":"m 119 -22 q 83 556 110 382 q 62 648 74 619 q 26 692 50 676 q 150 736 72 736 q 261 694 229 736 q 301 556 293 651 q 307 307 307 472 q 306 104 307 189 q 443 344 386 197 q 500 613 500 492 q 490 692 500 653 q 540 724 510 713 q 606 736 569 736 q 706 633 706 736 q 656 440 706 553 q 539 232 607 326 q 438 110 496 174 q 318 0 379 46 l 119 -22 z "},"w":{"ha":1064,"x_min":26,"x_max":1079,"o":"m 119 -22 q 83 556 110 382 q 62 648 74 619 q 26 692 50 676 q 151 736 72 736 q 263 693 232 736 q 301 556 294 650 q 307 326 307 467 l 306 104 q 433 340 383 192 q 483 611 483 488 q 474 692 483 653 q 585 736 515 736 q 666 698 646 736 q 692 581 686 660 q 699 311 699 476 l 697 151 q 696 104 696 136 q 824 339 775 192 q 874 611 874 486 q 864 692 874 653 q 913 724 883 713 q 979 736 943 736 q 1079 633 1079 736 q 1031 440 1079 553 q 913 232 982 328 q 699 0 800 82 l 529 -21 q 522 254 526 158 q 427 113 485 179 q 303 0 369 47 l 119 -22 z "},"ẃ":{"ha":1064,"x_min":26,"x_max":1079,"o":"m 26 0 m 119 -22 q 83 556 110 382 q 62 648 74 619 q 26 692 50 676 q 151 736 72 736 q 263 693 232 736 q 301 556 294 650 q 307 326 307 467 l 306 104 q 433 340 383 192 q 483 611 483 488 q 474 692 483 653 q 585 736 515 736 q 666 698 646 736 q 692 581 686 660 q 699 311 699 476 l 697 151 q 696 104 696 136 q 824 339 775 192 q 874 611 874 486 q 864 692 874 653 q 913 724 883 713 q 979 736 943 736 q 1079 633 1079 736 q 1031 440 1079 553 q 913 232 982 328 q 699 0 800 82 l 529 -21 q 522 254 526 158 q 427 113 485 179 q 303 0 369 47 l 119 -22 m 776 1074 q 812 1040 800 1064 q 824 989 824 1017 q 778 901 824 931 q 654 853 733 871 l 492 815 l 465 878 l 776 1074 z "},"ŵ":{"ha":1064,"x_min":26,"x_max":1079,"o":"m 26 0 m 119 -22 q 83 556 110 382 q 62 648 74 619 q 26 692 50 676 q 151 736 72 736 q 263 693 232 736 q 301 556 294 650 q 307 326 307 467 l 306 104 q 433 340 383 192 q 483 611 483 488 q 474 692 483 653 q 585 736 515 736 q 666 698 646 736 q 692 581 686 660 q 699 311 699 476 l 697 151 q 696 104 696 136 q 824 339 775 192 q 874 611 874 486 q 864 692 874 653 q 913 724 883 713 q 979 736 943 736 q 1079 633 1079 736 q 1031 440 1079 553 q 913 232 982 328 q 699 0 800 82 l 529 -21 q 522 254 526 158 q 427 113 485 179 q 303 0 369 47 l 119 -22 m 844 876 l 782 811 l 628 897 l 435 811 l 394 878 l 624 1039 l 660 1039 l 844 876 z "},"ẅ":{"ha":1064,"x_min":26,"x_max":1079,"o":"m 26 0 m 119 -22 q 83 556 110 382 q 62 648 74 619 q 26 692 50 676 q 151 736 72 736 q 263 693 232 736 q 301 556 294 650 q 307 326 307 467 l 306 104 q 433 340 383 192 q 483 611 483 488 q 474 692 483 653 q 585 736 515 736 q 666 698 646 736 q 692 581 686 660 q 699 311 699 476 l 697 151 q 696 104 696 136 q 824 339 775 192 q 874 611 874 486 q 864 692 874 653 q 913 724 883 713 q 979 736 943 736 q 1079 633 1079 736 q 1031 440 1079 553 q 913 232 982 328 q 699 0 800 82 l 529 -21 q 522 254 526 158 q 427 113 485 179 q 303 0 369 47 l 119 -22 m 785 1024 q 874 998 840 1024 q 908 925 908 972 q 873 851 908 876 q 781 825 838 825 q 690 850 725 825 q 656 922 656 875 q 692 997 656 971 q 785 1024 728 1024 m 475 1024 q 565 998 531 1024 q 599 925 599 972 q 563 851 599 876 q 471 825 528 825 q 381 850 415 825 q 346 922 346 875 q 382 997 346 971 q 475 1024 418 1024 z "},"ẁ":{"ha":1064,"x_min":26,"x_max":1079,"o":"m 26 0 m 119 -22 q 83 556 110 382 q 62 648 74 619 q 26 692 50 676 q 151 736 72 736 q 263 693 232 736 q 301 556 294 650 q 307 326 307 467 l 306 104 q 433 340 383 192 q 483 611 483 488 q 474 692 483 653 q 585 736 515 736 q 666 698 646 736 q 692 581 686 660 q 699 311 699 476 l 697 151 q 696 104 696 136 q 824 339 775 192 q 874 611 874 486 q 864 692 874 653 q 913 724 883 713 q 979 736 943 736 q 1079 633 1079 736 q 1031 440 1079 553 q 913 232 982 328 q 699 0 800 82 l 529 -21 q 522 254 526 158 q 427 113 485 179 q 303 0 369 47 l 119 -22 m 538 853 q 414 901 458 871 q 369 989 369 931 q 381 1041 369 1018 q 417 1074 392 1064 l 726 878 l 700 815 l 538 853 z "},"x":{"ha":656,"x_min":-32,"x_max":682,"o":"m 143 550 q 104 614 126 590 q 46 642 82 638 q 94 712 56 688 q 183 736 132 736 q 278 701 243 736 q 343 597 314 667 l 407 446 q 493 604 493 507 q 465 704 493 657 q 572 736 511 736 q 654 708 626 736 q 682 628 682 679 q 635 503 682 558 q 504 399 588 447 l 439 364 l 519 158 q 617 67 551 74 q 568 -3 606 22 q 478 -28 531 -28 q 382 8 418 -28 q 318 111 346 43 l 254 275 q 184 199 210 243 q 158 104 158 154 q 186 6 158 53 q 79 -28 142 -28 q -3 1 25 -28 q -32 82 -32 31 q 164 328 -32 217 l 221 357 l 143 550 z "},"y":{"ha":660,"x_min":28,"x_max":692,"o":"m 64 -167 q 201 36 64 -68 l 113 33 l 110 111 q 99 379 104 285 q 85 556 94 474 q 65 647 78 617 q 28 692 53 676 q 153 736 76 736 q 263 694 232 736 q 299 556 293 651 q 301 408 301 494 l 301 307 l 300 144 q 435 377 385 256 q 486 613 486 499 q 476 692 486 660 q 527 724 497 713 q 592 736 557 736 q 692 633 692 736 q 595 362 692 518 q 364 78 499 206 q 288 -10 311 28 q 264 -101 264 -47 q 279 -167 264 -133 q 317 -225 294 -201 q 254 -265 292 -251 q 175 -278 217 -278 q 93 -249 122 -278 q 64 -167 64 -219 z "},"ý":{"ha":660,"x_min":28,"x_max":692,"o":"m 28 0 m 64 -167 q 201 36 64 -68 l 113 33 l 110 111 q 99 379 104 285 q 85 556 94 474 q 65 647 78 617 q 28 692 53 676 q 153 736 76 736 q 263 694 232 736 q 299 556 293 651 q 301 408 301 494 l 301 307 l 300 144 q 435 377 385 256 q 486 613 486 499 q 476 692 486 660 q 527 724 497 713 q 592 736 557 736 q 692 633 692 736 q 595 362 692 518 q 364 78 499 206 q 288 -10 311 28 q 264 -101 264 -47 q 279 -167 264 -133 q 317 -225 294 -201 q 254 -265 292 -251 q 175 -278 217 -278 q 93 -249 122 -278 q 64 -167 64 -219 m 581 1074 q 616 1040 604 1064 q 628 989 628 1017 q 583 901 628 931 q 458 853 538 871 l 296 815 l 269 878 l 581 1074 z "},"ŷ":{"ha":660,"x_min":28,"x_max":692,"o":"m 28 0 m 64 -167 q 201 36 64 -68 l 113 33 l 110 111 q 99 379 104 285 q 85 556 94 474 q 65 647 78 617 q 28 692 53 676 q 153 736 76 736 q 263 694 232 736 q 299 556 293 651 q 301 408 301 494 l 301 307 l 300 144 q 435 377 385 256 q 486 613 486 499 q 476 692 486 660 q 527 724 497 713 q 592 736 557 736 q 692 633 692 736 q 595 362 692 518 q 364 78 499 206 q 288 -10 311 28 q 264 -101 264 -47 q 279 -167 264 -133 q 317 -225 294 -201 q 254 -265 292 -251 q 175 -278 217 -278 q 93 -249 122 -278 q 64 -167 64 -219 m 649 876 l 586 811 l 432 897 l 239 811 l 199 878 l 428 1039 l 464 1039 l 649 876 z "},"ÿ":{"ha":660,"x_min":28,"x_max":713,"o":"m 28 0 m 64 -167 q 201 36 64 -68 l 113 33 l 110 111 q 99 379 104 285 q 85 556 94 474 q 65 647 78 617 q 28 692 53 676 q 153 736 76 736 q 263 694 232 736 q 299 556 293 651 q 301 408 301 494 l 301 307 l 300 144 q 435 377 385 256 q 486 613 486 499 q 476 692 486 660 q 527 724 497 713 q 592 736 557 736 q 692 633 692 736 q 595 362 692 518 q 364 78 499 206 q 288 -10 311 28 q 264 -101 264 -47 q 279 -167 264 -133 q 317 -225 294 -201 q 254 -265 292 -251 q 175 -278 217 -278 q 93 -249 122 -278 q 64 -167 64 -219 m 589 1024 q 678 998 644 1024 q 713 925 713 972 q 677 851 713 876 q 585 825 642 825 q 494 850 529 825 q 460 922 460 875 q 496 997 460 971 q 589 1024 532 1024 m 279 1024 q 369 998 335 1024 q 403 925 403 972 q 367 851 403 876 q 275 825 332 825 q 185 850 219 825 q 150 922 150 875 q 186 997 150 971 q 279 1024 222 1024 z "},"ỳ":{"ha":660,"x_min":28,"x_max":692,"o":"m 28 0 m 64 -167 q 201 36 64 -68 l 113 33 l 110 111 q 99 379 104 285 q 85 556 94 474 q 65 647 78 617 q 28 692 53 676 q 153 736 76 736 q 263 694 232 736 q 299 556 293 651 q 301 408 301 494 l 301 307 l 300 144 q 435 377 385 256 q 486 613 486 499 q 476 692 486 660 q 527 724 497 713 q 592 736 557 736 q 692 633 692 736 q 595 362 692 518 q 364 78 499 206 q 288 -10 311 28 q 264 -101 264 -47 q 279 -167 264 -133 q 317 -225 294 -201 q 254 -265 292 -251 q 175 -278 217 -278 q 93 -249 122 -278 q 64 -167 64 -219 m 342 853 q 218 901 263 871 q 174 989 174 931 q 185 1041 174 1018 q 221 1074 196 1064 l 531 878 l 504 815 l 342 853 z "},"ỹ":{"ha":660,"x_min":28,"x_max":692,"o":"m 28 0 m 64 -167 q 201 36 64 -68 l 113 33 l 110 111 q 99 379 104 285 q 85 556 94 474 q 65 647 78 617 q 28 692 53 676 q 153 736 76 736 q 263 694 232 736 q 299 556 293 651 q 301 408 301 494 l 301 307 l 300 144 q 435 377 385 256 q 486 613 486 499 q 476 692 486 660 q 527 724 497 713 q 592 736 557 736 q 692 633 692 736 q 595 362 692 518 q 364 78 499 206 q 288 -10 311 28 q 264 -101 264 -47 q 279 -167 264 -133 q 317 -225 294 -201 q 254 -265 292 -251 q 175 -278 217 -278 q 93 -249 122 -278 q 64 -167 64 -219 m 646 1006 q 669 942 669 976 q 638 873 669 897 q 550 849 606 849 q 478 854 525 849 q 414 861 431 860 q 293 872 319 872 q 243 866 267 872 q 207 850 219 860 q 182 921 182 886 q 214 983 182 961 q 306 1006 246 1006 q 383 1000 335 1006 q 446 993 431 994 q 569 982 540 982 q 646 1006 624 982 z "},"z":{"ha":589,"x_min":-15,"x_max":615,"o":"m 408 538 q 309 554 365 547 q 217 561 253 561 q 147 549 175 561 q 100 513 118 538 q 74 561 83 532 q 64 619 64 590 q 106 708 64 681 q 218 736 149 736 q 367 719 264 736 q 508 703 467 703 q 585 717 558 703 q 615 644 615 688 q 551 525 615 579 l 190 183 q 292 165 233 172 q 388 157 350 157 q 461 168 426 157 q 518 203 496 179 q 550 108 550 167 q 505 8 550 40 q 385 -25 460 -25 q 242 -6 336 -25 q 188 4 232 -4 q 108 13 144 13 q 26 -3 61 13 q -3 33 8 10 q -15 85 -15 56 q 53 218 -15 156 l 408 538 z "},"ź":{"ha":589,"x_min":-15,"x_max":615,"o":"m 0 0 m 408 538 q 309 554 365 547 q 217 561 253 561 q 147 549 175 561 q 100 513 118 538 q 74 561 83 532 q 64 619 64 590 q 106 708 64 681 q 218 736 149 736 q 367 719 264 736 q 508 703 467 703 q 585 717 558 703 q 615 644 615 688 q 551 525 615 579 l 190 183 q 292 165 233 172 q 388 157 350 157 q 461 168 426 157 q 518 203 496 179 q 550 108 550 167 q 505 8 550 40 q 385 -25 460 -25 q 242 -6 336 -25 q 188 4 232 -4 q 108 13 144 13 q 26 -3 61 13 q -3 33 8 10 q -15 85 -15 56 q 53 218 -15 156 l 408 538 m 554 1074 q 590 1040 578 1064 q 601 989 601 1017 q 556 901 601 931 q 432 853 511 871 l 269 815 l 243 878 l 554 1074 z "},"ž":{"ha":589,"x_min":-15,"x_max":633,"o":"m 0 0 m 408 538 q 309 554 365 547 q 217 561 253 561 q 147 549 175 561 q 100 513 118 538 q 74 561 83 532 q 64 619 64 590 q 106 708 64 681 q 218 736 149 736 q 367 719 264 736 q 508 703 467 703 q 585 717 558 703 q 615 644 615 688 q 551 525 615 579 l 190 183 q 292 165 233 172 q 388 157 350 157 q 461 168 426 157 q 518 203 496 179 q 550 108 550 167 q 505 8 550 40 q 385 -25 460 -25 q 242 -6 336 -25 q 188 4 232 -4 q 108 13 144 13 q 26 -3 61 13 q -3 33 8 10 q -15 85 -15 56 q 53 218 -15 156 l 408 538 m 185 1001 l 247 1067 l 400 974 l 593 1067 l 633 1000 l 411 825 l 361 825 l 185 1001 z "},"ż":{"ha":589,"x_min":-15,"x_max":615,"o":"m 0 0 m 408 538 q 309 554 365 547 q 217 561 253 561 q 147 549 175 561 q 100 513 118 538 q 74 561 83 532 q 64 619 64 590 q 106 708 64 681 q 218 736 149 736 q 367 719 264 736 q 508 703 467 703 q 585 717 558 703 q 615 644 615 688 q 551 525 615 579 l 190 183 q 292 165 233 172 q 388 157 350 157 q 461 168 426 157 q 518 203 496 179 q 550 108 550 167 q 505 8 550 40 q 385 -25 460 -25 q 242 -6 336 -25 q 188 4 232 -4 q 108 13 144 13 q 26 -3 61 13 q -3 33 8 10 q -15 85 -15 56 q 53 218 -15 156 l 408 538 m 399 1024 q 488 998 454 1024 q 522 925 522 972 q 487 851 522 876 q 394 825 451 825 q 304 850 339 825 q 269 922 269 875 q 306 997 269 971 q 399 1024 342 1024 z "},"ẓ":{"ha":589,"x_min":-15,"x_max":615,"o":"m 0 0 m 408 538 q 309 554 365 547 q 217 561 253 561 q 147 549 175 561 q 100 513 118 538 q 74 561 83 532 q 64 619 64 590 q 106 708 64 681 q 218 736 149 736 q 367 719 264 736 q 508 703 467 703 q 585 717 558 703 q 615 644 615 688 q 551 525 615 579 l 190 183 q 292 165 233 172 q 388 157 350 157 q 461 168 426 157 q 518 203 496 179 q 550 108 550 167 q 505 8 550 40 q 385 -25 460 -25 q 242 -6 336 -25 q 188 4 232 -4 q 108 13 144 13 q 26 -3 61 13 q -3 33 8 10 q -15 85 -15 56 q 53 218 -15 156 l 408 538 m 243 -67 q 331 -92 297 -67 q 364 -162 364 -117 q 328 -235 364 -210 q 238 -260 293 -260 q 150 -235 183 -260 q 117 -165 117 -211 q 152 -92 117 -118 q 243 -67 188 -67 z "},"ﬁ":{"ha":832,"x_min":18,"x_max":846,"o":"m 699 176 q 692 118 692 139 q 705 75 692 92 q 746 57 718 58 q 694 -6 733 15 q 604 -28 654 -28 q 513 3 547 -28 q 478 90 478 35 q 492 206 478 126 q 517 339 506 285 l 578 646 l 360 646 l 239 0 l 18 -22 l 149 646 l 50 646 l 63 708 l 161 708 l 183 789 q 308 956 218 911 q 553 1000 399 1000 q 846 878 846 1000 q 805 808 846 831 q 708 786 764 786 q 646 794 674 786 q 604 817 618 803 q 622 874 622 843 q 597 922 622 906 q 532 938 572 938 q 440 905 474 938 q 392 806 406 872 l 372 708 l 804 708 l 699 176 z "},"ﬂ":{"ha":835,"x_min":18,"x_max":863,"o":"m 621 854 q 625 874 622 864 q 628 894 628 885 q 601 925 628 913 q 533 938 574 938 q 440 905 474 938 q 392 806 406 872 l 372 708 l 483 708 l 472 646 l 360 646 l 239 0 l 18 -22 l 149 646 l 50 646 l 63 708 l 161 708 l 183 789 q 306 953 217 907 q 540 1000 396 1000 q 711 975 646 1000 l 863 994 l 701 176 q 694 118 694 139 q 708 75 694 92 q 749 57 721 58 q 697 -6 736 15 q 607 -28 657 -28 q 515 3 550 -28 q 481 90 481 35 q 494 206 481 126 q 519 339 508 285 l 621 854 z "},"ª":{"ha":629,"x_min":64,"x_max":619,"o":"m 544 536 q 539 497 539 514 q 549 463 539 476 q 575 450 558 450 q 538 406 568 424 q 474 389 508 389 q 417 406 442 389 q 388 447 393 422 q 332 405 368 421 q 253 389 296 389 q 131 444 174 389 q 89 597 89 499 q 124 765 89 688 q 224 889 158 842 q 379 936 290 936 q 479 917 429 936 l 619 932 l 544 536 m 383 869 q 271 715 310 869 q 249 543 249 624 q 300 458 249 458 q 360 496 336 458 q 394 592 385 533 l 443 849 q 383 869 415 869 m 526 325 q 529 293 529 303 q 509 242 529 261 q 451 222 489 222 l 68 222 q 64 253 64 239 q 84 305 64 285 q 133 325 104 325 l 526 325 z "},"º":{"ha":628,"x_min":54,"x_max":604,"o":"m 604 728 q 568 559 604 636 q 462 435 532 482 q 294 389 392 389 q 149 439 196 389 q 101 592 101 489 q 135 759 101 681 q 237 887 168 838 q 406 936 306 936 q 553 886 501 936 q 604 728 604 836 m 313 458 q 381 511 351 458 q 427 640 411 564 q 443 779 443 715 q 433 844 443 822 q 396 867 422 867 q 324 813 354 867 q 279 685 294 760 q 264 551 264 611 q 276 481 264 504 q 313 458 288 458 m 58 222 q 56 237 57 228 q 54 254 54 246 q 74 305 54 285 q 124 325 94 325 l 503 325 q 507 294 507 311 q 487 242 507 263 q 429 222 467 222 l 58 222 z "},"Δ":{"ha":803,"x_min":-94,"x_max":757,"o":"m 631 917 q 746 75 650 676 l 757 0 l -94 0 l 372 917 l 631 917 m 438 751 q 125 101 261 399 l 521 101 l 438 711 l 438 751 z "},"Ω":{"ha":911,"x_min":6,"x_max":875,"o":"m 443 143 q 604 400 549 190 q 633 541 622 467 q 644 675 644 615 q 533 847 644 847 q 326 581 390 847 q 302 453 311 521 q 293 332 293 386 q 313 210 293 256 q 375 144 332 165 l 333 1 l 129 1 q 37 26 68 1 q 6 99 6 51 q 35 186 6 149 q 83 154 54 164 q 160 144 113 144 l 231 144 q 63 399 63 183 q 119 652 63 525 q 288 863 175 779 q 561 946 400 946 q 795 864 715 946 q 875 619 875 782 q 839 410 875 508 q 736 244 803 313 q 579 146 669 175 l 650 146 q 744 157 706 146 q 796 186 782 168 q 819 113 819 154 q 783 30 819 58 q 674 1 746 1 l 443 1 l 443 143 z "},"μ":{"ha":808,"x_min":-26,"x_max":781,"o":"m 781 731 l 675 176 q 668 118 668 135 q 681 75 668 92 q 722 57 694 58 q 670 -6 710 15 q 583 -28 631 -28 q 508 -8 539 -28 q 467 51 476 13 q 299 -24 415 -11 q 272 -25 289 -25 q 233 -21 253 -25 l 193 -250 l -26 -272 l 101 388 l 108 424 q 135 589 135 549 q 81 653 135 647 q 133 715 93 693 q 222 736 174 736 q 315 706 281 736 q 349 614 349 675 q 311 400 349 558 q 280 257 290 313 q 269 161 269 201 q 339 68 269 68 q 432 126 396 68 q 486 283 468 185 l 564 708 l 781 731 z "},"π":{"ha":711,"x_min":26,"x_max":746,"o":"m 206 578 q 175 579 196 579 q 117 569 147 579 q 74 544 88 558 q 54 618 54 588 q 103 707 54 678 q 226 736 151 736 q 319 729 261 736 q 433 715 376 722 q 603 697 560 697 q 713 733 676 697 q 746 651 746 696 q 705 573 746 604 q 593 540 664 542 l 560 303 q 550 182 550 222 q 572 94 550 126 q 639 60 593 61 q 588 -12 624 13 q 503 -36 553 -36 q 415 -6 446 -36 q 383 88 383 24 q 417 313 383 150 l 463 549 l 322 565 l 208 0 l 26 -25 l 206 578 z "},"¹":{"ha":451,"x_min":51,"x_max":411,"o":"m 311 494 l 344 494 q 400 506 388 494 q 411 458 411 490 q 391 410 411 424 q 329 397 371 397 l 243 399 l 110 401 q 57 396 78 401 q 51 433 51 410 q 117 496 51 496 l 165 496 l 228 799 q 193 783 214 789 q 154 776 172 776 q 88 857 94 776 q 351 942 207 876 l 392 922 l 311 494 z "},"²":{"ha":481,"x_min":86,"x_max":485,"o":"m 324 946 q 440 912 396 946 q 485 808 485 878 q 464 723 485 761 q 397 649 443 685 q 243 529 304 575 q 363 515 297 515 q 449 536 422 515 q 464 482 464 511 q 354 397 464 397 q 247 410 304 397 q 211 415 239 411 q 158 419 183 419 q 108 408 126 419 q 92 433 99 417 q 86 463 86 449 q 123 533 86 494 q 229 629 160 572 q 293 685 264 657 q 332 733 318 707 q 346 785 346 760 q 328 830 346 815 q 279 844 310 844 q 214 826 243 844 q 167 772 185 807 q 139 790 149 775 q 129 825 129 804 q 188 914 129 882 q 324 946 247 946 z "},"³":{"ha":465,"x_min":71,"x_max":465,"o":"m 203 704 q 294 734 260 713 q 328 793 328 756 q 268 844 328 844 q 208 830 238 844 q 154 789 178 815 q 128 831 128 797 q 188 915 128 885 q 319 946 249 946 q 425 918 385 946 q 465 835 465 890 q 429 746 465 783 q 336 689 393 708 q 449 568 449 671 q 385 440 449 490 q 225 390 322 390 q 113 417 156 390 q 71 492 71 444 q 99 546 71 528 q 215 486 142 486 q 281 506 258 486 q 304 565 304 526 q 276 624 304 607 q 193 642 247 642 l 203 704 z "},"⁄":{"ha":394,"x_min":-83,"x_max":483,"o":"m 19 -124 q -21 -126 11 -126 q -83 -89 -83 -126 q -75 -56 -83 -76 l 382 997 q 418 1000 401 1000 q 468 992 453 1000 q 483 963 483 985 q 471 911 483 944 l 19 -124 z "},"½":{"ha":1100,"x_min":61,"x_max":1051,"o":"m 729 997 q 765 1000 746 1000 q 815 992 800 1000 q 829 961 829 983 q 817 911 829 940 l 367 -124 q 326 -126 358 -126 q 264 -89 264 -126 q 272 -56 264 -76 l 729 997 m 310 490 l 343 490 q 396 500 382 490 q 408 453 408 483 q 388 406 408 419 q 328 393 368 393 l 244 394 l 122 397 q 67 390 82 397 q 61 429 61 407 q 76 475 61 458 q 124 492 92 492 l 168 492 l 231 799 q 197 782 217 788 q 161 776 178 776 q 92 857 100 776 q 360 943 210 874 l 392 921 l 310 490 m 829 243 q 911 376 911 314 q 893 422 911 407 q 846 436 875 436 q 780 417 810 436 q 733 364 750 397 q 705 381 715 367 q 694 417 694 394 q 754 504 694 472 q 889 536 814 536 q 1007 502 963 536 q 1051 399 1051 468 q 1026 307 1051 347 q 949 225 1000 267 q 882 175 932 211 l 808 119 q 929 107 865 107 q 1014 126 989 107 q 1029 72 1029 104 q 918 -12 1029 -12 q 852 -7 888 -12 q 808 0 817 -1 q 724 11 747 11 q 675 -1 693 11 q 658 24 664 8 q 651 57 651 40 q 664 96 651 78 q 701 135 676 114 l 829 243 z "},"⅓":{"ha":1136,"x_min":61,"x_max":1072,"o":"m 729 997 q 765 1000 746 1000 q 815 992 800 1000 q 829 961 829 983 q 817 911 829 940 l 367 -124 q 326 -126 358 -126 q 264 -89 264 -126 q 272 -56 264 -76 l 729 997 m 310 490 l 343 490 q 396 500 382 490 q 408 453 408 483 q 388 406 408 419 q 328 393 368 393 l 244 394 l 122 397 q 67 390 82 397 q 61 429 61 407 q 76 475 61 458 q 124 492 92 492 l 168 492 l 231 799 q 197 782 217 788 q 161 776 178 776 q 92 857 100 776 q 360 943 210 874 l 392 921 l 310 490 m 808 301 q 899 333 865 310 q 933 392 933 356 q 917 430 933 417 q 872 443 901 443 q 812 428 842 443 q 760 386 782 414 q 732 429 732 396 q 793 514 732 483 q 925 544 854 544 q 1031 517 990 544 q 1072 433 1072 489 q 1035 344 1072 382 q 942 286 999 306 q 1026 247 996 278 q 1056 165 1056 217 q 1026 73 1056 114 q 946 8 997 32 q 831 -15 894 -15 q 718 13 761 -15 q 675 88 675 40 q 703 143 675 124 q 819 82 744 82 q 885 102 863 82 q 908 161 908 122 q 881 221 908 203 q 797 239 853 239 l 808 301 z "},"⅔":{"ha":1164,"x_min":65,"x_max":1108,"o":"m 767 997 q 804 1000 786 1000 q 853 992 838 1000 q 868 961 868 983 q 856 911 868 940 l 404 -124 q 364 -126 396 -126 q 303 -89 303 -126 q 311 -56 303 -76 l 767 997 m 242 649 q 325 781 325 719 q 258 840 325 840 q 192 821 221 840 q 146 768 163 801 q 118 785 128 771 q 108 821 108 800 q 167 910 108 878 q 303 942 226 942 q 419 908 375 942 q 464 804 464 874 q 438 712 464 751 q 361 631 413 672 l 285 572 l 222 525 q 342 511 276 511 q 428 532 401 511 q 443 478 443 507 q 332 393 443 393 q 221 406 299 393 q 138 415 165 415 q 88 404 106 415 q 72 429 78 413 q 65 463 65 446 q 77 501 65 483 q 114 540 89 519 l 242 649 m 844 301 q 937 333 903 310 q 971 392 971 356 q 955 430 971 417 q 910 443 939 443 q 849 428 879 443 q 796 386 818 414 q 769 429 769 396 q 830 514 769 483 q 963 544 890 544 q 1068 517 1028 544 q 1108 433 1108 489 q 1073 344 1108 382 q 979 286 1038 306 q 1063 247 1033 278 q 1092 165 1092 217 q 1028 36 1092 88 q 867 -15 964 -15 q 754 13 797 -15 q 711 88 711 40 q 740 143 711 122 q 857 82 781 82 q 923 102 900 82 q 946 161 946 122 q 917 221 946 203 q 835 239 889 239 l 844 301 z "},"¼":{"ha":1133,"x_min":61,"x_max":1060,"o":"m 729 997 q 765 1000 746 1000 q 815 992 800 1000 q 829 961 829 983 q 817 911 829 940 l 367 -124 q 326 -126 358 -126 q 264 -89 264 -126 q 272 -56 264 -76 l 729 997 m 310 490 l 343 490 q 396 500 382 490 q 408 453 408 483 q 388 406 408 419 q 328 393 368 393 l 244 394 l 122 397 q 67 390 82 397 q 61 429 61 407 q 76 475 61 458 q 124 492 92 492 l 168 492 l 231 799 q 197 782 217 788 q 161 776 178 776 q 92 857 100 776 q 360 943 210 874 l 392 921 l 310 490 m 1043 528 q 975 197 1007 375 q 1046 217 1025 203 q 1060 168 1060 193 q 1035 117 1060 135 q 956 93 1010 99 l 942 0 q 885 -17 921 -17 q 817 42 817 -17 l 818 64 l 824 96 q 631 122 715 101 l 626 199 l 925 539 l 1043 528 m 719 203 q 843 196 782 196 q 897 414 876 351 l 719 203 z "},"¾":{"ha":1149,"x_min":53,"x_max":1075,"o":"m 744 997 q 781 1000 761 1000 q 830 992 815 1000 q 844 961 844 983 q 832 911 844 940 l 382 -124 q 342 -126 374 -126 q 279 -89 279 -126 q 288 -56 279 -76 l 744 997 m 186 700 q 277 731 243 708 q 311 790 311 754 q 295 828 311 815 q 250 842 279 842 q 190 827 219 842 q 138 785 160 813 q 110 828 110 794 q 171 913 110 882 q 303 943 232 943 q 409 915 368 943 q 450 832 450 888 q 413 742 450 781 q 319 685 376 704 q 403 646 374 676 q 433 564 433 615 q 369 435 433 486 q 208 385 306 385 q 96 412 139 385 q 53 486 53 439 q 81 542 53 522 q 197 481 122 481 q 263 501 240 481 q 286 560 286 521 q 258 619 286 601 q 175 638 229 638 l 186 700 m 1058 528 q 990 197 1022 375 q 1061 217 1040 203 q 1075 168 1075 193 q 1050 117 1075 135 q 971 93 1025 99 l 957 0 q 900 -17 936 -17 q 832 42 832 -17 l 833 64 l 839 96 q 646 122 731 101 l 642 199 l 940 539 l 1058 528 m 735 203 q 858 196 797 196 q 913 414 892 351 l 735 203 z "},"⅛":{"ha":1140,"x_min":61,"x_max":1079,"o":"m 729 997 q 765 1000 746 1000 q 814 992 799 1000 q 829 963 829 985 q 817 911 829 940 l 367 -124 q 326 -126 358 -126 q 264 -89 264 -126 q 272 -56 264 -76 l 729 997 m 310 490 l 343 490 q 396 500 382 490 q 408 453 408 483 q 388 406 408 419 q 328 393 368 393 l 244 394 l 122 397 q 67 390 82 397 q 61 429 61 407 q 76 475 61 458 q 124 492 92 492 l 168 492 l 231 799 q 197 782 217 788 q 161 776 178 776 q 92 857 100 776 q 360 943 210 874 l 392 921 l 310 490 m 1049 165 q 1019 73 1049 115 q 938 6 989 31 q 828 -19 888 -19 q 707 15 757 -19 q 657 110 657 49 q 691 195 657 158 q 788 263 725 232 q 738 315 753 290 q 724 369 724 339 q 753 456 724 417 q 833 517 783 494 q 939 540 883 540 q 1039 513 999 540 q 1079 435 1079 486 q 1047 355 1079 388 q 960 293 1014 322 q 1029 231 1010 257 q 1049 165 1049 204 m 914 335 q 965 413 965 364 q 953 450 965 436 q 915 464 940 464 q 871 449 889 464 q 853 411 853 435 q 883 358 853 382 l 914 335 m 831 218 q 778 129 778 183 q 793 79 778 97 q 836 61 808 61 q 885 81 867 61 q 904 128 904 100 q 897 159 904 147 q 874 183 889 171 l 831 218 z "},"*":{"ha":575,"x_min":88,"x_max":626,"o":"m 582 799 q 621 738 614 767 q 626 710 626 722 q 575 653 626 669 q 481 640 535 640 q 428 643 464 640 l 521 499 q 475 440 504 463 q 435 425 456 425 q 381 460 406 425 q 324 601 346 503 l 211 464 q 143 490 168 471 q 113 540 113 514 q 131 588 113 563 q 247 682 167 636 l 90 744 q 88 774 88 764 q 93 817 88 792 q 150 864 110 864 q 307 779 207 864 l 317 949 q 388 968 353 968 q 454 897 454 968 q 418 757 454 842 l 582 799 z "},"\\":{"ha":418,"x_min":88,"x_max":332,"o":"m 151 974 q 165 1061 154 1032 q 201 1103 175 1090 q 282 1115 228 1115 q 332 1111 319 1115 l 268 -165 q 238 -253 264 -229 q 147 -278 211 -278 q 108 -276 128 -278 q 88 -272 89 -274 l 151 974 z "},"·":{"ha":311,"x_min":33,"x_max":281,"o":"m 160 442 q 247 417 214 442 q 281 346 281 392 q 245 274 281 300 q 156 249 210 249 q 67 274 101 249 q 33 343 33 299 q 69 416 33 390 q 160 442 106 442 z "},"•":{"ha":393,"x_min":22,"x_max":332,"o":"m 332 361 q 289 266 332 300 q 175 232 246 232 q 64 265 106 232 q 22 356 22 299 q 67 452 22 417 q 182 488 111 488 q 291 453 250 488 q 332 361 332 419 z "},":":{"ha":379,"x_min":8,"x_max":361,"o":"m 8 0 m 240 735 q 328 710 294 735 q 361 639 361 685 q 326 567 361 593 q 236 542 290 542 q 148 567 182 542 q 114 636 114 592 q 150 709 114 683 q 240 735 186 735 m 135 164 q 222 139 189 164 q 256 68 256 114 q 220 -3 256 22 q 131 -29 185 -29 q 42 -4 76 -29 q 8 65 8 21 q 44 138 8 113 q 135 164 81 164 z "},",":{"ha":289,"x_min":-85,"x_max":207,"o":"m 207 54 q 173 -58 207 -4 q 85 -144 139 -111 q -28 -178 31 -178 q -85 -169 -58 -178 q -10 -52 -33 -112 q 14 67 14 8 q 0 143 14 111 q 43 159 14 153 q 97 165 72 165 q 177 137 147 165 q 207 54 207 108 z "},"…":{"ha":910,"x_min":3,"x_max":844,"o":"m 3 0 m 724 164 q 811 139 778 164 q 844 68 844 114 q 809 -3 844 22 q 719 -29 774 -29 q 631 -4 665 -29 q 597 65 597 21 q 633 138 597 113 q 724 164 669 164 m 129 164 q 217 139 183 164 q 250 68 250 114 q 215 -3 250 22 q 125 -29 179 -29 q 37 -4 71 -29 q 3 65 3 21 q 39 138 3 113 q 129 164 75 164 m 429 164 q 517 139 483 164 q 550 68 550 114 q 515 -3 550 22 q 425 -29 479 -29 q 337 -4 371 -29 q 303 65 303 21 q 339 138 303 113 q 429 164 375 164 z "},"!":{"ha":403,"x_min":26,"x_max":401,"o":"m 206 928 q 293 944 246 944 q 401 829 401 944 q 385 724 401 782 q 338 576 369 667 q 284 410 303 478 q 264 282 265 343 q 185 250 238 250 q 117 273 140 250 q 93 335 93 296 q 99 372 93 347 l 206 928 m 153 164 q 240 139 207 164 q 274 68 274 114 q 238 -3 274 22 q 149 -29 203 -29 q 60 -4 94 -29 q 26 65 26 21 q 63 138 26 113 q 153 164 99 164 z "},"¡":{"ha":382,"x_min":-17,"x_max":382,"o":"m 261 736 q 349 711 315 736 q 382 640 382 686 q 347 569 382 594 q 257 543 311 543 q 169 568 203 543 q 135 638 135 593 q 171 710 135 685 q 261 736 207 736 m 181 -221 q 93 -237 140 -237 q 10 -208 38 -237 q -17 -122 -17 -178 q -1 -19 -17 -75 q 49 132 15 38 q 102 300 83 233 q 122 426 121 367 q 201 457 149 457 q 269 434 246 457 q 293 372 293 411 q 288 335 293 360 l 181 -221 z "},"#":{"ha":782,"x_min":-7,"x_max":796,"o":"m 746 363 q 754 308 754 333 q 660 211 754 211 l 578 211 l 554 79 q 521 22 549 43 q 456 0 493 0 q 392 17 424 0 l 428 211 l 282 211 l 258 79 q 224 22 251 43 q 160 0 197 0 q 94 17 128 0 l 131 211 l 1 211 q -7 264 -7 240 q 17 338 -7 313 q 88 363 42 363 l 158 363 l 188 531 l 43 531 q 35 583 35 560 q 60 656 35 631 q 129 682 85 682 l 217 682 l 243 842 q 336 919 257 919 q 403 904 364 919 l 364 682 l 513 682 l 540 842 q 571 899 547 878 q 633 919 594 919 q 697 904 660 919 l 661 682 l 790 682 q 796 628 796 646 q 772 556 796 582 q 703 531 747 531 l 633 531 l 604 363 l 746 363 m 456 363 l 485 531 l 336 531 l 308 363 l 456 363 z "},".":{"ha":301,"x_min":-24,"x_max":224,"o":"m 103 164 q 190 139 157 164 q 224 68 224 114 q 188 -3 224 22 q 99 -29 153 -29 q 10 -4 44 -29 q -24 65 -24 21 q 13 138 -24 113 q 103 164 49 164 z "},"?":{"ha":629,"x_min":58,"x_max":679,"o":"m 679 772 q 643 658 679 710 q 556 565 607 606 q 422 471 506 525 q 311 394 351 425 q 243 326 271 364 q 215 249 215 289 q 153 280 176 249 q 129 360 129 311 q 173 474 129 426 q 301 581 217 521 q 389 647 357 621 q 443 709 421 674 q 465 786 465 744 q 386 861 465 861 q 295 826 331 861 q 260 735 260 792 q 272 672 260 699 q 196 664 240 664 q 97 688 135 664 q 58 767 58 713 q 165 902 58 860 q 401 944 271 944 q 604 903 529 944 q 679 772 679 861 m 188 164 q 275 139 242 164 q 308 68 308 114 q 273 -3 308 22 q 183 -29 238 -29 q 95 -4 129 -29 q 61 65 61 21 q 97 138 61 113 q 188 164 133 164 z "},"¿":{"ha":629,"x_min":-50,"x_max":589,"o":"m 468 736 q 556 711 522 736 q 589 640 589 686 q 553 569 589 594 q 464 543 518 543 q 376 568 410 543 q 342 638 342 593 q 378 710 342 685 q 468 736 414 736 m -50 -64 q -14 51 -50 -1 q 74 144 22 104 q 208 239 125 185 q 320 316 281 286 q 388 383 360 346 q 415 460 415 419 q 478 429 454 460 q 501 349 501 399 q 478 264 501 301 q 421 199 454 226 q 329 129 388 171 q 241 63 274 90 q 186 1 208 36 q 164 -78 164 -35 q 244 -153 164 -153 q 335 -118 300 -153 q 369 -26 369 -83 q 357 36 369 10 q 435 44 389 44 q 534 20 497 44 q 571 -58 571 -4 q 465 -194 571 -151 q 229 -236 358 -236 q 25 -194 100 -236 q -50 -64 -50 -153 z "},"\"":{"ha":575,"x_min":108,"x_max":594,"o":"m 108 661 q 140 825 128 736 q 154 992 153 914 q 225 1000 196 1000 q 304 975 276 1000 q 332 901 332 950 q 301 772 332 849 q 236 661 271 696 l 108 661 m 371 661 q 404 826 392 738 q 418 992 417 915 q 488 1000 457 1000 q 567 975 539 1000 q 594 901 594 950 q 565 771 594 847 q 499 661 535 694 l 371 661 z "},"'":{"ha":290,"x_min":118,"x_max":342,"o":"m 118 661 q 151 826 139 738 q 165 992 164 915 q 235 1000 204 1000 q 314 975 286 1000 q 342 901 342 950 q 312 771 342 847 q 246 661 282 694 l 118 661 z "},";":{"ha":383,"x_min":-57,"x_max":375,"o":"m 0 0 m 254 735 q 342 710 308 735 q 375 639 375 685 q 340 567 375 593 q 250 542 304 542 q 162 567 196 542 q 128 636 128 592 q 164 709 128 683 q 254 735 200 735 m 235 54 q 201 -58 235 -4 q 113 -144 167 -111 q 0 -178 58 -178 q -57 -169 -31 -178 q 18 -52 -6 -112 q 42 67 42 8 q 28 143 42 111 q 71 159 42 153 q 125 165 100 165 q 205 137 175 165 q 235 54 235 108 z "},"/":{"ha":438,"x_min":-94,"x_max":532,"o":"m 63 -272 q -1 -278 46 -278 q -72 -263 -50 -278 q -94 -218 -94 -249 q -82 -160 -94 -200 l 378 1108 q 431 1113 401 1113 q 509 1100 486 1113 q 532 1056 532 1088 q 514 974 532 1031 l 63 -272 z "},"_":{"ha":692,"x_min":-57,"x_max":638,"o":"m 631 -60 q 638 -99 638 -81 q 610 -165 638 -139 q 531 -192 582 -192 l -51 -192 q -57 -156 -57 -174 q -30 -86 -57 -112 q 40 -60 -3 -60 l 631 -60 z "},"{":{"ha":517,"x_min":64,"x_max":631,"o":"m 506 1111 q 631 1101 567 1111 l 618 1029 l 581 1029 q 497 995 525 1029 q 456 889 468 961 l 403 592 q 353 483 390 521 q 247 436 315 444 q 329 407 306 429 q 353 342 353 385 q 344 271 353 318 l 286 -19 q 276 -106 276 -71 q 353 -194 276 -194 l 390 -194 l 374 -268 q 246 -278 296 -278 q 120 -251 161 -278 q 79 -165 79 -224 q 89 -85 79 -143 l 151 232 q 160 300 160 268 q 135 363 160 340 q 64 386 111 386 l 81 475 q 225 622 200 475 l 281 939 q 349 1072 299 1032 q 506 1111 399 1111 z "},"}":{"ha":539,"x_min":-87,"x_max":488,"o":"m -37 -196 q 47 -162 18 -196 q 89 -56 76 -128 l 147 271 q 197 379 160 342 q 303 426 233 417 q 222 455 244 432 q 199 519 199 478 q 207 592 199 557 l 260 860 q 268 936 268 904 q 250 1005 268 982 q 192 1028 232 1028 l 154 1028 l 171 1101 q 297 1111 249 1111 q 420 1084 378 1111 q 463 993 463 1057 q 456 933 463 971 q 433 810 450 896 l 399 631 q 390 563 390 583 q 488 476 393 476 l 469 388 q 326 239 353 388 l 264 -106 q 196 -238 246 -199 q 39 -278 146 -278 q -87 -268 -24 -278 l -74 -196 l -37 -196 z "},"[":{"ha":521,"x_min":26,"x_max":672,"o":"m 672 1111 q 631 1040 663 1061 q 539 1019 600 1019 l 456 1019 l 231 -185 l 286 -185 q 376 -201 349 -185 q 403 -257 403 -218 q 401 -278 403 -272 l 26 -278 l 288 1111 l 672 1111 z "},"]":{"ha":521,"x_min":-135,"x_max":510,"o":"m 306 1018 l 240 1018 q 155 1035 181 1018 q 129 1092 129 1051 q 131 1111 129 1106 l 510 1111 l 249 -278 l -135 -278 q -94 -206 -125 -226 q -4 -186 -64 -186 l 81 -186 l 306 1018 z "},"(":{"ha":519,"x_min":103,"x_max":679,"o":"m 679 1083 q 390 710 489 960 q 292 150 292 460 q 315 -86 292 0 q 406 -250 338 -172 q 356 -278 397 -278 q 229 -208 288 -278 q 137 -19 171 -137 q 103 236 103 99 q 178 646 103 442 q 372 981 253 850 q 610 1111 490 1111 q 679 1083 660 1111 z "},")":{"ha":540,"x_min":-137,"x_max":438,"o":"m 135 1083 q 188 1111 144 1111 q 312 1040 254 1111 q 403 851 369 969 q 438 597 438 733 q 362 189 438 393 q 168 -147 286 -15 q -71 -278 50 -278 q -137 -250 -122 -278 q 78 -24 -10 -168 q 210 293 167 121 q 254 636 254 465 q 135 1083 254 949 z "},"—":{"ha":1310,"x_min":11,"x_max":1299,"o":"m 1293 401 q 1299 363 1299 383 q 1185 269 1299 269 l 17 269 q 11 306 11 286 q 40 377 11 353 q 118 401 68 401 l 1293 401 z "},"–":{"ha":665,"x_min":11,"x_max":656,"o":"m 649 401 q 656 357 656 371 q 626 294 654 318 q 547 269 599 269 l 17 269 q 11 304 11 286 q 38 374 11 347 q 107 401 65 401 l 649 401 z "},"-":{"ha":467,"x_min":14,"x_max":454,"o":"m 360 404 q 400 409 381 404 q 428 424 419 414 q 447 390 440 413 q 454 349 454 368 q 432 288 454 311 q 372 265 410 265 l 113 265 q 71 260 90 265 q 42 243 51 254 q 21 278 28 256 q 14 322 14 300 q 35 381 14 358 q 92 404 56 404 l 360 404 z "},"­":{"ha":467,"x_min":14,"x_max":454,"o":"m 360 404 q 400 409 381 404 q 428 424 419 414 q 447 390 440 413 q 454 349 454 368 q 432 288 454 311 q 372 265 410 265 l 113 265 q 71 260 90 265 q 42 243 51 254 q 21 278 28 256 q 14 322 14 300 q 35 381 14 358 q 92 404 56 404 l 360 404 z "},"«":{"ha":706,"x_min":36,"x_max":707,"o":"m 260 708 l 411 708 l 242 440 l 310 175 l 163 175 l 36 440 l 260 708 m 557 708 l 707 708 l 539 440 l 606 175 l 458 175 l 332 440 l 557 708 z "},"»":{"ha":707,"x_min":-10,"x_max":660,"o":"m 364 442 l 140 175 l -10 175 l 157 442 l 88 708 l 238 708 l 364 442 m 660 442 l 436 175 l 288 175 l 454 442 l 385 708 l 533 708 l 660 442 z "},"‹":{"ha":390,"x_min":17,"x_max":392,"o":"m 242 708 l 392 708 l 224 440 l 290 175 l 143 175 l 17 440 l 242 708 z "},"›":{"ha":392,"x_min":-10,"x_max":364,"o":"m 364 442 l 140 175 l -10 175 l 157 442 l 88 708 l 238 708 l 364 442 z "},"„":{"ha":663,"x_min":-51,"x_max":536,"o":"m 240 51 q 207 -61 240 -8 q 120 -147 174 -114 q 7 -179 67 -179 q -51 -169 -19 -179 q 24 -53 0 -114 q 47 65 47 7 q 33 142 47 110 q 76 158 47 151 q 129 164 104 164 q 210 135 179 164 q 240 51 240 106 m 536 51 q 503 -61 536 -8 q 417 -147 471 -114 q 304 -179 363 -179 q 246 -169 278 -179 q 321 -53 297 -114 q 344 65 344 7 q 331 142 344 110 q 373 158 344 151 q 426 164 401 164 q 506 135 476 164 q 536 51 536 106 z "},"“":{"ha":631,"x_min":114,"x_max":700,"o":"m 114 772 q 147 883 114 831 q 233 969 179 936 q 346 1001 288 1001 q 404 992 372 1001 q 329 876 353 936 q 306 757 306 815 q 319 681 306 713 q 277 665 306 671 q 224 658 249 658 q 144 688 174 658 q 114 772 114 717 m 410 772 q 443 883 410 831 q 530 969 476 936 q 643 1001 583 1001 q 700 992 671 1001 q 626 876 649 936 q 603 757 603 815 q 617 681 603 713 q 574 665 603 671 q 521 658 546 658 q 440 688 471 658 q 410 772 410 718 z "},"”":{"ha":624,"x_min":72,"x_max":660,"o":"m 157 979 q 199 995 171 989 q 253 1001 228 1001 q 333 972 303 1001 q 363 888 363 943 q 330 775 363 828 q 243 690 297 722 q 131 658 189 658 q 72 668 104 658 q 147 784 124 724 q 171 903 171 844 q 157 979 171 947 m 453 979 q 495 995 467 989 q 549 1001 524 1001 q 629 972 599 1001 q 660 888 660 942 q 626 776 660 829 q 540 691 593 724 q 426 658 486 658 q 369 668 399 658 q 444 784 421 724 q 467 903 467 844 q 453 979 467 947 z "},"‘":{"ha":333,"x_min":114,"x_max":404,"o":"m 404 992 q 329 874 353 935 q 306 757 306 814 q 319 681 306 713 q 277 665 306 671 q 224 658 249 658 q 144 688 174 658 q 114 771 114 717 q 147 883 114 831 q 233 968 179 936 q 346 1000 288 1000 q 404 992 378 1000 z "},"’":{"ha":364,"x_min":82,"x_max":372,"o":"m 167 979 q 209 995 181 989 q 263 1001 238 1001 q 342 972 313 1001 q 372 888 372 943 q 340 776 372 829 q 253 691 307 724 q 140 658 199 658 q 82 668 114 658 q 157 784 133 724 q 181 903 181 844 q 167 979 181 947 z "},"‚":{"ha":324,"x_min":-65,"x_max":226,"o":"m 19 142 q 63 158 33 151 q 117 164 92 164 q 197 136 167 164 q 226 54 226 108 q 193 -58 226 -4 q 106 -146 160 -112 q -8 -179 51 -179 q -65 -169 -33 -179 q 10 -53 -14 -114 q 33 65 33 7 q 19 142 33 110 z "}," ":{"ha":1111,"x_min":0,"x_max":0,"o":""}," ":{"ha":556,"x_min":0,"x_max":0,"o":""}," ":{"ha":278,"x_min":0,"x_max":0,"o":""}," ":{"ha":235,"x_min":0,"x_max":0,"o":""}," ":{"ha":371,"x_min":0,"x_max":0,"o":""},"¢":{"ha":782,"x_min":100,"x_max":735,"o":"m 583 822 q 694 775 653 814 q 735 676 735 736 q 694 581 735 614 q 593 547 653 547 q 532 563 550 547 q 548 621 542 588 q 554 681 554 654 q 501 743 554 743 q 401 676 444 743 q 334 516 357 608 q 311 353 311 424 q 338 245 311 283 q 428 207 365 207 q 533 240 486 207 q 600 329 579 274 q 638 299 626 318 q 650 251 650 281 q 588 131 650 182 q 439 67 525 81 l 432 29 q 402 -48 421 -28 q 340 -68 383 -68 q 285 -61 308 -68 l 310 65 q 150 153 200 83 q 100 349 100 222 q 142 571 100 468 q 266 740 185 674 q 458 821 347 806 l 465 858 q 495 934 476 914 q 554 954 514 954 q 608 949 575 954 l 583 822 z "},"¤":{"ha":782,"x_min":57,"x_max":742,"o":"m 649 494 q 614 349 649 411 l 740 239 l 660 144 l 535 267 q 375 226 467 226 q 257 246 307 226 l 143 135 l 57 224 l 172 326 q 153 431 153 367 q 200 596 153 529 l 81 704 l 154 804 l 285 674 q 422 706 346 706 q 533 688 489 706 l 654 806 l 742 718 l 622 613 q 649 494 649 565 m 390 339 q 481 376 450 339 q 511 472 511 413 q 483 560 511 529 q 408 592 456 592 q 322 552 354 592 q 290 450 290 513 q 316 367 290 394 q 390 339 342 339 z "},"$":{"ha":782,"x_min":19,"x_max":753,"o":"m 606 622 q 532 639 568 622 q 547 690 542 661 q 553 742 553 718 q 531 815 553 789 q 465 842 508 842 q 371 803 410 842 q 332 710 332 764 q 353 640 332 671 q 403 587 374 610 q 488 529 433 564 l 513 514 q 640 405 594 460 q 686 268 686 350 q 642 127 686 189 q 524 27 599 65 q 360 -24 450 -11 l 351 -67 q 323 -142 342 -122 q 260 -162 304 -162 q 206 -157 224 -162 l 231 -26 q 79 25 139 -17 q 19 146 19 67 q 59 247 19 210 q 163 285 99 285 q 246 267 206 285 q 225 158 225 217 q 249 87 225 111 q 321 63 274 63 q 424 97 381 63 q 467 189 467 132 q 430 279 467 242 q 318 367 393 317 l 292 385 q 163 497 208 440 q 117 638 117 553 q 199 825 117 750 q 417 921 282 900 l 425 965 q 454 1041 436 1021 q 513 1061 472 1061 q 568 1056 535 1061 l 542 926 q 694 883 636 921 q 753 765 753 844 q 709 660 753 697 q 606 622 665 622 z "},"€":{"ha":782,"x_min":-17,"x_max":839,"o":"m 685 610 q 619 625 642 610 q 635 726 635 671 q 550 821 635 821 q 433 752 483 821 q 353 575 383 683 l 588 575 q 596 540 596 557 q 570 495 596 511 q 497 479 544 479 l 331 479 q 319 390 321 429 l 551 390 q 560 354 560 372 q 528 307 560 319 q 436 294 497 294 l 318 294 q 362 180 326 219 q 474 140 397 140 q 693 269 607 140 q 732 188 732 243 q 688 78 732 128 q 566 1 643 29 q 396 -28 489 -28 q 90 294 103 -28 l -11 294 q -17 328 -17 307 q 7 374 -17 357 q 71 390 31 390 l 93 390 q 107 479 97 440 l 26 479 q 19 514 19 497 q 43 559 19 543 q 107 575 67 575 l 133 575 q 305 822 189 728 q 588 917 421 917 q 769 879 699 917 q 839 760 839 842 q 794 651 839 692 q 685 610 749 610 z "},"ƒ":{"ha":782,"x_min":-156,"x_max":864,"o":"m 378 -37 q 64 -250 338 -250 q -92 -225 -28 -250 q -156 -139 -156 -200 q -120 -68 -156 -93 q -33 -43 -85 -43 q 38 -58 11 -43 q 18 -135 18 -90 q 68 -189 18 -189 q 134 -153 111 -189 q 168 -53 157 -117 l 269 479 l 125 479 q 119 514 119 494 q 143 559 119 543 q 206 575 167 575 l 288 575 l 331 786 q 434 949 354 897 q 646 1000 514 1000 q 801 974 738 1000 q 864 888 864 949 q 828 817 864 842 q 742 792 792 792 q 672 808 699 792 q 686 844 681 824 q 692 883 692 865 q 642 939 692 939 q 576 903 599 939 q 540 803 553 868 l 494 575 l 708 575 q 717 540 717 557 q 691 495 717 511 q 618 479 665 479 l 476 479 l 378 -37 z "},"₲":{"ha":782,"x_min":49,"x_max":789,"o":"m 633 586 q 567 601 590 586 q 582 707 582 650 q 565 789 582 764 q 506 814 547 814 q 381 735 433 814 q 303 544 329 657 q 278 329 278 431 q 410 122 278 122 q 490 131 458 122 l 538 410 l 744 435 q 688 223 708 342 q 665 -4 668 104 q 599 -28 640 -28 q 500 32 538 -28 q 413 -14 454 -1 l 403 -67 q 374 -142 393 -122 q 311 -162 356 -162 q 257 -157 275 -162 l 282 -26 q 107 76 165 -12 q 49 314 49 165 q 101 590 49 461 q 249 806 154 719 q 467 911 344 892 l 476 965 q 506 1041 488 1021 q 564 1061 524 1061 q 619 1056 586 1061 l 590 914 q 734 860 679 903 q 789 742 789 818 q 744 628 789 671 q 633 586 699 586 z "}}}
